<svg xmlns="http://www.w3.org/2000/svg" viewBox="0 0 409.04 397.83"><defs><style>.cls-1{fill:#66806c;}.cls-2{fill:#99bfa3;}.cls-3{fill:#ccffd9;}.cls-4{fill:#fff;}</style></defs><g id="Layer_2" data-name="Layer 2"><g id="Header"><path class="cls-1" d="M347.26,277.65V228.37a21.17,21.17,0,0,1,21.15-21.15h40.3l.33-79.51a8,8,0,0,0-8-8H8a8,8,0,0,0-8,8V389.83a8,8,0,0,0,8,8H401a8,8,0,0,0,8-8v-91H368.41A21.17,21.17,0,0,1,347.26,277.65Z"/><polygon class="cls-2" points="409.04 295.3 409.04 295.27 409.04 295.3 409.04 295.3"/><path class="cls-2" d="M408.71,214.22h-40.3a14.16,14.16,0,0,0-14.15,14.15v49.28a14.16,14.16,0,0,0,14.15,14.15H409"/><path class="cls-3" d="M312.11,34.23a9.54,9.54,0,0,0-3.63-.71,9.7,9.7,0,0,0-3.77.77l-52,22.22,55.28,55.2h40.32L317.4,39.39A9.6,9.6,0,0,0,312.11,34.23Z"/><path class="cls-4" d="M304.71,34.29a9.7,9.7,0,0,1,3.77-.77,9.75,9.75,0,0,1,8.92,5.87l30.86,72.32h1.09L318.32,39a10.71,10.71,0,0,0-14-5.63L251.89,55.74l.77.77Z"/><path class="cls-2" d="M178.68,2,69.08,111.71H298L188.12,2A6.69,6.69,0,0,0,178.68,2Z"/></g></g></svg>