<svg xmlns="http://www.w3.org/2000/svg" viewBox="0 0 32.45 45"><defs><style>.cls-1{fill:#003338;}</style></defs><g id="Layer_2" data-name="Layer 2"><g id="Layer_1-2" data-name="Layer 1"><g id="lKaba7.tif"><path class="cls-1" d="M14.24,3.78l-2.4,1.35-.1-.1,4.32-5,4.55,5-.09.13-1.6-.88c-1-.56-1.18-.48-1.17.66.07,4.29.13,8.57.22,12.85.12,5.3.28,10.6.41,15.9,0,1.08,0,1.09,1.13,1a6.87,6.87,0,0,0,4.74-2.58,7.9,7.9,0,0,0,2.06-5.6c-.07-5.61-.17-11.22-.25-16.83a2.24,2.24,0,0,1,.12-.88l6.27,6.91-.07.12c-.48-.25-1-.48-1.43-.74s-1-.58-1.53-.84c-.74-.36-1.05-.16-1,.68s.14,1.9.27,2.85q.57,4,1.17,8.08a10.64,10.64,0,0,1-4,10.4,10.91,10.91,0,0,1-4.31,2,18.4,18.4,0,0,1-9.85.08c-3.8-1.09-6.75-3.24-8.28-7a11.47,11.47,0,0,1-.49-5.72c.35-3.16.73-6.31,1.08-9.47A8.39,8.39,0,0,0,4,15c0-.8-.32-1-1-.63s-1.54.89-2.32,1.34A1.37,1.37,0,0,1,0,16L6.18,8.76c0,.35.05.53.05.71.06,5.69.1,11.39.18,17.08a8.22,8.22,0,0,0,4.52,7.38,5.72,5.72,0,0,0,2.88.68c.55,0,.72-.17.72-.71,0-2.87,0-5.74,0-8.61q0-10.32-.1-20.64c0-.24,0-.49,0-.73Z"/><path class="cls-1" d="M16.45,45c-.83,0-1.67,0-2.5,0-.68,0-1.08-.34-1.09-.86s.39-.89,1.11-.9h5c.68,0,1.08.33,1.09.85s-.39.89-1.11.91H16.45Z"/><path class="cls-1" d="M16.5,42.22c-.83,0-1.66,0-2.5,0-.68,0-1.06-.34-1.06-.88s.39-.86,1.07-.87h5c.68,0,1.07.35,1.07.88s-.38.85-1.08.86c-.85,0-1.7,0-2.55,0Z"/></g></g></g></svg>