<svg xmlns="http://www.w3.org/2000/svg" viewBox="0 0 176.2 105.73"><defs><style>.cls-1{fill:#003338;}</style></defs><g id="Layer_2" data-name="Layer 2"><g id="Layer_1-2" data-name="Layer 1"><path class="cls-1" d="M97.09.72A5.78,5.78,0,0,0,94,5.89V23.51H29.37a5.87,5.87,0,1,0,0,11.74H99.85a5.89,5.89,0,0,0,5.87-5.87V16.87l54,36-54,36V76.37a5.89,5.89,0,0,0-5.87-5.88H29.37a5.88,5.88,0,1,0,0,11.75H94V99.86a5.91,5.91,0,0,0,5.88,5.87,5.87,5.87,0,0,0,3.23-1l70.48-47a5.82,5.82,0,0,0,0-9.75L103.08,1A5.66,5.66,0,0,0,97.09.72Z"/><path class="cls-1" d="M99.85,58.75a5.88,5.88,0,0,0,0-11.75h-94a5.88,5.88,0,0,0,0,11.75Z"/></g></g></svg>