<svg xmlns="http://www.w3.org/2000/svg" viewBox="0 0 1366 545.19"><defs><style>.cls-1{opacity:0.19;}.cls-2{fill:#fff;opacity:0.51;}</style></defs><g id="Layer_2" data-name="Layer 2"><g id="Layer_1-2" data-name="Layer 1"><g id="ACsods" class="cls-1"><path class="cls-2" d="M1258.72.07h17.45c-17.69,4.53-35.25,9.15-53.11,13.57-58.37,14.46-119.72,25.35-190,26.58A736.84,736.84,0,0,0,909.54,53.1c-53.25,10-100.44,23.77-148.4,37.09-45.67,12.68-92.59,24.37-144.56,32.75-54.54,8.8-104.79,7.48-151.33-7.56-2.76-.89-6.17-1.46-9.28-2.17l-12.65-3.61c1.72,1.86,4.6,3.13,7.52,4.37,16.6,7.09,33.12,14.21,49.84,21.25,31,13,61.78,26.16,99.75,36.13,58.71,15.4,111.67,15,166.88-2.31,21.51-6.74,40.56-14.87,59.05-23,33.18-14.55,63.89-30,97.87-44.25,29.52-12.37,66.94-19.6,110-22,33-1.86,66.81-3.11,96.14-10.24,26-6.32,52.51-12.5,76.3-20,51-16.06,100.28-32.94,150.27-49.48,4.4.07,10.75-.89,8.72,2.6-15.62,5-31.51,9.77-46.82,14.86-45.17,15-89.35,30.53-135.37,45.12-37.72,12-80,20.31-129.29,22.3-33.51,1.36-65.87,4.62-93.59,13-26,7.84-47.27,17.48-67.3,27.65-28.68,14.57-56.15,29.6-87.32,43.28-55.73,24.47-126.52,27.42-196.34,9.59-30.57-7.81-56.06-17.89-81.28-28.13-4-1.62-8.93-2.86-13.43-4.28-1.09-.38-2.29-.71-3.25-1.14-21.44-9.52-42.76-19.07-64.31-28.55-9.9-4.36-20.23-8.56-30.37-12.83-2.4-1.57-4.14-3.4-7.32-4.66C394.13,92.76,379.31,86.28,362.23,81c-20.19-6.3-41.58-12.17-64-17.11-40.57-8.94-83.56-7.74-125.78-2.05C114.69,69.58,57.46,78,0,86.14V80.05c55.52-7.63,110.81-15.54,166.65-22.78,34.15-4.43,69.26-6.58,104.63-1.55,8.18,1.17,16.24,2.46,24.36,3.7l1.37-1-39.7-10.34-4.18-1.9C229.66,41,204,40.77,179,42.5c-29.24,2-58,5.18-86.77,8.17C61.33,53.89,30.72,57.49,0,60.93V55.71c6.34-.62,12.65-1.28,19-1.84C87.39,47.77,153.08,35.65,226.31,39a6.73,6.73,0,0,0-2.43-.73c-2.35-.38-4.69-.76-7.07-1.11-25.67-3.77-52-3.75-78.33-1.68C92.23,39.17,46.15,43.16,0,47V42.67l88.77-7.41-.22-.47L0,40.93V36.58c57.19-3.36,113.85-8.67,172.45-7.69-4.25-.7-8.61-1.29-13.07-1.68-26.28-2.33-52.72-1.51-79.14-.55Q40.12,28.1,0,29.63V26.15L110.57,23c-3.81-.18-7.69-.21-11.57-.18L0,23.54V20.06c26.16,0,52.33-.15,78.49-.1C122,20.05,163.77,23.22,202,32c41,9.35,81.62,18.92,122.74,28.15A495.43,495.43,0,0,0,403,71.71c11.29.72,22.51.58,31.1-2.42,14.77-5.15,32.73-7.32,50.5-9.82C532.5,52.71,580.86,46.41,628.17,39c69.71-10.86,138.64-22.56,211.1-30.31,31.17-3.33,62.92-5.8,94.41-8.66h189.79c-5.17.61-10.25,1.59-15.51,1.77-27.09,1-54.21,2.28-81.36,2.44C945.18,4.77,867.34,12.22,792,23.73c-112.25,17.16-223.81,35-335.33,52.94-24.23,3.89-47,4.18-70.58,0q-15.7-2.79-31.44-5.55a79.42,79.42,0,0,0,13.13,3.65c32.25,6.76,65.08,10.44,101.23,4.53C552.38,65.65,636.54,52.8,719.31,38.65,829,19.9,940.59,5.4,1062,5.66c27.75.06,55.55-3.63,83.33-5.59h39.27c-2.14.52-4.12,1.22-6.42,1.56A942.45,942.45,0,0,1,1044.3,12.45a1436.55,1436.55,0,0,0-149.43,8.62c-77,8.54-149.23,21.84-221.35,35.25C611.3,67.89,549.09,79.44,483.89,88.24a254.8,254.8,0,0,1-80.44-2c-8.38-1.5-16.58-3.17-27.67-5.3,19.05,9.19,40.6,15,63.51,20.07a252.1,252.1,0,0,0,94.48,3.15c41.13-6.5,82.51-12.94,122.15-20.73,66.1-13,130.21-27.6,196.45-40.48,59-11.47,122.13-17.82,188-18.53,70.11-.76,132.22-11,192.13-24.33h21.82c-17.62,4-35,8.2-52.89,12-51.75,11.15-106.22,18.55-165.72,19.43a904.24,904.24,0,0,0-102.6,7.36c-61.79,8-116.71,21.31-171.51,34.75C707.19,87,653.46,100.93,592.91,109.71c-39.45,5.71-79.17,11.53-121.07,3.14a20.58,20.58,0,0,0-3.13.41c23.36,4.78,46.07,8.55,72.33,6.87A797.82,797.82,0,0,0,674.79,99.91c49-11.58,96.71-24.09,145.24-36,49.06-12.06,100-22.68,157.26-27,28.44-2.15,57.52-3.07,86.4-4.18,55.73-2.13,104.36-11.83,152.28-22.31C1230.57,7.2,1244.49,3.52,1258.72.07Z"/><path class="cls-2" d="M593,465.88c47.43-8.3,94.68-17,146.34-20.22,10.36-.66,21.88,1.06,32.62,2.09,5.32.51,10.1,1.93,15.62,2.47-14.79-6.29-31.3-11-54.79-9.29l15.92-1.5-27.43-1.11-3.7,3.39c-32.69,4.65-66,8.73-97.89,14.09-37.69,6.34-74.19,13.79-111.21,20.76l-2.83-1.12-6.07.21.06,0-3.8.17-15.53,3.56a3.69,3.69,0,0,1-.3.64l-.82.24.78-.26h2.29c-5.17,5.21-18.08,5.48-28.78,7.15l-1.78-.07-.41-.08.3-.91.82-.26-.78.27-2.14.86c-3,1.31-5.35,3.09-9,3.86C388.06,501.71,335.71,512.64,283,523.26c-32,6.44-64.05,13-97.3,18.25-16.74,2.65-36.23,2.54-54.48,3.68l-.78-1.57,6.27-1.06c-15.13-1.19-32.91-2-49.65-4-25.27-3.14-41.52-10.79-53.87-19.8-7.82-5.71-15-11.56-23-17.23-2.58-1.84-6.75-3.33-10.19-5v-7c3.84,1.52,8.74,2.79,11.34,4.59,11.94,8.27,23.37,16.65,34.71,25C66.07,534,106.11,542,147.6,539.24c-2.11-.15-4.23-.11-6.34-.15C99,538.32,68,530.77,50.32,515.15c-6.27-5.55-11.58-11.37-19.86-16.41C21.9,493.52,10.28,489.1,0,484.34v-8.7C17.53,480,32.28,485.53,41.59,493c5.64,4.54,10.57,9.22,15.74,13.85,8.58,7.7,17.34,15.32,34,21,25.67,8.74,56,9,86.75,7.09,46.32-2.9,87.92-11,128-20.23,83.81-19.19,166.63-39.06,250.87-57.93,33.74-7.56,69.56-13.8,105.5-19.58,29-4.67,59.54-5.06,89.18.31,3.35.6,7.22.75,12.86,1.31-11.63-4.4-26.23-7.09-41.2-8.28-30.61-2.43-59.77.25-87.06,5.17-33.37,6-66.17,12.69-97.81,20C463.68,473.08,390,491.12,315.48,508.63c-40.19,9.45-81.91,17.56-128.72,20.6-44,2.87-77.2-3.83-95.6-20.06-7.45-6.58-12.62-13.57-19-20.35C59,474.73,34.09,465.15,0,459.12v-5.21c41.53,7.29,69.82,19.22,83.19,36.75a138.31,138.31,0,0,0,20.31,21c9.52,8.1,26.65,12.78,48.71,14.5,19.73,1.55,39.1.51,58.13-1.59,33.72-3.74,65.7-9.11,95.08-16.78,6.18-1.2,12.6-2.24,18.49-3.63,83-19.67,165.51-39.72,249.14-59,52.1-12,106-22.57,169.76-15.72A228.5,228.5,0,0,0,689,425.7c-37.63,1.68-71.66,7.5-103.76,15-72.12,16.79-143.7,33.95-215.34,51.05-21.76,5.2-43,10.72-64.53,16.09-7.23,1.32-14.57,2.56-21.67,4-30.24,6.09-61.3,11.14-95.17,13.12-44,2.57-78.28-6.24-89.6-23.32-2.77-4.19-4.74-8.47-8-12.61-14.76-18.81-45.26-31.93-91-39.43v-7.83c54,9,89.26,24.22,100.86,47.59a51.31,51.31,0,0,0,12.69,16.51c12,10.3,41,15.78,69.56,14.61,49.11-2,92-10.5,133.28-20.34,73-17.4,144.77-35.58,218.07-52.74,35-8.19,71.37-15.64,108.74-21.9,39.73-6.65,80.88-7.19,119.21,2.62,24.16,6.19,41.63,15,54.34,25,16.35,12.91,31,26.17,45.78,39.39,16.73,15,33.21,30,64.1,41.49,9.4,3.48,20.37,6.29,31.68,9.74-24.26,2.8-32-5.86-47.27-9.28l18.6,9-2.47.9c-12.22-3.08-18.94-8.35-29.72-12.41l11.68,11.51c-10.28.74-15.83,0-20.22-4.55-21.57-22.26-40.89-45-75.32-64.89a183.68,183.68,0,0,0-22.53-10.56c-21.36-8.6-47.31-10.32-76.41-8.12-45.81,3.46-88.71,10.2-130.13,18.34-115,22.62-229.57,45.63-344.41,68.4-6.78,1.35-14.52,1.93-21.82,2.87l-3.38-2c1.7-.16,3.55-.21,5.07-.51C326.2,521.2,432.16,499.76,538.7,478.8c50.79-10,101.61-20.26,157.22-25.46a501.65,501.65,0,0,1,58-2.35c25.39.62,41.6,8.21,56.79,15.54,6.66,3.22,12.22,6.81,18.28,10.23l2.54-.61c-8.86-5.49-16.74-11.3-26.78-16.43C780.7,447.43,749.07,444,712.38,449c-36,5-71.59,10.47-107.37,15.72-3.73.55-7.56,1-11.34,1.48Zm63.75-23.6-1.1-1L532.68,465.35l1.38,1.13Z"/><path class="cls-2" d="M1365.61,417.39c-70.31,9.41-126.46,28.06-185.72,44.78-42,11.87-84.76,23.47-129.05,33.93C992.9,509.79,947.05,504,905.67,483.21c-24-12-42.07-26-61.84-39.29-20.93-14.1-41.36-28.29-70.17-40.19-39.88-16.48-87.43-20.63-139.39-11.66C595.41,398.78,558,407,521.44,415.59c-66.39,15.57-131.35,32.11-197.56,47.81-35.32,8.38-72.25,15.62-113.28,18.68-52,3.88-86.18-3.82-103.92-23.63-5.73-6.4-9.91-13-14.8-19.54-14.23-19-47.6-30.6-91.88-38v-6.09c35.5,5.34,62.78,14.68,83.13,27.4C71.12,409.84,35,396.57,0,391.31V387C42,393.77,73.25,405,90,422c6.76,6.87,11.64,14,17.73,21,18.58,21.29,53.66,29.34,109.05,25.11,37.67-2.88,72-9.27,104.61-16.91,70.84-16.56,140.84-33.7,211.72-50.24,36.32-8.47,72.34-17.43,114-21.39,46.68-4.42,87.79,0,123.06,12.92,32.89,12.08,54,27.54,76.64,42.56,19.46,12.93,38.88,25.83,66.67,36.37,41.5,15.74,87,18.53,135.14,6.44,55.6-14,109.59-29,164.15-43.58,44.37-11.9,88.48-24,140.15-30.5,4.12-.53,8.44-.8,12.66-1.19v5.22c-18.63,2.77-38.07,4.9-55.75,8.42-53.2,10.61-99.79,25.34-148.6,38.69-38.9,10.65-78.49,20.95-119,30.55A210.61,210.61,0,0,1,930.46,482c-29.08-9-48.38-21.08-67.7-33.19-3.13-2-6.1-4-9.14-6,18.38,14.7,38.25,29,69,40.25,38.75,14.18,74.15,16.6,120.58,6.55,34.39-7.44,67.07-16.21,99.62-24.91,49.78-13.3,97.93-27.59,148.51-40.37,22.6-5.71,49.42-8.77,74.32-13ZM108.38,451.18c5.88,7.34,13.75,14.23,29.33,19.24,22.39,7.19,48.21,7.37,74.61,5.5,39.24-2.78,74.7-9.6,108.54-17.59,79.09-18.69,157.26-38,236.63-56.51,26.51-6.17,54.82-11.38,83.58-15.7,34.15-5.13,68.6-4.18,100.74,3.51,4.8,1.14,9.4,2.42,14.1,3.64-25.08-9.17-54.32-13.55-88.39-11.86-29.76,1.47-57,6.1-82.46,12C520,408.48,455.75,424.05,391,439.3c-45.66,10.74-90,22.64-140.74,29.35-20.76,2.75-43.12,4.84-64.8,4.92C147.54,473.7,122.68,465.05,108.38,451.18Z"/><path class="cls-2" d="M0,420.87c38.89,6.68,69.38,16.9,91.05,31.73,6.65,4.55,9.88,9.06,13.51,13.83,4.18,5.49,8.26,11.17,15.35,16.09,15.66,10.88,45.7,15.06,81.81,12.55,40.11-2.79,76.34-9.58,110.7-17.76,66.76-15.9,132.18-32.7,199.07-48.5,40-9.44,80.88-18.34,122.79-26.29,32.62-6.19,67.82-7.95,102.46-1.58,26.14,4.82,46.8,12.54,61.52,22.15,21.73,14.19,41.9,28.79,61.23,43.53,18.21,13.88,35.25,28,63.81,39.15,32,12.49,69.24,16.3,112.21,10.89,34.19-4.31,63.83-11.9,91.78-20.53,42.5-13.13,83.78-26.9,126.63-39.83,34.22-10.33,70.19-19.71,111.69-25v5.22a479,479,0,0,0-82.71,17.17c-44.75,13.35-88.21,27.39-132.18,41.16-29.46,9.23-59.29,18.24-94,24.18-34,5.81-68.31,8.08-103.08,1a184.41,184.41,0,0,1-56.08-20.8c-6.34-3.6-12-7.4-17.89-11.11l-2.61.67c11.55,6.93,22,14.21,34.85,20.71,33.78,17.06,77.08,22.21,129.12,15.79,33.88-4.17,63-11.93,90.48-20.52,45.72-14.29,90.2-29.21,136-43.44,29.85-9.26,61.77-17.35,98.11-22.19v6.08c-68.17,11.15-122.21,30.5-177.83,48.89-39.46,13-77.84,26.65-125.36,35.06-33.34,5.9-67.43,8.28-102.45,2.32-28.57-4.85-50-13.26-64.34-23.86-20.82-15.39-39-31.36-58-47.16-15.52-12.95-30.56-26-56.27-36.44C747.64,410.27,707.16,407.49,662,412c-33.59,3.31-63.86,9.66-93.12,16.71-82.4,19.87-164.24,40.12-246.77,59.9-38,9.12-77.27,17.49-121.76,20.62-27.44,1.92-53.91,1.45-74.78-7.37-12.76-5.4-18.88-12.19-20.5-19.3-6-26.51-41.84-44-101.3-54.69-1.32-.24-2.52-.58-3.77-.87Zm112.45,64.41c7.73,9.42,24.62,16.11,51.54,17.74a298,298,0,0,0,37.92-.28c45.19-3.16,84.93-11.78,123.61-21,87.81-21,174.56-42.78,263-63.41,50.38-11.77,103.76-20.19,163.62-9.65a61.68,61.68,0,0,0-9.37-2.66c-34.78-7.31-70.68-6-104.15.21-42.09,7.75-83,16.65-123,26.07-64.71,15.26-127.93,31.53-192.3,47-37.7,9.08-76.73,17.29-120.89,20.26-20.57,1.38-42,1.91-60.19-3.08C130.65,493.3,121.47,488.74,112.45,485.28Z"/><path class="cls-2" d="M1365.61,292.19c-36.43-2.09-71.78.3-106.38,4.55-68.43,8.39-129.31,22.08-181.37,41.85-11.55,4.39-24.23,8.3-36.57,12.35-40.38,13.23-87,16.74-136.45,11.86-40.43-4-80-9.54-119.4-15-46.39-6.39-92.38-13.17-141.46-15.68-50.61-2.6-99.7-.33-145.84,8.33-44,8.27-86.78,17.57-130.31,26.24-37.47,7.47-75.67,14.24-117.78,16.43-51,2.65-93.13-3.42-120.93-21.25-13.75-8.82-25.07-18.3-35.92-27.77C73.1,316.58,40.87,303.72,0,293.93v-5.22c2.62.48,5.44.83,7.83,1.44,35.09,9.06,64,20.42,83.2,35.43,1.53,1.19,3.29,2.34,5,3.51C77.22,309.87,44.3,295.55,0,285.24V280c43.22,10.33,76.32,24.28,97.6,42.65A310.69,310.69,0,0,0,126.77,345c27,18.28,66.49,28.33,120.86,25.95,23.57-1,47.8-3.06,69.51-6.73,50.11-8.47,98.9-18.18,148.14-27.47,32.24-6.08,64.64-12,100.26-14.22,39.78-2.43,79.24-.53,117.74,3.29,47.9,4.76,95,10.87,142.78,15.76,31.22,3.18,62.9,6.17,94.84,7.59,50.7,2.24,93.71-5.28,130.62-19.14,25.59-9.62,50.65-19.71,79.15-27.79a742.37,742.37,0,0,1,206.74-28.34c9.4,0,18.8.59,28.2.9v6.09c-16.66-.18-33.45-1-50-.43-62.3,2-117.86,11.61-170.58,24.49-34.14,8.34-61.12,20-91.22,30.17a414.92,414.92,0,0,1-52.58,14.47c-36.06,7.15-75.12,6.81-113,2.94-49.91-5.11-99.08-11.37-148.49-17.24-49.61-5.9-99.68-10.67-152-9.9a439.13,439.13,0,0,0-75.54,7.88,44.49,44.49,0,0,0,7.26-.51c40.59-5.68,82.13-6.63,124.59-4.4,42.78,2.25,83.56,7.41,124.39,12.63,39.76,5.09,79.37,10.48,119.75,14.64,37.36,3.84,75.5,4.49,112.3-1.85,27.51-4.74,49.93-12.4,70.92-20.62,50.7-19.86,109.56-34.28,177.21-42.85,38-4.81,76.77-7.72,116.93-5.07ZM104.74,335.26l-3,.76c11.7,8,22.2,16.25,35.38,23.8,19.27,11.05,47,17.29,80.68,18.22,61.1,1.68,113.15-9.17,165.19-19.71-3.84.2-7.25.9-10.82,1.42-33.31,4.91-65.87,11-100.13,14.41-67,6.65-114.95-2.28-149.7-26C116.14,343.94,110.59,339.57,104.74,335.26Z"/><path class="cls-2" d="M0,359.14c47.48,9.37,80.9,23.61,97.83,43.91A125.69,125.69,0,0,0,121,425c19.83,14.36,53.55,20.31,94.51,18,42.55-2.37,81.08-9.14,118-17.36,63.42-14.15,125.93-28.94,189.29-43.14,23.07-5.17,47-9.82,71.36-14,55.65-9.46,107.9-6.19,156.64,7.73,35.11,10,63.87,22.73,93.83,35,22.52,9.19,44.81,18.66,70,26.59,45.1,14.18,86,14.27,134.74,1.75,55-14.13,109.38-28.62,164.69-42.54,46.94-11.81,96.53-21.42,151.6-25.77v7c-6,.47-12.19.81-18.13,1.45-49.75,5.34-94.28,15.17-137.24,26.1-52.08,13.26-103.38,27-155.08,40.47-53,13.82-93.86,13.67-142.69-2.17C889,436.51,869.42,427,848.36,418.21c-8.66-3.6-16.56-7.49-24.81-11.25,8.46,5.54,18.54,10.47,28.57,15.41,21.26,10.48,42.14,21.07,69.92,29.08,36.9,10.64,75.29,13.12,116.14,3.76,8.5-1.95,17-3.9,25.2-6,47.07-12.34,93.84-24.86,141.1-37.07,36.31-9.38,73.23-18.44,114.11-24.39,15.2-2.22,31.32-3.42,47-5.09V387c-57.46,5.62-107.51,17.4-156.35,30.09-52.37,13.61-104.16,27.57-156.56,41.16-17.09,4.43-35.49,8.1-56.34,8.8A229.28,229.28,0,0,1,926,458.27c-31-8.59-52.94-20.57-75.46-32.3-26.52-13.81-53-27.62-86.32-39-29.8-10.21-62.92-17.38-103.7-16.28a419.85,419.85,0,0,0-79.64,9.85c-53.3,11.86-106.07,24.11-158.75,36.4-51.43,12-101.73,24.87-157.67,33.43-27.23,4.16-55.19,7.25-85.08,5.56-28.14-1.6-48.79-7.52-61.25-17.45a121.29,121.29,0,0,1-21-20.95C81.45,396.78,48.48,382.28,0,373.05V368.7c4.3.75,8.83,1.33,12.85,2.26C43.09,378,68.38,387.1,85.9,399.33c-17.27-15.88-47-26.82-85.9-34.11ZM698.25,369.4l-.12-1.81c-16.46-.3-33.08-1.3-49.37-.76-39,1.28-73.12,8.33-106.36,15.86-72.64,16.46-144.62,33.37-217.4,49.73-34.61,7.78-71.21,14-111.12,16-35.92,1.82-67.34-1.66-89.21-14.07-6.16-3.49-10.58-7.47-15.8-11.23,6.31,8.22,14.67,16,32,21.52,24.8,7.93,53.05,8.43,82.75,6.14,49.45-3.8,92.69-13.42,135.57-23.2,64.94-14.83,128.89-30.35,194.09-45C597.93,372.58,644.21,364,698.25,369.4Z"/><path class="cls-2" d="M1365.61,100.92c-26.75,5.49-54.36,10.41-80.1,16.56-80.09,19.15-157.84,39.94-239.62,57.82-70.39,15.39-135.12,34-202.5,51.08-40.12,10.17-82.51,18.3-129.95,21.58-54.38,3.77-106.32-.36-157-7.89-74.4-11-142-27.26-207.62-44.75Q289.94,179.63,232.61,163c-43.85-12.62-93.35-15.39-145.21-13.68-29.25,1-58.27,3.05-87.4,4.63v-3.47c45.56-3.85,91.26-7.1,138.2-6.27,37.25.66,71,5,101.84,13.52,66.23,18.34,132.45,36.7,199.87,54.33,48.36,12.64,99.53,23.39,155.17,30.33,34.49,4.29,75.52,6.39,97.52,4.85-58.43-1.21-78.79-2.46-131-12.75-39.27-7.75-77.55-16.58-113.88-26.34q-98.05-26.33-193-54.48c-47.6-14.11-100.34-16.65-156.2-13.76C65.49,141.62,32.84,144.59,0,147v-2.61c31-2.5,61.73-5.52,92.93-7.38,43.07-2.58,86.89-3.6,127.36,4.22,24.33,4.7,46.86,11,69,17.31,60.75,17.18,120.52,34.9,181.39,52a1136,1136,0,0,0,120.41,27c83.36,14,160.83,9.38,232.33-11.78,37.3-11,73-22.93,108.7-34.81,34.59-11.53,73.51-20.14,113.11-28.46,74.37-15.62,144.78-33.81,214.4-52.54,30.7-8.26,62.51-15.86,93.94-23.68,3.6-.89,8-1.28,12-1.9v3.48c-27.54,6.46-55.37,12.74-82.55,19.43-77,19-152.91,38.6-230.77,56.95-42.84,10.1-87.42,18.92-126.07,31.69-28.25,9.34-57.49,18.19-86.4,27.2-6.11,1.91-12.66,3.6-19,5.4,14.45-2.77,27.72-6.21,40.68-9.83,41.63-11.65,82.12-24,125-34.87,40.13-10.15,83.46-18.27,124.1-28.12,65.52-15.89,129.75-32.61,195.05-48.64,19.07-4.68,39.92-8.2,59.95-12.26Z"/><path class="cls-2" d="M1365.61,138.3c-28.93,3.77-58.47,6.95-86.67,11.44-55.3,8.82-105,21.8-154.45,34.82C1037.92,207.36,946,225.79,848,239.42a1593.5,1593.5,0,0,1-253,14.51c-89.53-1.86-176.75-8.19-259.59-22.43-52.07-8.95-99.67-20.74-143.35-35.21-38.75-12.84-84.81-18.72-134.4-20.44-19.15-.66-38.44-.7-57.66-1v-3.48c21.8,0,43.64-.42,65.38,0,49.84,1,95.46,6.63,134.48,19.73C235.25,203,274,213,315.15,221.43c72.72,15,149.88,24.29,230.85,28.72,9,.49,18,.77,27.08,1.12,8.61.33,17.23.61,25.85.92a1632.43,1632.43,0,0,1-222.27-25.34c-63.05-11.57-120.54-26.7-175.47-43.5a337.34,337.34,0,0,0-86.12-14.73c-29.55-1.15-59.39-1.18-89.12-1.51-8.63-.09-17.3.48-25.95.75v-2.6c24.23-.58,48.49-1.77,72.68-1.6,34.92.25,70,1.46,101.44,8.37,16.47,3.62,32.36,7.78,47.39,12.29A1620.42,1620.42,0,0,0,471,238.63c66.59,9.07,134.94,14,205.5,12.6,42.76-.84,84.52-4.52,123.57-11.38,47.79-8.39,94.82-17.55,141.17-27.16q79.23-16.41,156.56-34.27c43-9.95,83.64-21.56,127-31.22,39.86-8.87,81.94-16.15,123.16-24,5.5-1,11.71-1.52,17.59-2.25v4.34c-5.27.53-10.9.76-15.76,1.64-39.58,7.25-80.13,13.81-118.19,22.17-42.9,9.41-83,20.85-125.3,30.72-46.7,10.89-94.16,21.3-142,31.37-54.92,11.57-109.94,23.14-169,31.18-2.76.38-5.4.89-8.1,1.34a80.77,80.77,0,0,0,12.93-.9c104.39-13.42,201.59-32.9,294.66-55.79,58.43-14.38,114.66-30.3,177.82-41.33,30.13-5.26,61.92-9,93-13.44Z"/><path class="cls-2" d="M0,186.12c28.52,2.06,57.34,3.63,85.5,6.29,37.63,3.56,66.79,13.16,94.38,23.34,54,19.92,118.25,31.21,189.91,36.28C445.72,257.4,522.32,257,599,255.84c20-.3,40-.07,59.95-.28,91.1-1,181.05-4.86,268.26-16.21a1064.73,1064.73,0,0,0,161.52-33.61c71.79-20.88,149.12-37.65,236.21-46.26,13.35-1.32,27.12-2,40.69-2.92v6.09c-10.8.51-21.76.71-32.38,1.58-85.17,7-160.77,22.43-231,42.31-38.54,10.9-76.33,22.12-120.48,29.4C903.83,248.8,822,253.89,738.56,255.78c-23.41.53-46.85.85-70.28,1.26,88.29.38,176.4.12,262.54-9.28,53.32-5.82,101.47-15.51,144.84-29.19,51.87-16.37,108.52-29.55,170.42-39,38.52-5.87,78.08-10.05,119.53-10.86v3.48c-111.51,3.54-205.93,23.13-291.57,50.25-56.61,17.92-120.81,28.29-191.3,32.27-45.15,2.55-91,3.58-136.58,4.33-43.53.71-87.23-.35-130.77.31-47.07.72-94,2.46-141,3.87-68.22,2-136.31,3.67-202.8-5.14-40-5.3-74.75-14-104.81-25.73-25.94-10.16-52.29-20.2-86.2-26.16A568.05,568.05,0,0,0,0,197.43V194c22.56,2.19,45.44,4,67.6,6.66,34.86,4.27,63,13,88.79,23C186.1,235,217.93,245.2,256.52,251.64c56.6,9.46,116.1,11.17,176.4,10.62,21.76-.2,43.5-.92,65.23-1.49q35.13-.93,70.24-2c-6.57-.36-13.09-.46-19.59-.35-61,1-122,1.72-182.71-1.76-73.06-4.18-138.53-14.87-192.65-35.47C124.86,202.68,65.94,193,0,189.6Z"/><path class="cls-2" d="M1365.61,325.23c-47.72-.47-91.67,5.38-134.41,13q-91.07,16.21-167.66,41.75c-21.86,7.26-45.56,13.5-74.29,15.78-35.59,2.81-68.91-.65-100.21-6.89C855,382.07,822.53,374,788.44,367.17c-32.74-6.52-65.8-13.12-100.32-17.8-62.4-8.46-123.1-3.77-180.32,7.87-44.61,9.08-87.73,19.32-131.67,28.93-38.32,8.38-77.58,16-120.46,19.9-36.19,3.31-71.58,3.21-103.22-6.09-22.87-6.72-34.08-16.64-46-26.48C93.6,362.85,81.39,351.91,65,342.13c-15.77-9.4-38.86-16.33-65-21.25V314.8c22.94,4.83,44,10.81,60,18.94,13.49,6.88,24.25,14.61,36.22,22l8.46,7.66c7.35,6.27,13.59,12.8,22.28,18.76,16.25,11.13,40.86,17.76,73.13,19.79,25.43,1.6,50-.1,74.16-2.93,43.9-5.13,83.81-13.73,123.75-22.41,43-9.35,86.16-18.65,130.44-27,31.43-5.89,65.76-8.39,100.81-7.62,56.52,1.25,106.85,10.26,156.27,20.31,32.67,6.65,65,13.58,98.28,19.72,32.73,6.05,67.14,9.48,103.72,6.57,28.74-2.28,52.45-8.53,74.08-15.9,50.63-17.26,106-31.46,167.15-42,43.62-7.5,88.36-13.36,136.88-12.44Z"/><path class="cls-2" d="M0,333.06c18.7,5.37,38.62,10.19,55.78,16.26,21,7.42,32.63,17.56,43,27.88,7.12,7.12,14.4,14.28,23.64,21,22.37,16.22,61.21,23.23,107.28,20.47,49.9-3,94.16-11.69,137.36-21.3,41.54-9.24,81.73-19.44,123.21-28.73,40.45-9.06,82.92-16.06,130-17.71,35.46-1.24,68.49,2.12,100.31,7.89,45,8.15,84.37,19.83,124.18,31.25,27.46,7.89,55.41,15.37,87.79,19.86,39.53,5.47,75.95,2.87,109.77-6.41,31.7-8.69,62.28-18.07,94.59-26.38,53.22-13.69,108.35-26.09,170-32.86,19.13-2.1,39.18-2.86,58.81-4.24v7c-9.71.48-19.54.73-29.11,1.49-55.32,4.38-105.39,14.06-152.79,25.7-46.93,11.53-92.27,24.1-137.85,36.48a270.52,270.52,0,0,1-130.45,3c-26.22-5.79-50.4-13.08-75.08-19.93-22.3-6.2-44-12.72-66-19.1-30.67-8.43-62.71-15.73-99.63-18.94-7.45-.56-14.84-1.4-22.34-1.62-50.81-1.49-97,4.88-140.38,14.42-52.4,11.53-103.27,24.16-155.39,35.9-37,8.33-75.56,15.51-117.77,18.81-40.66,3.17-78,1-105.81-12.48-10.46-5.07-17.53-11.26-26.15-16.94L93.91,380.89a40.19,40.19,0,0,0-3.16-4.1C73.53,359.08,40.23,347.37,0,338.27Z"/><path class="cls-2" d="M1365.61,258.28c-31.86-1.58-63.7-1.93-95.25.88-64.51,5.74-121.58,17.24-169.52,35.53-23.08,8.8-44.72,18.24-68.7,26.62-37.79,13.21-83.67,15.94-131.94,14.05-64.35-2.53-125.47-11-188.28-16.38-33.31-2.84-67.11-5-101-6.52-46.15-2.08-89.28,3.07-130.84,10.64-51.55,9.38-102.77,19.06-154.72,28.07A520,520,0,0,1,244,358.45c-48.08.66-83.78-8.11-110.63-23.2a176.37,176.37,0,0,1-27.38-18.74C81.81,296.13,48.62,279,0,267v-4.35c40.29,9.09,70.31,22.08,92.83,38.12,15.77,11.22,30.9,22.7,49.68,33.1C168,348,205,354.28,248.61,353.49c34.95-.63,67.75-5.12,99.36-10.76,47.39-8.46,94.24-17.41,141.54-26a582.91,582.91,0,0,1,147.92-7.53c52,4,103.71,8.68,155.38,13.34,47.51,4.28,94.77,8.84,144.12,7.86,37.37-.74,70.47-5.59,97.93-15.72q26.75-9.87,51.39-20.62c45.83-19.9,102.18-32.6,167-39.72,37.07-4.07,74.56-4.11,112.32-2.18Z"/><path class="cls-2" d="M1365.61,229.59a672.56,672.56,0,0,0-128.17,3c-63.63,7.76-115.71,22.22-159.77,42a523.14,523.14,0,0,1-63.19,23.06c-25.32,7.59-56.28,9.75-87.6,10.32-54.71,1-107.56-3.82-160.55-8.23-45.13-3.75-90.21-7.63-135.52-11a598.1,598.1,0,0,0-145,7.16C438.09,304,391,312.78,343.05,320.75c-32,5.32-65.23,8.74-100.63,8.24-39.19-.56-71.57-6.86-95.94-18.6C127.37,301.18,110.91,291,95,280.84,73,266.7,46,254.65,10.49,245.77c-3.36-.84-7-1.51-10.49-2.27v-4.34c44.72,9.38,77.73,23.43,103.65,40.54a339.35,339.35,0,0,0,38.7,22C173,316.65,213,324.18,261.86,323.07a644.22,644.22,0,0,0,92.62-9.26C395,307,435.15,299.88,475.6,293c47.25-8,96.28-12.5,147.69-9.22,42.64,2.72,85,6.21,127.3,9.69,56.24,4.63,112.38,9.65,170.26,8.92,44.36-.56,85.54-5.15,118.44-17.9,19.52-7.57,38.18-15.48,57.61-23.09,42.14-16.49,92.22-27.5,148.92-33.84a675.68,675.68,0,0,1,119.79-2.33Z"/><path class="cls-2" d="M104.66,363.36,96.2,355.7c-9.34-7-17.21-14.39-28.35-20.9-17.27-10.08-42-17.13-67.85-23.48V307c37.7,7.64,66.9,18.79,86.21,33.8,12.59,9.79,23.44,19.93,36.28,29.67C139,383,163.67,392.18,200,394a513.49,513.49,0,0,0,61.54-1c44.07-3.22,83.57-11.46,122.68-19.85,36.76-7.9,73.23-16,110.47-23.54,73.35-14.81,148.91-15.5,224.74-3.58,51.32,8.07,101.48,17.31,152.3,25.89a537.57,537.57,0,0,0,77.94,7.67c32,.72,61.21-3,86.68-10.67,22.61-6.79,43.71-14.38,66.4-21.12,63.35-18.83,132.11-33.21,210.86-38.63,17-1.18,34.69-.94,52-1.36v6.09c-62.6-.55-118.88,8-173.77,18.87-49.55,9.82-93.56,22.75-135.36,37-43,14.69-91.77,19.64-146.23,12.6-24.11-3.12-47.53-7.18-70.72-11.3-40.8-7.25-80.55-15.49-121.88-22.19-63.36-10.27-128.58-11.91-192-.65-45.68,8.11-89.48,18-133.57,27.42-45.88,9.86-92,19.32-144,23.07-58.62,4.22-103.73-4.7-130.69-25.83C113.28,369.72,108.91,366.55,104.66,363.36Z"/><path class="cls-2" d="M470.72,120c9.09,2.82,18,5.72,27.31,8.43,11.71,3.42,23.37,6.91,35.64,10,44.51,11.19,89.75,9.42,135.14.85,37.14-7,69.12-17,100.63-27.35,30.89-10.11,61.63-20.29,93-30.17,54.25-17.11,115-28.26,184.75-30.26a635.78,635.78,0,0,0,145.7-21.35c37-9.74,73-20,109.49-30.08h13.09c-42,12.17-83.48,24.6-126,36.45-46.78,13-98.94,20.18-156.13,22.22-47.22,1.68-90.79,8.5-128.19,20.12-37.15,11.56-72.69,24-108.25,36.3-34.53,12-68.28,24.31-109.82,32.53-46.17,9.13-91.76,10.13-136.79-1.24-4.77-1.2-10.4-1.86-15.63-2.77Z"/><path class="cls-2" d="M93.91,380.89l12.93,12.89c7.53,6.21,13.18,12.94,23,18.52,20.74,11.79,51.07,15.94,86.57,14.89,38.49-1.13,73.79-6.47,107.16-13.6,64-13.68,127.05-28,190.69-41.91,49.91-10.91,101.15-19.92,160.44-16,36.92,3.21,69,10.51,99.64,18.94,2.88,1.08,5.59,2.25,8.67,3.23,15.31,4.89,30.59,9.79,46.13,14.56,25.28,7.78,49.73,16.08,76.37,23,47,12.27,94.91,13,142.46-.31,36.59-10.23,73.25-20.44,111-30,46.72-11.78,95-22.62,148.21-29.11,18.93-2.3,38.94-3.2,58.46-4.75v5.22c-35.59,1.29-68.82,5.87-100.81,11.91-70.51,13.31-135.83,30.06-199.09,48.16-10.89,3.12-22.24,6-33.93,8.65-34.92,7.82-70.31,7-105.48.25-31.15-6-56.58-15.11-82.24-24.11-35.44-12.42-70.65-24.94-112.17-34.27-50.27-11.29-102.33-13.27-154.68-3.61C532.8,371.69,490,381.25,446.68,390.4,395.39,401.26,345,412.79,293.05,423.16a429,429,0,0,1-96.85,8.4c-35.8-1.07-61.62-8.27-77.7-20.73a170.76,170.76,0,0,1-24.09-22.78c-15.36-17.59-45-30.13-84.43-39.41-3.08-.72-6.64-1.12-10-1.67v-5.22c16.49,4.63,33.5,9,49.33,13.95C70.31,362.28,82.29,371.58,93.91,380.89Z"/><path class="cls-2" d="M1365.61,194.82a864.25,864.25,0,0,0-157.19,11.94q-75.53,12.75-135.74,35c-50.17,18.39-109.77,27.63-177.26,29.9-51.07,1.72-101.59-.22-152.16-2.34-52.75-2.2-105.63-5.66-158.56-3.64-42.48,1.62-84.41,5.64-126.47,8.83-38.87,3-77.32,7-116.43,9.22-83.65,4.81-153.36-5.66-206.58-32.3C102.91,235.25,65,222.11,14.67,215.57c-4.82-.63-9.78-1.09-14.67-1.63V209.6c42.7,4.64,81.72,11.8,112.74,25,21.85,9.28,43.63,18.69,67.7,27,31.32,10.81,69.24,16,110.55,17.62,53.77,2.16,105.42-2.64,157.44-6.67,38.84-3,77.6-6.58,116.83-8.23,34.08-1.43,68.84-1.08,103.19-.48,51.09.88,102.08,2.76,153.14,4.06a1066.27,1066.27,0,0,0,113.71-3.13c53.63-4.36,100-14.38,140.71-28.89,58.51-20.84,125.94-35.19,202.3-42.52,28.54-2.74,57.63-4.73,87.3-2.85Z"/><path class="cls-2" d="M776.61.07,744.88,4.45q-93.66,13-187.34,25.9c-25.42,3.46-51.6,6.08-76.71,9.84-19.19,2.87-38.53,6.18-55.49,10.68-20.19,5.37-40.91,8-63.73,5.17-30.44-3.74-60.64-8-90.06-12.81-28.15-4.64-55.28-10.29-82.67-15.63-38.34-7.48-79.49-9.87-121.41-10.82C45,16.27,22.49,16.06,0,15.72V12.24c31.84.94,63.69,1.81,95.51,2.84,44.91,1.45,86,8.08,126.58,15.25,40.87,7.2,81.79,14.4,126,17.8,24.29,1.86,48.09,1.75,68-5.23,19.05-6.69,41.76-10.3,65.38-13.38q75.57-9.84,151-19.87c23.4-3.11,46.66-6.38,70-9.58Z"/><path class="cls-2" d="M1365.61,247c-59.74-4.65-116.15-.32-170.77,9.69-51.35,9.41-92.44,23.77-128.34,40.87-32,15.25-70.32,26.41-122,28.32a784.24,784.24,0,0,1-96.44-2.62c-58.24-5-116.12-10.73-174.48-15.5-41.65-3.41-84.28-6.45-126.37-2.17-30.78,3.13-60.84,7.76-90.17,12.71-44.15,7.45-87,16.13-131.13,23.59-31.68,5.36-65.21,8.36-100.06,6.67-46.12-2.24-76.92-13.49-100.3-28.45C107,308.17,90.79,295.63,71.35,283.94,53.31,273.1,28.8,264.62,0,258.28v-3.47c41.05,9.93,72.41,23.48,95.48,40.24,11.7,8.5,23.36,17.07,36.9,25.11,24.13,14.32,56,24.23,101.24,25.49a449.14,449.14,0,0,0,86.21-6.08C364.07,332.2,407.47,324,451,316.05c36.42-6.68,73.06-13,113.49-14.73,36.57-1.54,72.65.42,108.22,3.4,58.31,4.89,116.19,10.6,174.53,15.44a831.38,831.38,0,0,0,90.93,2.73c52.6-1.39,91.89-11.81,124.06-27.32,43.14-20.81,93.41-37.66,157.85-47,47.36-6.87,95.64-9.59,145.5-5.05Z"/><path class="cls-2" d="M0,114c38.85-5.73,77.27-12,116.69-17,32.74-4.17,66.45-7.26,100.12-10.09,26.49-2.22,51.89.66,76.22,5,52.31,9.29,92.91,24.59,131.61,40.82,19.27,8.08,37.57,16.52,56.93,24.57,39.2,16.29,76.18,33.52,121.86,47.15,29.73,8.87,61.42,16,99.38,17.52,39.14,1.6,72.86-3.29,102.92-13.06C837.23,198.6,858.51,185,882,172.16c19.62-10.76,39.3-21.54,60.37-31.85,23.16-11.33,53.42-18.6,89.21-22,11.3-1.09,22.57-2.27,34-3.11,46.29-3.4,84.47-13.27,119.68-24.81,45.71-15,89.42-30.93,134.34-46.3,14.79-5.06,30.66-9.62,46-14.41v2.6C1312.15,50.53,1259,69,1205.09,87.06c-33.16,11.11-68,21.39-109,27.6-14.52,2.21-29.81,3.87-45.12,5-53.62,3.79-93.84,15.62-125.64,32.59C898.78,166.35,873.91,181,846,194.74a306.49,306.49,0,0,1-55,20.81c-52.19,14.14-106.81,11.78-158.18-.69a637.22,637.22,0,0,1-80.54-25c-51.87-20.27-100.42-41.88-152-62.29-22.28-8.83-47.81-16.46-73.22-23.89C280.61,90.07,228.72,85.9,173.24,93,115.17,100.45,57.72,108.68,0,116.57Z"/><path class="cls-2" d="M0,131.35c25.07-2.93,49.88-6.31,75.28-8.68,30-2.79,60.28-5.48,90.82-6.83a402.56,402.56,0,0,1,122.56,13.22c48.19,12.85,91.87,27.86,135.46,43,54,18.72,106.48,38.19,168.1,53C623.6,232.61,657,238.26,694.33,239c48.13.92,89.33-6.39,124-18.92,30.87-11.17,60-23.15,88.1-35.45,41.17-18.05,86.26-33.37,145.68-41.24,58.44-7.73,107.47-22.17,156-36.75,45.25-13.6,90.27-27.31,135.52-40.9,6.94-2.08,14.63-3.77,22-5.64V64.4c-23.4,6.33-47.26,12.41-70.1,19-45.23,13.12-89.76,26.62-134.83,39.83-37.13,10.89-77.87,19.13-121,25.5q-57.17,8.43-99.78,25.79c-31.09,12.59-60.81,25.76-93.35,37.72A575.38,575.38,0,0,1,775.84,233c-44.65,10.12-92.17,10-140,2.91a647,647,0,0,1-103.92-24.3C480.49,195.11,430.5,177.86,379,161.37c-33.1-10.59-67.48-20.57-102-30.44-39.43-11.28-84.34-13.16-131.18-11.11-45.45,2-88.77,7.4-132.16,12.76-4.48.56-9.11.92-13.67,1.38Z"/><path class="cls-2" d="M1365.61,221.77c-78.82-5.47-149.54,3.27-216.06,19.5A488.6,488.6,0,0,0,1076,265.63c-19.56,8.17-39,16.48-64.12,22.09-29,6.47-60.27,9.84-93.45,10.74-60.39,1.64-118.33-4-176.61-8.95Q686.9,284.89,631.64,281c-55.15-3.88-107.57.65-158.73,8.74-46.94,7.43-93.76,15-141.14,22a492.05,492.05,0,0,1-95.53,4.65c-42.43-2.1-75.23-11.06-101-24.21-13.19-6.73-25.6-13.74-37.15-20.93C73.34,255.8,40.58,244.06,0,235.68v-2.61c39,7.59,71.41,18.17,96.12,32.51,14.8,8.59,29.55,17.26,46.3,25.24,45.56,21.67,105,26.84,170.67,19.6,45-5,88.46-12.23,132.23-18.87,37.4-5.67,74.49-11.64,114.57-13.67A725.71,725.71,0,0,1,651,279.45c54.61,4.13,108.92,8.91,163.59,12.88,41.53,3,83.4,4.51,125.7,1.84,45.48-2.87,83.44-11.2,116.5-23.73,24.72-9.37,48.42-19.41,75.9-27.32,59.79-17.19,126.8-26.86,201.79-25.73,10.42.16,20.76,1.16,31.13,1.77Z"/><path class="cls-2" d="M0,218.29c26.92,2.28,51.41,7.22,71.24,14.33,25.24,9,47.51,19.45,70,29.65,39.15,17.76,86.23,28.22,147.06,28.33,47.68.08,92.61-4.9,137.94-9.69,42.11-4.45,84.28-8.87,126.87-12.48,36.19-3.06,73-1.69,109.62-.26,75.45,3,150,9.57,226.48,8.33,65.41-1.06,124-9,173.28-26.58,38-13.58,76.83-26.57,123.84-35.11,50.87-9.23,103.37-15.46,159.9-14.83,6.48.08,12.93.61,19.4.92v2.61c-28.23.58-57,0-84.6,2-71.64,5.13-134.46,18.05-189.29,37.17-27,9.42-52.32,19.76-85.44,26-34.61,6.54-71,9.9-109.3,10.72-56.71,1.22-112.14-2.64-167.86-5.71C694.61,271.76,660,270,625.26,269c-53.38-1.64-104.59,3.2-155.5,9.07-46,5.3-92.15,10.73-139,14.52-53.3,4.3-105.83,2.19-150.59-11.52a339.63,339.63,0,0,1-54.38-21.72c-31.23-15.92-66.07-29.65-114.34-37-3.71-.57-7.6-.94-11.41-1.4Z"/><path class="cls-2" d="M17.45.07C32.52.86,47.59,2.32,62.66,2.34c55.81.06,109.45,5.39,163.44,10,44.82,3.8,89.7,7.42,135.87,6.9,13-.15,26.26-.33,39-1.32s24.7-3,37.43-4.66c-6.28,5.7-17.84,9-32.53,10.75a413.74,413.74,0,0,1-79.92,1.64c-52.81-3.9-104.9-9.34-157.66-13.35-35.55-2.71-71.74-4.12-107.68-6C40.44,5.23,20.2,4.45,0,3.54V.07Z"/><path class="cls-2" d="M1365.61,465.21a557,557,0,0,0-89.22,20.53c-45.44,14.17-89.73,28.91-135,43.18-14.19,4.47-30.14,8-44.81,12.29-12.23,3.54-25.53,3.52-41.83,1.79,1.89-.28,3.8-.53,5.66-.84,44-7.16,80.42-18.93,116.36-30.93,47.85-16,94.67-32.51,149.38-44.82,12.58-2.83,26.27-4.88,39.44-7.29Z"/><path class="cls-2" d="M861.64,176.59c-.5.68-.61,1.48-1.56,2-20.8,12.34-43.45,24-76.85,31.42-40.75,9-82.69,8.84-124.86,1.66-32.9-5.6-61.38-14-86-24.14-41.43-17-81.35-34.67-121.54-52.19-33.61-14.65-67.3-29.18-108.2-40.82-53.51-15.23-111-18.76-172.57-9.86C113.09,93,56.68,101.87,0,110.48v-1.74c32.7-5.23,65.21-10.66,98.16-15.63,27.16-4.1,54.69-7.85,82.33-11.41,60.74-7.82,115.81-3,166.86,11.82,43.94,12.72,79.41,28.77,115.38,44.71,44.17,19.58,85.83,40.15,137.22,57,24.34,8,50.47,14.78,81.45,17.89C738.13,218.77,785.33,212,823.86,195,837.18,189.12,849.09,182.74,861.64,176.59Z"/><path class="cls-2" d="M603.7,180.88c12.33,2.72,24.45,5.61,37,8.13,56.71,11.36,114.43,7.73,160.65-9.67,29.86-11.23,52.47-24.7,76-37.91,22.48-12.62,44.44-25.37,74.48-35.55a291.21,291.21,0,0,1,85.32-15.06c67.7-2,122.17-14.73,171.9-31.64,42.51-14.46,84-29.38,126.12-44,9.83-3.42,20.24-6.58,30.39-9.86V7q-56.49,19.76-113,39.48c-38.35,13.33-77,26.47-122.16,36.19-26.85,5.78-56.06,8-85.68,9.29-55.85,2.51-97.43,14.16-129.94,31.61-28.13,15.11-54.54,30.73-83.29,45.65-20.72,10.74-45.65,19.92-78.42,24.81-44.64,6.67-86.46,3.51-126-6.2C618.85,185.82,611.48,183.21,603.7,180.88Z"/><path class="cls-2" d="M654.45.07c-1.89.41-3.66,1-5.67,1.23-51.64,6.85-103.15,13.87-155,20.43-28.9,3.66-56.89,7.52-79.83,16-21.6,8-48.87,8.16-75.06,5.28C298,38.57,257.6,33.39,217.65,27.76,180,22.46,143.16,16.12,103,14.54,68.72,13.2,34.33,12.41,0,11.37V9.63c36.12,1.22,72.36,2,108.31,3.77,42.15,2,81.28,8.53,120.71,14.42,38.8,5.79,77.85,11.12,119.23,13.35,25.9,1.4,49.51-.12,68.79-7.49,20.72-7.92,46.62-11.37,73-14.76C537.73,12.81,585.13,6.37,632.63.07Z"/><path class="cls-2" d="M757.29,232.18c-25,4.89-51.51,4.72-77.74,2.86-48.71-3.46-89.26-13.81-126.19-26.22-41.35-13.89-81.27-28.46-121.23-43-45.08-16.4-90.11-32.68-141.79-45.95-45-11.56-92.89-13.07-143.38-9.62-50.76,3.47-98.69,10.8-147,17.62v-1.74c35.49-4.68,70.72-9.72,106.55-13.94a763.6,763.6,0,0,1,100.83-5.56c32.55.47,60.52,5.46,87.42,12,41.4,10.1,77.64,22.8,113.43,35.75,51.85,18.75,103.08,37.81,156.29,55.93,35,11.93,74.78,21.36,121.71,23.69,18.7.92,38.13-.44,57.21-.87C748.09,233.05,752.68,232.52,757.29,232.18Z"/><path class="cls-2" d="M1365.61,485.2c-18.38,4-38.42,7.16-54.81,12.2-44.53,13.7-87.47,28.21-131.13,42.36-7.06,2.29-13.14,5.67-25.33,4.16,1-.69,1.38-1.4,2.5-1.76,46.32-15.14,91.91-30.67,139.45-45.18,21.07-6.43,46.09-10.81,69.32-16.12Z"/><path class="cls-2" d="M1365.61,471.29C1303,481.87,1253,499.67,1201.15,516.46q-39.32,12.72-79.38,25.07c-5.11,1.57-12,2.2-18.15,3.26l-1.8-1.49c11.09-3.14,22.61-6.07,33.2-9.46,39.37-12.58,78.22-25.42,117.68-38,31.57-10,64.06-19.55,101.51-25.94,3.59-.62,7.59-.85,11.4-1.25Z"/><path class="cls-2" d="M130.89.07C171.89,3,212.73,6.33,254,8.58c38.32,2.09,77,3.5,115.63,4.17,18.86.33,38.05-1.57,57-2.76C442.75,9,455.1,5.3,464.66.07H493c-31.43,5.39-60.46,13.11-95.84,14.6a965.08,965.08,0,0,1-99.69-1.11c-55.18-3.39-110.1-7.43-165.18-11.09-14.93-1-30-1.61-45-2.4Z"/><path class="cls-2" d="M1365.61,52.23Q1288.84,76.14,1212.05,100c-50.88,15.79-103.21,30.53-166.28,37.92-52.52,6.15-92.18,19.68-126.78,36-4.2,2-9.14,3.71-13.74,5.55,5.21-2.89,9.94-5.95,15.69-8.67,34.64-16.35,75.53-29.15,128.07-35.14,62.2-7.09,113.14-21.94,162.94-37.53,46.22-14.47,92-29.16,138.11-43.69,4.79-1.52,10.35-2.65,15.55-4Z"/><path class="cls-2" d="M0,90.49c26.76-4,53.35-8.28,80.31-12.11Q132,71,184.24,64.23A379,379,0,0,1,344.75,77c4.9,1.46,9.26,3.21,13.88,4.82-3.48-.7-7.23-1.26-10.4-2.14C322.5,72.53,296,66,264.61,63.6c-30.76-2.39-61-.58-89.94,3.45C122.33,74.33,70.55,82.25,18.51,89.87,12.43,90.76,6.17,91.45,0,92.22Z"/><path class="cls-2" d="M1365.61,488.68c-46.14,8.69-84.56,21.73-122.92,34.79-18.19,6.19-36.08,12.53-54.22,18.75-2.58.88-5.82,1.46-10,2.47,5.46-7.55,141.61-49.79,187.09-58.62Z"/><path class="cls-2" d="M0,413c28.79,5.23,55.23,11.81,74,22.23,7.4,4.12,12.56,8.87,17.43,13.45-13.72-6.22-25.9-13.16-41.61-18.44-14.65-4.93-33-8.09-49.79-12Z"/><path class="cls-2" d="M1365.61,496.51c-56.53,12.8-102,31.23-150.71,48l-2.12-.74c.55-.56.71-1.28,1.71-1.63,44.21-15.9,87.1-32.44,138.64-44.72,4-1,8.32-1.78,12.48-2.66Z"/><path class="cls-2" d="M0,65.27c56.08-6.48,112.07-13.09,168.27-19.41a382.22,382.22,0,0,1,84.86.3l4.18,1.9c-32.91-4.46-66.11-3.62-98.7.06C105.53,54.12,52.85,60.69,0,67Z"/><path class="cls-2" d="M1365.61,507.81c-30,4.36-50,14-73.09,22-10.64,3.69-20.14,7.9-30.25,11.85a32.26,32.26,0,0,1-9.62,2.15c.52-.55.67-1.26,1.63-1.64,32.41-12.82,65-25.56,102.84-35.92,2.67-.73,5.65-1.28,8.49-1.92Z"/><path class="cls-2" d="M0,525.2c16,9,36.1,15.75,66.75,18C47,545.75,27.68,542.28,0,532.15Z"/><path class="cls-2" d="M1365.61,520.85q-27.37,10.11-54.77,20.2a49.52,49.52,0,0,1-11.78,3c18.93-10.24,41.63-18.88,66.55-26.64Z"/><path class="cls-2" d="M1365.61,23.54Q1329.54,36,1293.43,48.4c-4,1.38-8.54,2.55-12.83,3.81,17.07-6.58,33.8-13.3,51.33-19.68,10.59-3.85,22.41-7.17,33.68-10.73Z"/><path class="cls-2" d="M1365.61,537.37c-5,1.65-9.85,3.38-15,4.93-2.93.88-6.4,1.48-9.63,2.21l-3.06-1.67,27.72-9.82Z"/><path class="cls-2" d="M1365.61,529.55l-36.63,14-2.63-1.11,39.26-13.71Z"/><path class="cls-2" d="M860.48,543.65c-10.42,1.65-13.32-.83-17.06-3.31-17.78-11.76-34.4-23.87-54.36-35-18.12-10.12-41.35-19.12-74.49-20.07-20.84-.6-43.8,0-63,3-52.1,8-103.25,17.12-153.75,26.65-45.3,8.55-89.34,18.17-133.67,27.51-11.06,2.33-22,2.07-35.88,1.75a55.44,55.44,0,0,1,6.16-2.11c87.84-17.41,175.45-35,263.7-52.07a710.37,710.37,0,0,1,105.35-12,180.34,180.34,0,0,1,56.42,6.1c29.53,8.17,48.4,19.88,65.83,32,11.58,8,21.65,16.4,32.3,24.64A15.12,15.12,0,0,1,860.48,543.65Z"/><path class="cls-2" d="M797.64,543.66c-17.39,1.28-29.16,1.12-39.92-3.67-22.54-10-49.64-17.6-84.1-19.44-31.53-1.69-61.52,1.67-90.24,6.4-27.85,4.58-55,9.86-82.31,15-13.72,2.55-30.07,3.35-48.5,1.67,4.27-1.15,7.12-2.15,10.42-2.77,45.7-8.57,91-17.5,137.37-25.46,28.15-4.83,58.27-7.5,89.45-5.37C724,512.31,748.63,520.83,771,530.6,779.87,534.49,787.72,538.77,797.64,543.66Z"/><path class="cls-2" d="M729.64,543.73c-19.32,0-38.08,1.36-55-.3-31-3-60.79-2.4-91.6,0-18.43,1.4-37.77.92-57,.38,39.49-8.6,80.64-14.2,126-13.46C677.81,530.72,714.75,536.92,729.64,543.73Z"/><path class="cls-2" d="M292.65,543.3c2.33-.59,4.55-1.26,7-1.76C371.19,527,442.16,512,514.51,498.06c47.7-9.17,97.09-17,146.32-24.79,15.63-2.48,33.07-3.34,49.9-4.4,27.12-1.7,51.25,1.76,69.3,9.61C797.32,486,813.7,494.16,826.48,503c17.06,11.76,30.28,24.39,45.06,36.67,1.3,1.08,1.94,2.29.48,3.84-5.8-4.89-11.62-9.77-17.39-14.67-17.8-15.09-35.78-30.16-63.46-42.91-17.32-8-37.66-14.83-65.2-14.86a434.8,434.8,0,0,0-59.87,3.85C624.4,480.76,582.77,487,543,494.71,463.52,510,385.32,526.42,306.56,542.34c-4,.82-8.37,1.4-12.57,2.08Z"/><path class="cls-2" d="M541.4,475.82l-92.66,18.83-1.19-.82c1.3-.39,2.47-.88,3.9-1.17q40.94-8.19,81.95-16.32c2.23-.44,4.84-.59,7.27-.87Z"/><path class="cls-2" d="M234.08,537.23l85.24-17,1.32,1.06-85.24,17Z"/><path class="cls-2" d="M593.67,466.24l-52.28,9.57-.72-.34L593,465.89Z"/><path class="cls-2" d="M342.53,515.22l39.89-8,1.37,1.06-39.87,8Z"/><path class="cls-2" d="M1327.81,527.79,1300.31,539l.09,0L1329,528.18Z"/><path class="cls-2" d="M480.26,479.36l15.53-3.56,1.42,1.47.44.22,2,.79-.11,0-4.35.9.07,0-4.41.87.07,0-2-.8-.42-.16a3.82,3.82,0,0,1,.14-.81l.07,0-4.41.85h0Z"/><path class="cls-2" d="M505.6,475.44l2.83,1.12-4.54.84.08,0-4.45.87.11,0-2-.79-.44-.22,2.38-1.64-.06,0Z"/><path class="cls-2" d="M490.83,480l-4.4.88-2.08-.78L484,480c.1-.3.19-.6.28-.91h0l4.2-.07.41.16,2,.8Z"/><path class="cls-2" d="M1201.93,80.07c-5.84,2.13-11.33,4.44-17.58,6.35-39.36,12.07-81.41,21.66-132.28,23.7-62,2.49-105.27,16.6-138.61,36.51-13.7,8.19-27.06,16.46-40.8,24.63-3.17,1.89-7.26,3.52-10.92,5.27,8.35-5.55,16-11.3,25.21-16.6,17.17-9.83,34.2-19.75,53.32-29,26.78-12.9,62.39-20.36,104.08-22,54.48-2.2,100.49-11.43,142.23-24.9C1191.28,82.5,1196.79,81.38,1201.93,80.07Z"/><path class="cls-2" d="M1249.93,63.55,1202.07,80Z"/><path class="cls-2" d="M1280.47,52.25l-30.41,11.26Z"/><path class="cls-2" d="M555.88,150.45c4.21.82,8.66,1.49,12.59,2.49C611,163.72,654.46,163.71,699,155c33-6.44,60.83-15.72,87.43-25.61,35.84-13.31,70.58-27.11,107.13-40.11,42.56-15.13,92.43-24.55,149.8-26.43,62.56-2.05,115.16-13.2,164.51-27.51,27-7.83,53.37-16,80.11-24,2.54-.76,5.65-1.2,8.5-1.79-18.86,6.1-36.84,12.71-56.78,18.2q-50.58,13.92-103.28,26.61c-30.58,7.32-65.83,9.09-100.44,10.7C976.54,67.88,927.86,79,885.1,94.78c-36.79,13.57-72.16,27.76-108.65,41.47A445.63,445.63,0,0,1,684,160.32c-45.63,6.82-86.3,2.29-124.55-8.25A21.59,21.59,0,0,1,555.88,150.45Z"/></g></g></g></svg>