<svg xmlns="http://www.w3.org/2000/svg" viewBox="0 0 1366 772"><defs><style>.cls-1{opacity:0.19;}.cls-2{fill:#fff;}.cls-3{fill:#69a5a4;opacity:0.51;}</style></defs><g id="Layer_2" data-name="Layer 2"><g id="Layer_1-2" data-name="Layer 1"><g id="ACsods" class="cls-1"><path class="cls-2" d="M1365.61,667.36V680.9c-23.23,7.52-48.25,13.72-69.32,22.83-47.54,20.55-93.13,42.53-139.45,64-1.12.52-1.55,1.51-2.5,2.49,12.19,2.14,18.27-2.65,25.33-5.89,43.66-20,86.6-40.58,131.13-60,16.39-7.14,36.43-11.6,54.81-17.28v1.23c-45.48,12.5-181.63,72.32-187.09,83,4.13-1.43,7.37-2.24,10-3.49,18.14-8.81,36-17.78,54.22-26.55,38.36-18.49,76.78-37,122.92-49.26v8.62c-4.16,1.25-8.43,2.4-12.48,3.76-51.54,17.39-94.43,40.82-138.64,63.32-1,.51-1.16,1.53-1.71,2.31l2.12,1c48.72-23.75,94.18-49.85,150.71-68v11.08c-2.84.9-5.82,1.68-8.49,2.71-37.82,14.68-70.43,32.72-102.84,50.87-1,.54-1.11,1.54-1.63,2.32a24.57,24.57,0,0,0,9.62-3c10.11-5.58,19.61-11.55,30.25-16.77,23.07-11.33,43.11-25,73.09-31.16V732.6c-24.92,11-47.62,23.22-66.55,37.72a38.19,38.19,0,0,0,11.78-4.19q27.44-14.26,54.77-28.6v11.08L1326.35,768l2.63,1.56,36.63-19.75v4.92l-27.72,13.91L1341,771c3.23-1,6.7-1.87,9.63-3.12,5.18-2.2,10-4.64,15-7V772H0V753.53c27.68,14.34,47,19.26,66.75,15.64C36.1,766,16,756.42,0,743.68V703.06c3.44,2.33,7.61,4.43,10.19,7,8,8,15.16,16.33,23,24.41,12.35,12.75,28.6,23.58,53.87,28,16.74,3,34.52,4,49.65,5.73l-6.27,1.49.78,2.24c18.25-1.62,37.74-1.46,54.48-5.21,33.25-7.46,65.3-16.73,97.3-25.85,52.73-15,105.08-30.51,157.42-46,3.69-1.09,6.06-3.61,9-5.46.6,0,1.2,0,1.8.06l.41.11.87.17.9-.07c10.71-2.37,23.62-2.75,28.79-10.13l1.81.07.33.08,2.08,1.1,4.4-1.25,4.41-1.23-.07,0,4.35-1.27L504,676l-.08,0,4.54-1.19c37-9.87,73.52-20.42,111.21-29.39,31.92-7.6,65.2-13.38,97.89-20l15.21-1.1c23.49-2.43,40,4.24,54.79,13.16-5.52-.78-10.3-2.79-15.62-3.51-10.74-1.45-22.26-3.89-32.62-3-51.66,4.62-98.91,16.88-146.34,28.65l-52.28,13.57a72.43,72.43,0,0,0-7.27,1.23q-41,11.5-81.95,23.12a31.66,31.66,0,0,0-3.9,1.64l1.19,1.17,92.65-26.67,52.28-13.56c3.78-.7,7.61-1.32,11.34-2.1,35.78-7.43,71.35-15.21,107.37-22.26,36.69-7.17,68.32-2.27,92.39,15.13,10,7.27,17.92,15.48,26.78,23.27l-2.54.85c-6.06-4.84-11.62-9.92-18.28-14.48-15.19-10.38-31.4-21.13-56.79-22-19.18-.66-39.19.84-58,3.34-55.61,7.35-106.43,21.89-157.22,36C432.16,707.67,326.2,738,220,768.07a40.94,40.94,0,0,1-5.07.73l3.38,2.84c7.3-1.33,15-2.15,21.82-4.06C355,735.34,469.5,702.76,584.52,670.72c41.42-11.53,84.32-21.07,130.13-26,29.1-3.11,55.05-.68,76.41,11.5a165.56,165.56,0,0,1,22.53,15c34.43,28.16,53.75,60.36,75.32,91.89,4.39,6.41,9.94,7.48,20.22,6.44l-11.68-16.29c10.78,5.73,17.5,13.2,29.72,17.57l2.47-1.28L911,756.8c15.27,4.84,23,17.11,47.27,13.13-11.31-4.87-22.28-8.85-31.68-13.78-30.89-16.21-47.37-37.52-64.1-58.75-14.75-18.72-29.43-37.49-45.78-55.78-12.71-14.21-30.18-26.69-54.34-35.45-38.33-13.89-79.48-13.14-119.21-3.72-37.37,8.86-73.77,19.42-108.74,31-73.3,24.3-145.11,50-218.07,74.67-41.28,13.94-84.17,25.94-133.28,28.8-28.53,1.66-57.52-6.09-69.56-20.69a75.24,75.24,0,0,1-12.69-23.38C89.26,659.79,54,638.23,0,625.5V604.57c1.25.41,2.45.89,3.77,1.23,59.46,15.11,95.29,39.89,101.3,77.43,1.62,10.08,7.74,19.69,20.5,27.33,20.87,12.5,47.34,13.17,74.78,10.44,44.49-4.43,83.72-16.29,121.76-29.2,82.53-28,164.37-56.67,246.77-84.81,29.26-10,59.53-19,93.12-23.67,45.16-6.31,85.64-2.37,119.38,17.1,25.71,14.83,40.75,33.25,56.27,51.6,18.93,22.37,37.16,45,58,66.78,14.33,15,35.77,26.91,64.34,33.78,35,8.43,69.11,5.06,102.45-3.29,47.52-11.91,85.9-31.18,125.36-49.65,55.62-26,109.66-53.43,177.83-69.22v19.7c-13.17,3.41-26.86,6.31-39.44,10.32-54.71,17.44-101.53,40.85-149.38,63.47-35.94,17-72.31,33.65-116.36,43.8-1.86.43-3.77.79-5.66,1.18,16.3,2.45,29.6,2.48,41.83-2.53,14.67-6,30.62-11.08,44.81-17.41,45.25-20.2,89.54-41.08,135-61.14,27.18-12,56.31-22.48,89.22-29.07v4.92c-3.81.58-7.81.91-11.4,1.77-37.45,9.05-69.94,22.54-101.51,36.74-39.46,17.75-78.31,35.93-117.68,53.75-10.59,4.8-22.11,9-33.2,13.4l1.8,2.11c6.1-1.51,13-2.4,18.15-4.62q40.1-17.46,79.38-35.5C1253,707.54,1303,682.33,1365.61,667.36ZM860.48,769.81c-.94-1.69-1.36-3.09-2.46-4.3-10.65-11.67-20.72-23.53-32.3-34.89-17.43-17.11-36.3-33.7-65.83-45.26a130.55,130.55,0,0,0-56.42-8.63,512.65,512.65,0,0,0-105.35,17.06c-88.25,24.16-175.86,49.07-263.7,73.72-1.67.47-2.94,1.41-6.16,3,13.84.45,24.82.82,35.88-2.48,44.33-13.22,88.37-26.84,133.67-38.95,50.5-13.5,101.65-26.38,153.75-37.74,19.21-4.18,42.17-5.07,63-4.23,33.14,1.35,56.37,14.09,74.49,28.43,20,15.79,36.58,32.94,54.36,49.6C847.16,768.63,850.06,772.15,860.48,769.81Zm-62.84,0c-9.92-6.92-17.77-13-26.67-18.49-22.34-13.83-47-25.9-81.16-29.2-31.18-3-61.3.77-89.45,7.61C554,741,508.69,753.66,463,765.79c-3.3.87-6.15,2.29-10.42,3.92,18.43,2.38,34.78,1.26,48.5-2.37,27.32-7.21,54.46-14.69,82.31-21.18,28.72-6.7,58.71-11.44,90.24-9.06,34.46,2.6,61.56,13.32,84.1,27.53C768.48,771.41,780.25,771.63,797.64,769.82Zm-68,.1c-14.89-9.64-51.83-18.42-77.52-19-45.41-1-86.56,6.88-126,19.06,19.22.77,38.56,1.44,57-.55,30.81-3.32,60.56-4.22,91.6.09C691.56,771.85,710.32,769.92,729.64,769.92Zm-437-.61,1.34,1.6c4.2-1,8.53-1.79,12.57-2.95,78.76-22.54,157-45.74,236.44-67.45,39.77-10.86,81.4-19.76,123.1-28.1A310.07,310.07,0,0,1,726,667c27.54,0,47.88,9.72,65.2,21,27.68,18.07,45.66,39.4,63.46,60.77,5.77,6.93,11.59,13.85,17.39,20.78,1.46-2.2.82-3.92-.48-5.45-14.78-17.38-28-35.27-45.06-51.91-12.78-12.46-29.16-24-46.45-34.66-18-11.12-42.18-16-69.3-13.61-16.83,1.5-34.27,2.72-49.9,6.23-49.23,11.07-98.62,22.13-146.32,35.1-72.35,19.68-143.32,41-214.86,61.58C297.2,767.53,295,768.48,292.65,769.31Zm-58.57-8.59,1.32,1.49,85.24-24.06-1.32-1.49Zm108.45-31.17,1.39,1.52,39.87-11.4-1.37-1.5Zm985.28,17.81,1.17.54-28.58,15.4-.09-.06Z"/><path class="cls-3" d="M1258.72.09h17.45c-17.69,6.42-35.25,13-53.11,19.23-58.37,20.47-119.72,35.89-190,37.63C989.81,58,948.81,64.76,909.54,75.19c-53.25,14.14-100.44,33.66-148.4,52.52-45.67,18-92.59,34.5-144.56,46.38C562,186.55,511.79,184.67,465.25,163.38A94.3,94.3,0,0,0,456,160.3l-12.65-5.1c1.72,2.62,4.6,4.42,7.52,6.19,16.6,10,33.12,20.11,49.84,30.08,31,18.47,61.78,37.05,99.75,51.16,58.71,21.81,111.67,21.26,166.88-3.26,21.51-9.55,40.56-21.06,59.05-32.55,33.18-20.6,63.89-42.5,97.87-62.66,29.52-17.52,66.94-27.74,110-31.17,33-2.63,66.81-4.39,96.14-14.49,26-9,52.51-17.71,76.3-28.33,51-22.75,100.28-46.65,150.27-70.08,4.4.11,10.75-1.25,8.72,3.7-15.62,7-31.51,13.82-46.82,21-45.17,21.27-89.35,43.23-135.37,63.89a361.48,361.48,0,0,1-129.29,31.58c-33.51,1.92-65.87,6.54-93.59,18.36-26,11.1-47.27,24.75-67.3,39.16-28.68,20.62-56.15,41.91-87.32,61.29-55.73,34.64-126.52,38.82-196.34,13.57-30.57-11-56.06-25.33-81.28-39.84-4-2.29-8.93-4-13.43-6.05-1.09-.53-2.29-1-3.25-1.61-21.44-13.48-42.76-27-64.31-40.43-9.9-6.17-20.23-12.12-30.37-18.17-2.4-2.22-4.14-4.82-7.32-6.59-15.49-8.64-30.31-17.81-47.39-25.35a604.14,604.14,0,0,0-64-24.21c-40.57-12.66-83.56-11-125.78-2.91C114.69,98.53,57.46,110.44,0,122v-8.61c55.52-10.81,110.81-22,166.65-32.26,34.15-6.27,69.26-9.32,104.63-2.2,8.18,1.65,16.24,3.49,24.36,5.23L297,82.69l-39.7-14.64-4.18-2.68C229.66,58,204,57.74,179,60.18,149.72,63,121,67.51,92.19,71.75,61.33,76.31,30.72,81.41,0,86.27V78.88c6.34-.87,12.65-1.8,19-2.61,68.38-8.63,134.07-25.78,207.3-21a5.3,5.3,0,0,0-2.43-1c-2.35-.54-4.69-1.08-7.07-1.58-25.67-5.34-52-5.3-78.33-2.37C92.23,55.46,46.15,61.12,0,66.57V60.42L88.77,49.93l-.22-.67L0,58V51.8C57.19,47,113.85,39.52,172.45,40.9a130.56,130.56,0,0,0-13.07-2.37c-26.28-3.3-52.72-2.14-79.14-.78Q40.12,39.8,0,42V37L110.57,32.5c-3.81-.26-7.69-.29-11.57-.25L0,33.33V28.41c26.16-.06,52.33-.22,78.49-.15,43.54.12,85.28,4.62,123.52,17C243,58.49,283.63,72,324.75,85.1,349.2,92.88,374.91,99,403,101.55c11.29,1,22.51.81,31.1-3.43,14.77-7.3,32.73-10.37,50.5-13.92,47.91-9.57,96.27-18.48,143.58-28.92,69.71-15.38,138.64-31.95,211.1-42.92C870.44,7.64,902.19,4.15,933.68.09h189.79c-5.17.87-10.25,2.26-15.51,2.52-27.09,1.36-54.21,3.23-81.36,3.46C945.18,6.75,867.34,17.31,792,33.6c-112.25,24.3-223.81,49.61-335.33,75-24.23,5.51-47,5.92-70.58,0q-15.7-4-31.44-7.87a61.63,61.63,0,0,0,13.13,5.18c32.25,9.57,65.08,14.77,101.23,6.41C552.38,93,636.54,74.77,719.31,54.73,829,28.17,940.59,7.64,1062,8c27.75.09,55.55-5.14,83.33-7.92h39.27a51.67,51.67,0,0,1-6.42,2.22c-43.16,9.11-87.41,14.91-133.83,15.32a1019.71,1019.71,0,0,0-149.43,12.2c-77,12.09-149.23,30.93-221.35,49.92C611.3,96.13,549.09,112.49,483.89,125c-27.92,5.34-54.3,3.8-80.44-2.86-8.38-2.13-16.58-4.48-27.67-7.5,19.05,13,40.6,21.2,63.51,28.42,30.31,9.54,62.18,11.7,94.48,4.46,41.13-9.22,82.51-18.33,122.15-29.36C722,99.7,786.13,79,852.37,60.79c59-16.24,122.13-25.24,188-26.24,70.11-1.07,132.22-15.64,192.13-34.46h21.82c-17.62,5.7-35,11.62-52.89,17.06-51.75,15.78-106.22,26.27-165.72,27.51a644.15,644.15,0,0,0-102.6,10.42c-61.79,11.29-116.71,30.18-171.51,49.21-54.45,18.91-108.18,38.63-168.73,51.06-39.45,8.09-79.17,16.33-121.07,4.45-.41-.11-1.2.21-3.13.58,23.36,6.77,46.07,12.1,72.33,9.73,48.1-4.34,92.32-14.77,133.75-28.63,49-16.41,96.71-34.12,145.24-51,49.06-17.09,100-32.12,157.26-38.24,28.44-3,57.52-4.35,86.4-5.91,55.73-3,104.36-16.76,152.28-31.6C1230.57,10.2,1244.49,5,1258.72.09Z"/><path class="cls-2" d="M416.94,146.57c10.14,6.05,20.47,12,30.37,18.17,21.55,13.42,42.87,26.95,64.31,40.43,1,.6,2.16,1.08,3.25,1.61,12.11,7.87,23.35,16.22,36.54,23.46,16.6,9.11,34.79,17.3,52.29,25.88,7.78,3.31,15.15,7,23.41,9.87,39.54,13.76,81.36,18.24,126,8.79a198.67,198.67,0,0,0,78.42-35.14c28.75-21.12,55.16-43.24,83.29-64.63,32.51-24.72,74.09-41.22,129.94-44.77,29.62-1.89,58.83-5,85.68-13.15,45.14-13.77,83.81-32.37,122.16-51.24q56.64-27.85,113-55.91V30.87c-11.27,5-23.09,9.74-33.68,15.19-17.53,9-34.26,18.56-51.33,27.87l-.13.06-30.41,15.94-.13.06-47.86,23.33-.14.07c-5.14,1.84-10.65,3.43-15.35,5.58a388.27,388.27,0,0,1-142.23,35.26c-41.69,2.38-77.3,12.94-104.08,31.22-19.12,13-36.15,27.1-53.32,41-9.26,7.5-16.86,15.65-25.21,23.51l-.1.08c-12.55,8.71-24.46,17.74-37.78,26.06-38.53,24.07-85.73,33.67-142.46,25.61-31-4.4-57.11-14-81.45-25.33-51.39-23.81-93.05-52.92-137.22-80.65-36-22.58-71.44-45.31-115.38-63.31-51.05-20.92-106.12-27.82-166.86-16.74-27.64,5-55.17,10.35-82.33,16.16C65.21,138.89,32.7,146.57,0,154V130.59c6.17-1.1,12.43-2.07,18.51-3.33,52-10.79,103.82-22,156.16-32.32,29-5.7,59.18-8.27,89.94-4.88,31.34,3.45,57.89,12.64,83.62,22.75,3.17,1.25,6.92,2,10.41,3,11.33,5.93,22.69,11.85,34,17.81C400.77,137.94,408.84,142.26,416.94,146.57Z"/><path class="cls-2" d="M0,178.6V165.06c57.72-11.16,115.17-22.82,173.24-33.36,55.48-10.07,107.37-4.16,153.93,15.11,25.41,10.53,50.94,21.33,73.22,33.83,51.53,28.9,100.08,59.51,152,88.2a511.66,511.66,0,0,0,80.54,35.4c51.37,17.67,106,21,158.18,1a259.14,259.14,0,0,0,55-29.47c27.89-19.41,52.76-40.19,79.28-60.23,31.8-24,72-40.78,125.64-46.15a410.93,410.93,0,0,0,45.12-7c41-8.79,75.87-23.35,109-39.08,53.93-25.6,107.06-51.73,160.52-77.64V71.5c-5.2,1.85-10.76,3.45-15.55,5.6C1304,97.68,1258.17,118.47,1212,139c-49.8,22.08-100.74,43.11-162.94,53.15-52.54,8.47-93.43,26.61-128.07,49.76-5.75,3.85-10.48,8.18-15.69,12.28-16.66,10.76-33.48,21.44-50,32.29-27.38,18-58,33.65-98,42.33-4.61.48-9.2,1.23-13.85,1.37-19.08.61-38.51,2.54-57.21,1.23-46.93-3.29-86.69-16.65-121.71-33.54-53.21-25.66-104.44-52.64-156.29-79.2-35.79-18.34-72-36.31-113.43-50.61-26.9-9.29-54.87-16.37-87.42-17-34.6-.7-68.09,2.4-100.83,7.87C70.72,164.83,35.49,172,0,178.6Z"/><path class="cls-2" d="M1365.61,288.17v22.16c-10.37-.86-20.71-2.28-31.13-2.5-75-1.61-142,12.09-201.79,36.44-27.48,11.19-51.18,25.41-75.9,38.67-33.06,17.74-71,29.54-116.5,33.6-42.3,3.78-84.17,1.67-125.7-2.6-54.67-5.63-109-12.39-163.59-18.24-30.07-3.21-60.56-4.4-91.11-2.21-40.08,2.86-77.17,11.31-114.57,19.35-43.77,9.4-87.23,19.68-132.23,26.72C247.46,449.81,188,442.49,142.42,411.8c-16.75-11.29-31.5-23.57-46.3-35.73C71.41,355.76,39,340.77,0,330V312.8c3.81.65,7.7,1.18,11.41,2,48.27,10.42,83.11,29.87,114.34,52.41a292.5,292.5,0,0,0,54.38,30.75c44.76,19.41,97.29,22.4,150.59,16.31,46.89-5.37,93-13.05,139-20.56,50.91-8.3,102.12-15.16,155.5-12.84,34.72,1.51,69.35,4,103.86,6.66,55.72,4.36,111.15,9.82,167.86,8.1,38.28-1.17,74.69-5.93,109.3-15.18,33.12-8.86,58.42-23.5,85.44-36.84,54.83-27.07,117.65-45.36,189.29-52.63C1308.61,288.15,1337.38,289,1365.61,288.17Z"/><path class="cls-2" d="M0,360.81v-16c3.5,1.07,7.13,2,10.49,3.21C46,360.59,73,377.65,95,397.67c15.88,14.41,32.34,28.8,51.45,41.85,24.37,16.62,56.75,25.54,95.94,26.33,35.4.71,68.65-4.13,100.63-11.66,47.93-11.3,95-23.68,142.8-35.2,46.47-11.21,94.95-15.37,145-10.13,45.31,4.75,90.39,10.25,135.52,15.56,53,6.25,105.84,13.07,160.55,11.65,31.32-.81,62.28-3.86,87.6-14.61,22.74-9.66,44.31-20.65,63.19-32.66,44.06-28,96.14-48.49,159.77-59.48,42.15-7.29,84.87-8.45,128.17-4.21V344.8c-49.86-6.43-98.14-2.58-145.5,7.15-64.44,13.26-114.71,37.11-157.85,66.57-32.17,22-71.46,36.73-124.06,38.7a589.45,589.45,0,0,1-90.93-3.88c-58.34-6.84-116.22-14.93-174.53-21.85-35.57-4.22-71.65-7-108.22-4.82-40.43,2.42-77.07,11.4-113.49,20.86-43.56,11.31-87,22.87-131.2,33.3a320.49,320.49,0,0,1-86.21,8.61c-45.22-1.79-77.11-15.82-101.24-36.09-13.54-11.39-25.2-23.52-36.9-35.56C72.41,394.06,41.05,374.88,0,360.81Z"/><path class="cls-2" d="M1365.61,91.2v28.31c-4,.88-8.42,1.43-12,2.7-31.43,11.07-63.24,21.83-93.94,33.52-69.62,26.52-140,52.29-214.4,74.4-39.6,11.78-78.52,24-113.11,40.3-35.65,16.82-71.4,33.66-108.7,49.29-71.5,30-149,36.44-232.33,16.67A861.82,861.82,0,0,1,470.7,298.14c-60.87-24.22-120.64-49.33-181.39-73.65-22.16-8.87-44.69-17.85-69-24.51-40.47-11.06-84.29-9.62-127.36-6-31.2,2.65-62,6.91-92.93,10.46V189.68c4.56-.64,9.19-1.16,13.67-1.94,43.39-7.59,86.71-15.26,132.16-18.08,46.84-2.9,91.75-.24,131.18,15.73,34.49,14,68.87,28.11,102,43.11,51.52,23.35,101.51,47.78,152.95,71.2a493.29,493.29,0,0,0,103.92,34.4c47.82,10,95.34,10.22,140-4.11a456.53,456.53,0,0,0,70.68-29.41c32.54-16.93,62.26-35.58,93.35-53.4,28.47-16.31,61.67-28.56,99.78-36.52,43.16-9,83.9-20.69,121-36.11,45.07-18.7,89.6-37.82,134.83-56.4C1318.35,108.76,1342.21,100.15,1365.61,91.2Z"/><path class="cls-2" d="M0,234V218c29.13-2.24,58.15-5.2,87.4-6.57,51.86-2.42,101.36,1.5,145.21,19.38Q290,254.22,348.84,276.57c65.66,24.77,133.22,47.72,207.62,63.37,50.66,10.66,102.6,16.51,157,11.18,47.44-4.65,89.83-16.16,129.95-30.57,67.38-24.2,132.11-50.53,202.5-72.32,81.78-25.32,159.53-54.77,239.62-81.87,25.74-8.72,53.35-15.69,80.1-23.46v28.32c-5.88,1-12.09,1.7-17.59,3.19-41.22,11.16-83.3,21.46-123.16,34-43.39,13.68-84,30.12-127,44.21q-77.24,25.31-156.56,48.54c-46.35,13.59-93.38,26.56-141.17,38.45-39.05,9.72-80.81,14.92-123.57,16.11-70.56,1.95-138.91-5-205.5-17.83-91-17.55-173-44.38-249.52-76.91a503.35,503.35,0,0,0-47.39-17.4c-31.45-9.78-66.52-11.5-101.44-11.85C48.49,231.5,24.23,233.18,0,234Z"/><path class="cls-2" d="M0,396.51V378c48.62,17,81.81,41.28,105.94,70.14a189.13,189.13,0,0,0,27.38,26.54c26.85,21.36,62.55,33.78,110.63,32.84a371.81,371.81,0,0,0,81.45-10.3c52-12.76,103.17-26.47,154.72-39.75,41.56-10.71,84.69-18,130.84-15.06,33.85,2.16,67.65,5.2,101,9.22,62.81,7.59,123.93,19.63,188.28,23.2,48.27,2.68,94.15-1.18,131.94-19.89,24-11.87,45.62-25.23,68.7-37.7,47.94-25.9,105-42.17,169.52-50.31,31.55-4,63.39-3.48,95.25-1.24v23.39c-9.4-.44-18.8-1.24-28.2-1.28-77.2-.3-145.22,15.45-206.74,40.14-28.5,11.44-53.56,25.73-79.15,39.34C1014.61,487,971.6,497.6,920.9,494.42c-31.94-2-63.62-6.23-94.84-10.75-47.83-6.92-94.88-15.56-142.78-22.3-38.5-5.42-78-8.11-117.74-4.66-35.62,3.09-68,11.52-100.26,20.13-49.24,13.15-98,26.9-148.14,38.89-21.71,5.2-45.94,8.08-69.51,9.54-54.37,3.37-93.83-10.86-120.86-36.74A353.5,353.5,0,0,1,97.6,456.9C76.32,430.89,43.22,411.14,0,396.51Z"/><path class="cls-2" d="M1365.61,243.85v25.86c-29.67-2.66-58.76.15-87.3,4C1202,284.12,1134.52,304.43,1076,334c-40.73,20.55-87.08,34.73-140.71,40.92a756.58,756.58,0,0,1-113.71,4.42c-51.06-1.84-102.05-4.5-153.14-5.75-34.35-.85-69.11-1.34-103.19.69-39.23,2.33-78,7.39-116.83,11.65-52,5.71-103.67,12.5-157.44,9.44-41.31-2.35-79.23-9.64-110.55-24.95-24.07-11.77-45.85-25.09-67.7-38.22-31-18.65-70-28.78-112.74-35.36V279.56c28.22,1.3,54.85,6,80.53,12.43,33.91,8.44,60.26,22.66,86.2,37.05,30.06,16.68,64.77,28.93,104.81,36.43,66.49,12.47,134.58,10.16,202.8,7.27,47-2,94-4.45,141.05-5.46,43.54-.94,87.24.55,130.77-.45,45.61-1.06,91.43-2.52,136.58-6.13,70.49-5.63,134.69-20.32,191.3-45.7C1159.68,276.61,1254.1,248.86,1365.61,243.85Z"/><path class="cls-3" d="M593,659.7c47.43-11.77,94.68-24,146.34-28.65,10.36-.93,21.88,1.51,32.62,3,5.32.72,10.1,2.73,15.62,3.51-14.79-8.92-31.3-15.59-54.79-13.16l15.92-2.12-27.43-1.57-3.7,4.79c-32.69,6.58-66,12.36-97.89,20-37.69,9-74.19,19.52-111.21,29.39-.94-.53-1.88-1.06-2.83-1.58l-6.07.29.06,0-3.8.23-15.53,5a6.45,6.45,0,0,1-.3.91l-.82.35.78-.38h2.29c-5.17,7.38-18.08,7.76-28.78,10.13-.59,0-1.18-.08-1.78-.1l-.41-.11.3-1.3.82-.36-.78.39-2.14,1.21c-3,1.85-5.35,4.37-9,5.46-52.34,15.46-104.69,30.93-157.42,46-32,9.12-64.05,18.39-97.3,25.85-16.74,3.75-36.23,3.59-54.48,5.21l-.78-2.24,6.27-1.49c-15.13-1.69-32.91-2.78-49.65-5.73-25.27-4.46-41.52-15.29-53.87-28-7.82-8.08-15-16.37-23-24.41-2.58-2.6-6.75-4.7-10.19-7v-9.85c3.84,2.14,8.74,3.95,11.34,6.5,11.94,11.7,23.37,23.57,34.71,35.46,20,21,60.06,32.34,101.55,28.4-2.11-.21-4.23-.16-6.34-.22C99,762.27,68,751.58,50.32,729.45c-6.27-7.85-11.58-16.1-19.86-23.23C21.9,698.83,10.28,692.57,0,685.82V673.51c17.53,6.23,32.28,14,41.59,24.6,5.64,6.42,10.57,13,15.74,19.6,8.58,10.9,17.34,21.71,34,29.71,25.67,12.38,56,12.76,86.75,10,46.32-4.1,87.92-15.65,128-28.65,83.81-27.16,166.63-55.3,250.87-82,33.74-10.7,69.56-19.54,105.5-27.73,29-6.61,59.54-7.16,89.18.44,3.35.86,7.22,1.07,12.86,1.86-11.63-6.23-26.23-10-41.2-11.72-30.61-3.45-59.77.34-87.06,7.31-33.37,8.52-66.17,18-97.81,28.38C463.68,669.89,390,695.42,315.48,720.22c-40.19,13.38-81.91,24.87-128.72,29.18-44,4.05-77.2-5.43-95.6-28.41-7.45-9.31-12.62-19.21-19-28.81C59,672.22,34.09,658.66,0,650.12v-7.39c41.53,10.33,69.82,27.22,83.19,52a183,183,0,0,0,20.31,29.76c9.52,11.48,26.65,18.09,48.71,20.54,19.73,2.19,39.1.72,58.13-2.26,33.72-5.29,65.7-12.89,95.08-23.75,6.18-1.71,12.6-3.17,18.49-5.15,83-27.85,165.51-56.24,249.14-83.51,52.1-17,106-32,169.76-22.26A162.94,162.94,0,0,0,689,602.79c-37.63,2.38-71.66,10.62-103.76,21.2-72.12,23.78-143.7,48.07-215.34,72.29-21.76,7.36-43,15.17-64.53,22.78-7.23,1.87-14.57,3.62-21.67,5.65-30.24,8.63-61.3,15.78-95.17,18.58-44,3.64-78.28-8.83-89.6-33-2.77-5.94-4.74-12-8-17.86C76.22,665.78,45.72,647.2,0,636.58V625.5c54,12.73,89.26,34.29,100.86,67.37a75.24,75.24,0,0,0,12.69,23.38c12,14.6,41,22.35,69.56,20.69,49.11-2.86,92-14.86,133.28-28.8,73-24.64,144.77-50.37,218.07-74.67,35-11.6,71.37-22.16,108.74-31,39.73-9.42,80.88-10.17,119.21,3.72,24.16,8.76,41.63,21.24,54.34,35.45,16.35,18.29,31,37.06,45.78,55.78,16.73,21.23,33.21,42.54,64.1,58.75,9.4,4.93,20.37,8.91,31.68,13.78-24.26,4-32-8.29-47.27-13.13l18.6,12.73-2.47,1.28C915,766.44,908.23,759,897.45,753.24l11.68,16.29c-10.28,1-15.83,0-20.22-6.44-21.57-31.53-40.89-63.73-75.32-91.89a165.56,165.56,0,0,0-22.53-15c-21.36-12.18-47.31-14.61-76.41-11.5-45.81,4.9-88.71,14.44-130.13,26-115,32-229.57,64.62-344.41,96.86-6.78,1.91-14.52,2.73-21.82,4.06l-3.38-2.84a40.94,40.94,0,0,0,5.07-.73C326.2,738,432.16,707.67,538.7,678c50.79-14.15,101.61-28.69,157.22-36,18.83-2.5,38.84-4,58-3.34,25.39.88,41.6,11.63,56.79,22,6.66,4.56,12.22,9.64,18.28,14.48l2.54-.85c-8.86-7.79-16.74-16-26.78-23.27-24.07-17.4-55.7-22.3-92.39-15.13-36,7-71.59,14.83-107.37,22.26-3.73.78-7.56,1.4-11.34,2.1Zm63.75-33.42-1.1-1.5L532.68,658.94l1.38,1.59Z"/><path class="cls-2" d="M0,547.94v-19.7c48.48,13.07,81.45,33.6,97.19,62.94a157.24,157.24,0,0,0,21,29.66c12.46,14.06,33.11,22.45,61.25,24.71,29.89,2.4,57.85-2,85.08-7.87,55.94-12.12,106.24-30.33,157.67-47.33,52.68-17.41,105.45-34.75,158.75-51.54a304.06,304.06,0,0,1,79.64-13.95c40.78-1.55,73.9,8.59,103.7,23,33.32,16.15,59.8,35.71,86.32,55.27,22.52,16.6,44.44,33.57,75.46,45.74,21.15,8.3,44,13.63,70.34,12.37,20.85-1,39.25-6.19,56.34-12.46,52.4-19.24,104.19-39,156.56-58.28,48.84-18,98.89-34.65,156.35-42.61V570.1c-4.22.55-8.54.94-12.66,1.68-51.67,9.27-95.78,26.34-140.15,43.19-54.56,20.71-108.55,41.94-164.15,61.72-48.14,17.11-93.64,13.16-135.14-9.13-27.79-14.92-47.21-33.2-66.67-51.5-22.62-21.27-43.75-43.16-76.64-60.26-35.27-18.33-76.38-24.56-123.06-18.29-41.7,5.59-77.72,18.28-114,30.28-70.88,23.42-140.88,47.68-211.72,71.14-32.66,10.81-66.94,19.87-104.61,24-55.39,6-90.47-5.42-109-35.57-6.09-9.88-11-20-17.73-29.74C73.25,573.5,42,557.58,0,547.94Z"/><path class="cls-2" d="M0,584.87V567.64c44.28,10.53,77.65,27,91.88,53.86,4.89,9.23,9.07,18.61,14.8,27.67,17.74,28.06,51.95,39,103.92,33.46,41-4.33,78-14.59,113.28-26.45,66.21-22.23,131.17-45.65,197.56-67.7,36.56-12.13,74-23.81,112.83-33.3,52-12.71,99.51-6.82,139.39,16.5,28.81,16.86,49.24,37,70.17,56.91,19.77,18.85,37.87,38.59,61.84,55.63,41.38,29.42,87.23,37.65,145.17,18.27,44.29-14.82,87-31.25,129.05-48,59.26-23.69,115.41-50.09,185.72-63.41v19.69c-41.5,7.5-77.47,20.78-111.69,35.4-42.85,18.32-84.13,37.81-126.63,56.4-28,12.22-57.59,23-91.78,29.07-43,7.66-80.25,2.28-112.21-15.41-28.56-15.81-45.6-35.78-63.81-55.45-19.33-20.87-39.5-41.54-61.23-61.63-14.72-13.61-35.38-24.55-61.52-31.36-34.64-9-69.84-6.53-102.46,2.23-41.91,11.25-82.84,23.86-122.79,37.22-66.89,22.38-132.31,46.17-199.07,68.69-34.36,11.58-70.59,21.2-110.7,25.14-36.11,3.56-66.15-2.37-81.81-17.77-7.09-7-11.17-15-15.35-22.78-3.63-6.76-6.86-13.15-13.51-19.59-21.67-21-52.16-35.47-91-44.93v-3.69c16.75,5.57,35.14,10,49.79,17,15.71,7.48,27.89,17.32,41.61,26.13-4.87-6.49-10-13.22-17.43-19C55.23,601.59,28.79,592.28,0,584.87Z"/><path class="cls-2" d="M0,508.54V491.31c3.34.78,6.9,1.35,10,2.37,39.45,13.14,69.07,30.9,84.43,55.81a216.09,216.09,0,0,0,24.09,32.25c16.08,17.64,41.9,27.84,77.7,29.35,34.41,1.44,66.91-3.43,96.85-11.9,51.9-14.67,102.34-31,153.63-46.37,43.27-13,86.12-26.5,130.53-38.09,52.35-13.67,104.41-10.87,154.68,5.12,41.52,13.2,76.73,30.93,112.17,48.53,25.66,12.74,51.09,25.65,82.24,34.13,35.17,9.56,70.56,10.72,105.48-.36,11.69-3.7,23-7.83,33.93-12.24,63.26-25.63,128.58-49.35,199.09-68.2,32-8.55,65.22-15,100.81-16.86v20.93c-55.07,6.15-104.66,19.77-151.6,36.49C1158.7,582,1104.3,602.5,1049.32,622.51c-48.73,17.73-89.64,17.6-134.74-2.48-25.2-11.23-47.49-24.64-70-37.65-30-17.32-58.72-35.3-93.83-49.5-48.74-19.72-101-24.35-156.64-11-24.35,5.86-48.29,12.45-71.36,19.77-63.36,20.1-125.87,41-189.29,61.08-36.88,11.64-75.41,21.22-118,24.59-41,3.24-74.68-5.19-94.51-25.52-9.57-9.81-16.87-20.47-23.15-31.13C80.9,542,47.48,521.82,0,508.54Z"/><path class="cls-2" d="M0,434.68V416.21c40.87,13.86,73.1,32.08,93.2,56.91,10.85,13.4,22.17,26.83,35.92,39.32,27.8,25.24,69.93,33.84,120.93,30.09,42.11-3.1,80.31-12.69,117.78-23.26,43.53-12.28,86.31-25.45,130.31-37.16,46.14-12.27,95.23-15.48,145.84-11.8,49.08,3.56,95.07,13.16,141.46,22.21,39.43,7.7,79,15.57,119.4,21.21,49.42,6.9,96.07,1.94,136.45-16.8,12.34-5.72,25-11.27,36.57-17.48,52.06-28,112.94-47.38,181.37-59.27,34.6-6,70-9.4,106.38-6.43v22.16c-17.36.58-35,.25-52,1.91-78.75,7.68-147.51,28.05-210.86,54.71-22.69,9.54-43.79,20.29-66.4,29.9-25.47,10.84-54.64,16.13-86.68,15.12a387.22,387.22,0,0,1-77.94-10.86c-50.82-12.15-101-25.24-152.3-36.67C643.55,473.14,568,474.13,494.64,495.1c-37.24,10.64-73.71,22.14-110.47,33.32-39.11,11.89-78.61,23.55-122.68,28.12A363.44,363.44,0,0,1,200,557.87c-36.28-2.54-60.93-15.58-77.46-33.33-12.84-13.78-23.69-28.15-36.28-42C66.9,461.27,37.7,445.49,0,434.68Z"/><path class="cls-2" d="M1365.61,195.84v25.85c-13.57,1.36-27.34,2.27-40.69,4.14-87.09,12.19-164.42,35.93-236.21,65.5a801.34,801.34,0,0,1-161.52,47.6C840,355,750,360.51,658.93,361.87c-20,.3-40,0-59.95.4-76.66,1.61-153.26,2.21-229.19-5.39-71.66-7.18-135.9-23.17-189.91-51.38-27.59-14.41-56.75-28-94.38-33.05-28.16-3.77-57-6-85.5-8.9v-16c19.22.46,38.51.52,57.66,1.46,49.59,2.43,95.65,10.76,134.4,28.94,43.68,20.48,91.28,37.18,143.35,49.85C418.25,348,505.47,356.93,595,359.56A1133.06,1133.06,0,0,0,848,339c98-19.3,189.88-45.39,276.45-77.68,49.43-18.44,99.15-36.82,154.45-49.3C1307.14,205.67,1336.68,201.18,1365.61,195.84Z"/><path class="cls-2" d="M1365.61,460.53v20.93c-19.63,2-39.68,3-58.81,6-61.62,9.58-116.75,27.14-170,46.52-32.31,11.77-62.89,25-94.59,37.36-33.82,13.13-70.24,16.82-109.77,9.07-32.38-6.35-60.33-16.95-87.79-28.11-39.81-16.18-79.22-32.72-124.18-44.26-31.82-8.18-64.85-12.93-100.31-11.17-47.05,2.33-89.52,12.25-130,25.08-41.48,13.15-81.67,27.59-123.21,40.68-43.2,13.6-87.46,25.94-137.36,30.16-46.07,3.9-84.91-6-107.28-29-9.24-9.48-16.52-19.62-23.64-29.69-10.32-14.61-21.94-29-42.95-39.48-17.16-8.59-37.08-15.42-55.78-23V454.37c26.13,7,49.22,16.77,65,30.09,16.4,13.84,28.61,29.33,41.49,44.42,11.89,13.93,23.1,28,46,37.5,31.64,13.17,67,13.3,103.22,8.61,42.88-5.55,82.14-16.31,120.46-28.17,43.94-13.6,87.06-28.1,131.67-41,57.22-16.49,117.92-23.13,180.32-11.15,34.52,6.63,67.58,16,100.32,25.2C822.53,529.52,855,541,889,550.63c31.3,8.83,64.62,13.74,100.21,9.75,28.73-3.22,52.43-12.06,74.29-22.34q76.73-36.07,167.66-59.12C1273.94,468.15,1317.89,459.86,1365.61,460.53Z"/><path class="cls-3" d="M1365.61,591c-70.31,13.32-126.46,39.72-185.72,63.41-42,16.8-84.76,33.23-129.05,48-57.94,19.38-103.79,11.15-145.17-18.27-24-17-42.07-36.78-61.84-55.63-20.93-20-41.36-40.05-70.17-56.91-39.88-23.32-87.43-29.21-139.39-16.5-38.86,9.49-76.27,21.17-112.83,33.3-66.39,22-131.35,45.47-197.56,67.7C288.56,668,251.63,678.3,210.6,682.63c-52,5.49-86.18-5.4-103.92-33.46-5.73-9.06-9.91-18.44-14.8-27.67C77.65,594.64,44.28,578.17,0,567.64V559c35.5,7.55,62.78,20.78,83.13,38.79C71.12,580.34,35,561.55,0,554.09v-6.15c42,9.64,73.25,25.56,90,49.63,6.76,9.73,11.64,19.86,17.73,29.74,18.58,30.15,53.66,41.55,109.05,35.57,37.67-4.08,72-13.14,104.61-24,70.84-23.46,140.84-47.72,211.72-71.14,36.32-12,72.34-24.69,114-30.28,46.68-6.27,87.79,0,123.06,18.29,32.89,17.1,54,39,76.64,60.26,19.46,18.3,38.88,36.58,66.67,51.5,41.5,22.29,87,26.24,135.14,9.13,55.6-19.78,109.59-41,164.15-61.72,44.37-16.85,88.48-33.92,140.15-43.19,4.12-.74,8.44-1.13,12.66-1.68v7.38c-18.63,3.93-38.07,6.94-55.75,11.94-53.2,15-99.79,35.87-148.6,54.78-38.9,15.08-78.49,29.67-119,43.26-38.38,12.86-76.28,10.55-111.75-5-29.08-12.74-48.38-29.85-67.7-47-3.13-2.78-6.1-5.62-9.14-8.44,18.38,20.82,38.25,41.07,69,57,38.75,20.09,74.15,23.52,120.58,9.28,34.39-10.54,67.07-22.94,99.62-35.26,49.78-18.84,97.93-39.08,148.51-57.18,22.6-8.08,49.42-12.42,74.32-18.45ZM108.38,638.87c5.88,10.4,13.75,20.15,29.33,27.24,22.39,10.19,48.21,10.44,74.61,7.79C251.56,670,287,660.32,320.86,649c79.09-26.46,157.26-53.81,236.63-80a797.12,797.12,0,0,1,83.58-22.24c34.15-7.27,68.6-5.93,100.74,5,4.8,1.63,9.4,3.44,14.1,5.16-25.08-13-54.32-19.19-88.39-16.8-29.76,2.09-57,8.64-82.46,17-65,21.34-129.31,43.39-194.08,65-45.66,15.21-90,32.06-140.74,41.56-20.76,3.89-43.12,6.86-64.8,7C147.54,670.77,122.68,658.52,108.38,638.87Z"/><path class="cls-3" d="M0,596c38.89,9.46,69.38,23.93,91.05,44.93,6.65,6.44,9.88,12.83,13.51,19.59,4.18,7.77,8.26,15.81,15.35,22.78,15.66,15.4,45.7,21.33,81.81,17.77,40.11-3.94,76.34-13.56,110.7-25.14,66.76-22.52,132.18-46.31,199.07-68.69,40-13.36,80.88-26,122.79-37.22,32.62-8.76,67.82-11.26,102.46-2.23,26.14,6.81,46.8,17.75,61.52,31.36,21.73,20.09,41.9,40.76,61.23,61.63,18.21,19.67,35.25,39.64,63.81,55.45,32,17.69,69.24,23.07,112.21,15.41,34.19-6.1,63.83-16.85,91.78-29.07,42.5-18.59,83.78-38.08,126.63-56.4,34.22-14.62,70.19-27.9,111.69-35.4v7.39a361.31,361.31,0,0,0-82.71,24.31c-44.75,18.91-88.21,38.79-132.18,58.29-29.46,13.07-59.29,25.83-94,34.24-34,8.22-68.31,11.45-103.08,1.41a156.11,156.11,0,0,1-56.08-29.45c-6.34-5.1-12-10.49-17.89-15.75l-2.61,1c11.55,9.81,22,20.11,34.85,29.32,33.78,24.16,77.08,31.45,129.12,22.36,33.88-5.91,63-16.89,90.48-29,45.72-20.24,90.2-41.37,136-61.51,29.85-13.12,61.77-24.58,98.11-31.44v8.62c-68.17,15.79-122.21,43.19-177.83,69.22-39.46,18.47-77.84,37.74-125.36,49.65C1029.08,757.64,995,761,960,752.58c-28.57-6.87-50-18.78-64.34-33.78-20.82-21.81-39-44.41-58-66.78-15.52-18.35-30.56-36.77-56.27-51.6C747.64,581,707.16,577,662,583.32,628.41,588,598.14,597,568.88,607c-82.4,28.14-164.24,56.8-246.77,84.81-38,12.91-77.27,24.77-121.76,29.2-27.44,2.73-53.91,2.06-74.78-10.44-12.76-7.64-18.88-17.25-20.5-27.33-6-37.54-41.84-62.32-101.3-77.43-1.32-.34-2.52-.82-3.77-1.23Zm112.45,91.21C120.18,700.5,137.07,710,164,712.28a210.68,210.68,0,0,0,37.92-.4c45.19-4.47,84.93-16.68,123.61-29.79,87.81-29.78,174.56-60.57,263-89.79,50.38-16.66,103.76-28.59,163.62-13.66a48.29,48.29,0,0,0-9.37-3.77c-34.78-10.35-70.68-8.44-104.15.29-42.09,11-83,23.58-123,36.92-64.71,21.62-127.93,44.66-192.3,66.61-37.7,12.85-76.73,24.48-120.89,28.68-20.57,2-42,2.72-60.19-4.35C130.65,698.52,121.47,692.06,112.45,687.16Z"/><path class="cls-3" d="M1365.61,413.75c-36.43-3-71.78.42-106.38,6.43-68.43,11.89-129.31,31.27-181.37,59.27-11.55,6.21-24.23,11.76-36.57,17.48-40.38,18.74-87,23.7-136.45,16.8-40.43-5.64-80-13.51-119.4-21.21-46.39-9-92.38-18.65-141.46-22.21-50.61-3.68-99.7-.47-145.84,11.8-44,11.71-86.78,24.88-130.31,37.16-37.47,10.57-75.67,20.16-117.78,23.26-51,3.75-93.13-4.85-120.93-30.09C115.37,500,104.05,486.52,93.2,473.12,73.1,448.29,40.87,430.07,0,416.21v-7.39c2.62.67,5.44,1.17,7.83,2,35.09,12.82,64,28.91,83.2,50.16,1.53,1.69,3.29,3.31,5,5C77.22,438.78,44.3,418.5,0,403.9v-7.39c43.22,14.63,76.32,34.38,97.6,60.39a353.5,353.5,0,0,0,29.17,31.63c27,25.88,66.49,40.11,120.86,36.74,23.57-1.46,47.8-4.34,69.51-9.54,50.11-12,98.9-25.74,148.14-38.89,32.24-8.61,64.64-17,100.26-20.13,39.78-3.45,79.24-.76,117.74,4.66,47.9,6.74,95,15.38,142.78,22.3,31.22,4.52,62.9,8.75,94.84,10.75,50.7,3.18,93.71-7.46,130.62-27.1,25.59-13.61,50.65-27.9,79.15-39.34,61.52-24.69,129.54-40.44,206.74-40.14,9.4,0,18.8.84,28.2,1.28v8.62c-16.66-.25-33.45-1.36-50-.61-62.3,2.84-117.86,16.45-170.58,34.68-34.14,11.82-61.12,28.27-91.22,42.72-16.18,7.76-33.68,15.18-52.58,20.49-36.06,10.13-75.12,9.65-113,4.16-49.91-7.23-99.08-16.09-148.49-24.41-49.61-8.36-99.68-15.1-152-14a315.69,315.69,0,0,0-75.54,11.16,31.6,31.6,0,0,0,7.26-.72c40.59-8,82.13-9.39,124.59-6.23,42.78,3.18,83.56,10.49,124.39,17.89,39.76,7.2,79.37,14.83,119.75,20.72,37.36,5.45,75.5,6.36,112.3-2.61,27.51-6.71,49.93-17.56,70.92-29.2,50.7-28.12,109.56-48.54,177.21-60.68,38-6.81,76.77-10.94,116.93-7.18Zm-1260.87,61-3,1.07c11.7,11.27,22.2,23,35.38,33.7,19.27,15.64,47,24.47,80.68,25.79,61.1,2.39,113.15-13,165.19-27.91a82.18,82.18,0,0,0-10.82,2C338.85,516.36,306.29,525,272,529.81c-67,9.41-114.95-3.23-149.7-36.81C116.14,487,110.59,480.83,104.74,474.74Z"/><path class="cls-2" d="M1356.89.09c-50,23.43-99.32,47.33-150.27,70.08-23.79,10.62-50.31,19.38-76.3,28.33-29.33,10.1-63.11,11.86-96.14,14.49-43,3.43-80.43,13.65-110,31.17-34,20.16-64.69,42.06-97.87,62.66-18.49,11.49-37.54,23-59.05,32.55-55.21,24.52-108.17,25.07-166.88,3.26-38-14.11-68.79-32.69-99.75-51.16-16.72-10-33.24-20.05-49.84-30.08-2.92-1.77-5.8-3.57-7.52-6.19L456,160.3l14.75,9.64,63.91,33.51L555.88,213a18.35,18.35,0,0,0,3.55,2.3C597.68,230.26,638.35,236.67,684,227c35.39-7.49,65.33-19.65,92.47-34.09,36.49-19.41,71.86-39.5,108.65-58.72,42.76-22.33,91.44-38.1,150.84-42,34.61-2.28,69.86-4.79,100.44-15.15q52.71-17.85,103.28-37.69c19.94-7.77,37.92-17.12,56.79-25.77L1324.16.09Z"/><path class="cls-3" d="M0,508.54C47.48,521.82,80.9,542,97.83,570.72c6.28,10.66,13.58,21.32,23.15,31.13,19.83,20.33,53.55,28.76,94.51,25.52,42.55-3.37,81.08-13,118-24.59,63.42-20,125.93-41,189.29-61.08,23.07-7.32,47-13.91,71.36-19.77,55.65-13.4,107.9-8.77,156.64,11,35.11,14.2,63.87,32.18,93.83,49.5,22.52,13,44.81,26.42,70,37.65,45.1,20.08,86,20.21,134.74,2.48,55-20,109.38-40.53,164.69-60.24,46.94-16.72,96.53-30.34,151.6-36.49v9.85c-6,.67-12.19,1.15-18.13,2-49.75,7.57-94.28,21.49-137.24,37-52.08,18.76-103.38,38.21-155.08,57.3-53,19.57-93.86,19.36-142.69-3.08-23.47-10.78-43.05-24.27-64.11-36.68-8.66-5.1-16.56-10.61-24.81-15.93,8.46,7.84,18.54,14.82,28.57,21.82,21.26,14.84,42.14,29.84,69.92,41.18,36.9,15.06,75.29,18.57,116.14,5.32,8.5-2.75,17-5.52,25.2-8.56,47.07-17.47,93.84-35.2,141.1-52.5,36.31-13.28,73.23-26.11,114.11-34.54,15.2-3.14,31.32-4.84,47-7.2v6.16c-57.46,8-107.51,24.64-156.35,42.61-52.37,19.27-104.16,39-156.56,58.28-17.09,6.27-35.49,11.47-56.34,12.46-26.3,1.26-49.19-4.07-70.34-12.37-31-12.17-52.94-29.14-75.46-45.74-26.52-19.56-53-39.12-86.32-55.27-29.8-14.46-62.92-24.6-103.7-23a304.06,304.06,0,0,0-79.64,13.95c-53.3,16.79-106.07,34.13-158.75,51.54-51.43,17-101.73,35.21-157.67,47.33-27.23,5.9-55.19,10.27-85.08,7.87-28.14-2.26-48.79-10.65-61.25-24.71a157.24,157.24,0,0,1-21-29.66C81.45,561.84,48.48,541.31,0,528.24v-6.16c4.3,1.06,8.83,1.88,12.85,3.2,30.24,10,55.53,22.86,73.05,40.17-17.27-22.49-47-38-85.9-48.29Zm698.25,14.53-.12-2.56c-16.46-.42-33.08-1.83-49.37-1.07-39,1.81-73.12,11.79-106.36,22.45-72.64,23.3-144.62,47.26-217.4,70.42-34.61,11-71.21,19.76-111.12,22.63C178,637.53,146.54,632.6,124.67,615c-6.16-4.94-10.58-10.58-15.8-15.9,6.31,11.64,14.67,22.61,32,30.47,24.8,11.23,53.05,11.93,82.75,8.7,49.45-5.39,92.69-19,135.57-32.86,64.94-21,128.89-43,194.09-63.69C597.93,527.57,644.21,515.39,698.25,523.07Z"/><path class="cls-2" d="M1232.54.09c-59.91,18.82-122,33.39-192.13,34.46-65.91,1-129.06,10-188,26.24C786.13,79,722,99.7,655.92,118.11c-39.64,11-81,20.14-122.15,29.36-32.3,7.24-64.17,5.08-94.48-4.46-22.91-7.22-44.46-15.42-63.51-28.42,11.09,3,19.29,5.37,27.67,7.5,26.14,6.66,52.52,8.2,80.44,2.86,65.2-12.46,127.41-28.82,189.63-45.2,72.12-19,144.33-37.83,221.35-49.92a1019.71,1019.71,0,0,1,149.43-12.2c46.42-.41,90.67-6.21,133.83-15.32a51.67,51.67,0,0,0,6.42-2.22Z"/><path class="cls-2" d="M470.72,169.94,456,160.3a94.3,94.3,0,0,1,9.28,3.08c46.54,21.29,96.79,23.17,151.33,10.71,52-11.88,98.89-28.42,144.56-46.38,48-18.86,95.15-38.38,148.4-52.52C948.81,64.76,989.81,58,1033.09,57c70.25-1.74,131.6-17.16,190-37.63,17.86-6.27,35.42-12.81,53.11-19.23h26.18c-36.46,14.23-72.52,28.81-109.49,42.6-44.22,16.49-91.86,28.05-145.7,30.23-69.8,2.83-130.5,18.63-184.75,42.85-31.34,14-62.08,28.41-93,42.72-31.51,14.6-63.49,28.8-100.63,38.73-45.39,12.14-90.63,14.64-135.14-1.2-12.27-4.37-23.93-9.3-35.64-14.14C488.75,178,479.81,173.93,470.72,169.94Z"/><path class="cls-2" d="M933.68.09c-31.49,4.06-63.24,7.55-94.41,12.27-72.46,11-141.39,27.54-211.1,42.92C580.86,65.72,532.5,74.63,484.59,84.2c-17.77,3.55-35.73,6.62-50.5,13.92-8.59,4.24-19.81,4.44-31.1,3.43C374.91,99,349.2,92.88,324.75,85.1,283.63,72,243,58.49,202,45.25c-38.24-12.37-80-16.87-123.52-17-26.16-.07-52.33.09-78.49.15V22.25c22.49.49,45,.79,67.47,1.51,41.92,1.34,83.07,4.73,121.41,15.32,27.39,7.57,54.52,15.56,82.67,22.13,29.42,6.87,59.62,12.84,90.06,18.14,22.82,4,43.54.28,63.73-7.31,17-6.38,36.3-11.06,55.49-15.13,25.11-5.33,51.29-9,76.71-13.94C620.08,30.9,682.44,18.55,744.88,6.31L776.61.09Z"/><path class="cls-3" d="M1365.61,142.9c-26.75,7.77-54.36,14.74-80.1,23.46-80.09,27.1-157.84,56.55-239.62,81.87C975.5,270,910.77,296.35,843.39,320.55c-40.12,14.41-82.51,25.92-129.95,30.57-54.38,5.33-106.32-.52-157-11.18-74.4-15.65-142-38.6-207.62-63.37q-58.9-22.22-116.23-45.76C188.76,212.93,139.26,209,87.4,211.43,58.15,212.8,29.13,215.76,0,218v-4.92c45.56-5.45,91.26-10.05,138.2-8.87,37.25.93,71,7,101.84,19.13,66.23,26,132.45,52,199.87,76.94,48.36,17.9,99.53,33.12,155.17,42.94,34.49,6.08,75.52,9.06,97.52,6.88-58.43-1.73-78.79-3.49-131-18.06-39.27-11-77.55-23.48-113.88-37.3q-98.05-37.29-193-77.14c-47.6-20-100.34-23.58-156.2-19.49-33.07,2.42-65.72,6.63-98.56,10v-3.69c31-3.55,61.73-7.81,92.93-10.46,43.07-3.64,86.89-5.08,127.36,6,24.33,6.66,46.86,15.64,69,24.51,60.75,24.32,120.52,49.43,181.39,73.65a861.82,861.82,0,0,0,120.41,38.25c83.36,19.77,160.83,13.3,232.33-16.67,37.3-15.63,73-32.47,108.7-49.29,34.59-16.33,73.51-28.52,113.11-40.3,74.37-22.11,144.78-47.88,214.4-74.4,30.7-11.69,62.51-22.45,93.94-33.52,3.6-1.27,8-1.82,12-2.7v4.93c-27.54,9.15-55.37,18-82.55,27.51-77,26.85-152.91,54.66-230.77,80.65-42.84,14.3-87.42,26.79-126.07,44.87C898,290.69,868.73,303.22,839.82,316c-6.11,2.7-12.66,5.1-19,7.63a376.68,376.68,0,0,0,40.68-13.91c41.63-16.49,82.12-34,125-49.37,40.13-14.38,83.46-25.88,124.1-39.83,65.52-22.49,129.75-46.17,195.05-68.87,19.07-6.63,39.92-11.62,59.95-17.36Z"/><path class="cls-3" d="M1365.61,195.84c-28.93,5.34-58.47,9.83-86.67,16.2-55.3,12.48-105,30.86-154.45,49.3C1037.92,293.63,946,319.72,848,339a1133.06,1133.06,0,0,1-253,20.54C505.47,356.93,418.25,348,335.41,327.8c-52.07-12.67-99.67-29.37-143.35-49.85-38.75-18.18-84.81-26.51-134.4-28.94-19.15-.94-38.44-1-57.66-1.46v-4.93c21.8,0,43.64-.59,65.38,0,49.84,1.4,95.46,9.39,134.48,27.95,35.39,16.83,74.15,31,115.29,43C387.87,334.73,465,347.94,546,354.22c9,.69,18,1.09,27.08,1.58,8.61.46,17.23.87,25.85,1.3a1177.66,1177.66,0,0,1-222.27-35.88c-63.05-16.38-120.54-37.81-175.47-61.6-25.46-11-53.95-19.06-86.12-20.85-29.55-1.64-59.39-1.67-89.12-2.14-8.63-.13-17.3.69-25.95,1.07V234c24.23-.82,48.49-2.5,72.68-2.25,34.92.35,70,2.07,101.44,11.85A503.35,503.35,0,0,1,221.51,261c76.54,32.53,158.54,59.36,249.52,76.91,66.59,12.84,134.94,19.78,205.5,17.83,42.76-1.19,84.52-6.39,123.57-16.11,47.79-11.89,94.82-24.86,141.17-38.45q79.23-23.25,156.56-48.54c43-14.09,83.64-30.53,127-44.21,39.86-12.56,81.94-22.86,123.16-34,5.5-1.49,11.71-2.15,17.59-3.19v6.15c-5.27.75-10.9,1.07-15.76,2.33-39.58,10.26-80.13,19.55-118.19,31.38-42.9,13.33-83,29.53-125.3,43.51-46.7,15.42-94.16,30.15-142,44.42-54.92,16.38-109.94,32.77-169,44.15-2.76.53-5.4,1.26-8.1,1.89a57.59,57.59,0,0,0,12.93-1.27c104.39-19,201.59-46.59,294.66-79,58.43-20.35,114.66-42.9,177.82-58.52,30.13-7.45,61.92-12.75,93-19Z"/><path class="cls-3" d="M0,263.55c28.52,2.91,57.34,5.13,85.5,8.9,37.63,5,66.79,18.64,94.38,33.05,54,28.21,118.25,44.2,189.91,51.38,75.93,7.6,152.53,7,229.19,5.39,20-.42,40-.1,59.95-.4C750,360.51,840,355,927.19,338.93a801.34,801.34,0,0,0,161.52-47.6c71.79-29.57,149.12-53.31,236.21-65.5,13.35-1.87,27.12-2.78,40.69-4.14v8.62c-10.8.73-21.76,1-32.38,2.25-85.17,9.89-160.77,31.76-231,59.9-38.54,15.44-76.33,31.32-120.48,41.64-77.93,18.2-159.72,25.41-243.2,28.09-23.41.75-46.85,1.2-70.28,1.79,88.29.53,176.4.16,262.54-13.15,53.32-8.24,101.47-22,144.84-41.34,51.87-23.18,108.52-41.84,170.42-55.19,38.52-8.31,78.08-14.24,119.53-15.37v4.92c-111.51,5-205.93,32.76-291.57,71.15-56.61,25.38-120.81,40.07-191.3,45.7-45.15,3.61-91,5.07-136.58,6.13-43.53,1-87.23-.49-130.77.45-47.07,1-94,3.47-141,5.46-68.22,2.89-136.31,5.2-202.8-7.27-40-7.5-74.75-19.75-104.81-36.43-25.94-14.39-52.29-28.61-86.2-37.05C54.85,285.6,28.22,280.86,0,279.56v-4.93c22.56,3.1,45.44,5.61,67.6,9.44,34.86,6,63,18.43,88.79,32.52,29.71,16.22,61.54,30.61,100.13,39.74,56.6,13.39,116.1,15.81,176.4,15,21.76-.29,43.5-1.32,65.23-2.12,23.42-.88,46.82-1.89,70.24-2.84a188.93,188.93,0,0,0-19.59-.5c-61,1.48-122,2.43-182.71-2.49C293,357.5,227.56,342.37,173.44,313.19,124.86,287,65.94,273.34,0,268.48Z"/><path class="cls-2" d="M1365.61,33.33V42c-15.38,6.79-31.25,13.25-46,20.42-44.92,21.76-88.63,44.33-134.34,65.55-35.21,16.34-73.39,30.32-119.68,35.13-11.42,1.19-22.69,2.86-34,4.4-35.79,4.9-66,15.19-89.21,31.23-21.07,14.6-40.75,29.86-60.37,45.1-23.47,18.24-44.75,37.43-76.25,51.93C775.67,309.54,742,316.46,702.81,314.2c-38-2.19-69.65-12.25-99.38-24.81-45.68-19.3-82.66-43.7-121.86-66.77-19.36-11.39-37.66-23.35-56.93-34.79-38.7-23-79.3-44.65-131.61-57.79-24.33-6.12-49.73-10.19-76.22-7-33.67,4-67.38,8.38-100.12,14.28-39.42,7.1-77.84,16-116.69,24.09v-4.93c56.68-12.2,113.09-24.81,170.1-36.49,61.53-12.6,119.06-7.6,172.57,14,40.9,16.48,74.59,37.05,108.2,57.8,40.19,24.81,80.11,49.77,121.54,73.91a317.62,317.62,0,0,0,86,34.18c42.17,10.16,84.11,10.41,124.86-2.36,33.4-10.46,56-27,76.85-44.49.95-.8,1.06-1.93,1.56-2.9l.1-.08c3.66-2.48,7.75-4.79,10.92-7.46,13.74-11.57,27.1-23.29,40.8-34.87,33.34-28.2,76.58-48.18,138.61-51.7,50.87-2.9,92.92-16.48,132.28-33.56,6.25-2.72,11.74-6,17.58-9l.14-.06L1249.93,90l.13-.06L1280.47,74l.13-.06c4.29-1.79,8.79-3.44,12.83-5.39Q1329.61,51,1365.61,33.33Z"/><path class="cls-2" d="M757.29,328.77c40-8.68,70.62-24.3,98-42.33,16.48-10.85,33.3-21.53,50-32.29,4.6-2.62,9.54-5.06,13.74-7.86,34.6-23.07,74.26-42.23,126.78-50.94,63.07-10.46,115.4-31.33,166.28-53.69q76.88-33.78,153.56-67.7V85c-7.34,2.65-15,5-22,8-45.25,19.24-90.27,38.66-135.52,57.91-48.54,20.65-97.57,41.09-156,52.05-59.42,11.14-104.51,32.83-145.68,58.39-28,17.42-57.23,34.39-88.1,50.19-34.67,17.75-75.87,28.1-124,26.81-37.3-1-70.73-9-102.11-19.7-61.62-21-114.14-48.58-168.1-75.08-43.59-21.4-87.27-42.66-135.46-60.85A291,291,0,0,0,166.1,164c-30.54,1.9-60.83,5.71-90.82,9.67C49.88,177.06,25.07,181.84,0,186v-4.92c48.27-9.67,96.2-20,147-25,50.49-4.89,98.35-2.74,143.38,13.63,51.68,18.79,96.71,41.84,141.79,65.06,40,20.59,79.88,41.22,121.23,60.89,36.93,17.57,77.48,32.23,126.19,37.13C705.78,335.46,732.3,335.7,757.29,328.77Z"/><path class="cls-2" d="M0,13.64V5C20.2,6.3,40.44,7.41,60.6,8.89c35.94,2.65,72.13,4.65,107.68,8.48C221,23.05,273.13,30.76,325.94,36.28A292.93,292.93,0,0,0,405.86,34c14.69-2.55,26.25-7.15,32.53-15.22-12.73,2.31-24.82,5.2-37.43,6.6S375,27,362,27.2c-46.17.74-91.05-4.39-135.87-9.77-54-6.48-107.63-14-163.44-14.12C47.59,3.29,32.52,1.22,17.45.09H87.26c15,1.12,30.12,2,45.05,3.4,55.08,5.19,110,10.92,165.18,15.71a681.7,681.7,0,0,0,99.69,1.58c35.38-2.11,64.41-13,95.84-20.69H632.63C585.13,9,537.73,18.14,490.07,26.8c-26.41,4.79-52.31,9.67-73,20.89-19.28,10.43-42.89,12.58-68.79,10.61C306.87,55.14,267.82,47.59,229,39.39,189.59,31.05,150.46,21.86,108.31,19,72.36,16.51,36.12,15.36,0,13.64Z"/><path class="cls-3" d="M1365.61,460.53c-47.72-.67-91.67,7.62-134.41,18.39q-91.07,23-167.66,59.12c-21.86,10.28-45.56,19.12-74.29,22.34-35.59,4-68.91-.92-100.21-9.75C855,541,822.53,529.52,788.44,519.91c-32.74-9.22-65.8-18.57-100.32-25.2-62.4-12-123.1-5.34-180.32,11.15-44.61,12.86-87.73,27.36-131.67,41-38.32,11.86-77.58,22.62-120.46,28.17-36.19,4.69-71.58,4.56-103.22-8.61-22.87-9.52-34.08-23.57-46-37.5C93.6,513.79,81.39,498.3,65,484.46c-15.77-13.32-38.86-23.12-65-30.09v-8.61c22.94,6.84,44,15.31,60,26.82,13.49,9.74,24.25,20.68,36.22,31.09l8.46,10.85c7.35,8.88,13.59,18.12,22.28,26.56,16.25,15.76,40.86,25.15,73.13,28,25.43,2.26,50-.14,74.16-4.15C318.13,557.7,358,545.51,398,533.22c43-13.23,86.16-26.4,130.44-38.17,31.43-8.35,65.76-11.88,100.81-10.78C685.75,486,736.08,498.79,785.5,513c32.67,9.42,65,19.23,98.28,27.93,32.73,8.55,67.14,13.42,103.72,9.3,28.74-3.24,52.45-12.08,74.08-22.52,50.63-24.44,106-44.54,167.15-59.43,43.62-10.62,88.36-18.91,136.88-17.62Z"/><path class="cls-3" d="M0,471.61c18.7,7.61,38.62,14.44,55.78,23,21,10.51,32.63,24.87,43,39.48,7.12,10.07,14.4,20.21,23.64,29.69,22.37,23,61.21,32.89,107.28,29,49.9-4.22,94.16-16.56,137.36-30.16,41.54-13.09,81.73-27.53,123.21-40.68,40.45-12.83,82.92-22.75,130-25.08,35.46-1.76,68.49,3,100.31,11.17,45,11.54,84.37,28.08,124.18,44.26,27.46,11.16,55.41,21.76,87.79,28.11,39.53,7.75,75.95,4.06,109.77-9.07,31.7-12.32,62.28-25.59,94.59-37.36,53.22-19.38,108.35-36.94,170-46.52,19.13-3,39.18-4.06,58.81-6v9.85c-9.71.68-19.54,1-29.11,2.11-55.32,6.21-105.39,19.91-152.79,36.39-46.93,16.32-92.27,34.12-137.85,51.66-42.24,16.25-86.15,18.11-130.45,4.26-26.22-8.2-50.4-18.52-75.08-28.22-22.3-8.78-44-18-66-27-30.67-11.94-62.71-22.27-99.63-26.81-7.45-.79-14.84-2-22.34-2.3-50.81-2.11-97,6.91-140.38,20.42C459.56,538.1,408.69,556,356.57,572.6c-37,11.81-75.56,22-117.77,26.64-40.66,4.49-78,1.42-105.81-17.67-10.46-7.18-17.53-15.94-26.15-24L93.91,539.35a60.06,60.06,0,0,0-3.16-5.82C73.53,508.45,40.23,491.88,0,479Z"/><path class="cls-3" d="M1365.61,365.73c-31.86-2.24-63.7-2.73-95.25,1.24-64.51,8.14-121.58,24.41-169.52,50.31-23.08,12.47-44.72,25.83-68.7,37.7-37.79,18.71-83.67,22.57-131.94,19.89-64.35-3.57-125.47-15.61-188.28-23.2-33.31-4-67.11-7.06-101-9.22-46.15-2.95-89.28,4.35-130.84,15.06-51.55,13.28-102.77,27-154.72,39.75A371.81,371.81,0,0,1,244,507.56c-48.08.94-83.78-11.48-110.63-32.84a189.13,189.13,0,0,1-27.38-26.54C81.81,419.32,48.62,395,0,378v-6.15c40.29,12.87,70.31,31.27,92.83,54,15.77,15.89,30.9,32.15,49.68,46.88,25.51,20,62.5,28.92,106.1,27.81,34.95-.9,67.75-7.26,99.36-15.25,47.39-12,94.24-24.65,141.54-36.75a414.89,414.89,0,0,1,147.92-10.66c52,5.62,103.71,12.28,155.38,18.88,47.51,6.07,94.77,12.53,144.12,11.14,37.37-1.05,70.47-7.92,97.93-22.26,17.83-9.32,35-19.11,51.39-29.21,45.83-28.17,102.18-46.15,167-56.24,37.07-5.76,74.56-5.82,112.32-3.08Z"/><path class="cls-3" d="M1365.61,325.11c-43.3-4.24-86-3.08-128.17,4.21-63.63,11-115.71,31.47-159.77,59.48-18.88,12-40.45,23-63.19,32.66-25.32,10.75-56.28,13.8-87.6,14.61-54.71,1.42-107.56-5.4-160.55-11.65-45.13-5.31-90.21-10.81-135.52-15.56-50-5.24-98.49-1.08-145,10.13-47.76,11.52-94.87,23.9-142.8,35.2-32,7.53-65.23,12.37-100.63,11.66-39.19-.79-71.57-9.71-95.94-26.33-19.11-13-35.57-27.44-51.45-41.85C73,377.65,46,360.59,10.49,348c-3.36-1.19-7-2.14-10.49-3.21v-6.15c44.72,13.29,77.73,33.18,103.65,57.4a335,335,0,0,0,38.7,31.21C173,448.38,213,459,261.86,457.47c32.22-1,63-6.08,92.62-13.12,40.51-9.62,80.67-19.72,121.12-29.43,47.25-11.34,96.28-17.7,147.69-13.06,42.64,3.85,85,8.8,127.3,13.73,56.24,6.55,112.38,13.65,170.26,12.62,44.36-.79,85.54-7.29,118.44-25.35,19.52-10.71,38.18-21.92,57.61-32.68,42.14-23.35,92.22-38.95,148.92-47.93,39.48-6.25,79.44-7.06,119.79-3.3Z"/><path class="cls-3" d="M104.66,514.52,96.2,503.67c-9.34-9.91-17.21-20.38-28.35-29.59-17.27-14.27-42-24.26-67.85-33.25v-6.15c37.7,10.81,66.9,26.59,86.21,47.85,12.59,13.86,23.44,28.23,36.28,42C139,542.29,163.67,555.33,200,557.87a363.44,363.44,0,0,0,61.54-1.33c44.07-4.57,83.57-16.23,122.68-28.12,36.76-11.18,73.23-22.68,110.47-33.32,73.35-21,148.91-22,224.74-5.08,51.32,11.43,101.48,24.52,152.3,36.67a387.22,387.22,0,0,0,77.94,10.86c32,1,61.21-4.28,86.68-15.12,22.61-9.61,43.71-20.36,66.4-29.9,63.35-26.66,132.11-47,210.86-54.71,17-1.66,34.69-1.33,52-1.91v8.61c-62.6-.77-118.88,11.31-173.77,26.72-49.55,13.92-93.56,32.22-135.36,52.42-43,20.8-91.77,27.82-146.23,17.84-24.11-4.41-47.53-10.16-70.72-16-40.8-10.26-80.55-21.93-121.88-31.42-63.36-14.54-128.58-16.86-192-.91-45.68,11.48-89.48,25.42-133.57,38.83-45.88,14-92,27.36-144,32.66-58.62,6-103.73-6.65-130.69-36.57C113.28,523.53,108.91,519,104.66,514.52Z"/><path class="cls-2" d="M1365.61,357.12c-37.76-2.74-75.25-2.68-112.32,3.08-64.86,10.09-121.21,28.07-167,56.24-16.43,10.1-33.56,19.89-51.39,29.21-27.46,14.34-60.56,21.21-97.93,22.26-49.35,1.39-96.61-5.07-144.12-11.14-51.67-6.6-103.35-13.26-155.38-18.88a414.89,414.89,0,0,0-147.92,10.66c-47.3,12.1-94.15,24.78-141.54,36.75-31.61,8-64.41,14.35-99.36,15.25-43.6,1.11-80.59-7.81-106.1-27.81-18.78-14.73-33.91-31-49.68-46.88-22.52-22.7-52.54-41.1-92.83-54v-6.16c28.8,9,53.31,21,71.35,36.34,19.44,16.55,35.61,34.31,54.23,51.18,23.38,21.19,54.18,37.11,100.3,40.29,34.85,2.39,68.38-1.86,100.06-9.45,44.14-10.57,87-22.86,131.13-33.41,29.33-7,59.39-13.56,90.17-18,42.09-6.07,84.72-1.75,126.37,3.07,58.36,6.75,116.24,14.84,174.48,21.95a555.88,555.88,0,0,0,96.44,3.7c51.65-2.7,90-18.5,122-40.09a407.87,407.87,0,0,1,128.34-57.87c54.62-14.18,111-20.3,170.77-13.72Z"/><path class="cls-3" d="M470.72,169.94c9.09,4,18,8.1,27.31,11.94,11.71,4.84,23.37,9.77,35.64,14.14,44.51,15.84,89.75,13.34,135.14,1.2,37.14-9.93,69.12-24.13,100.63-38.73,30.89-14.31,61.63-28.73,93-42.72,54.25-24.22,115-40,184.75-42.85,53.84-2.18,101.48-13.74,145.7-30.23,37-13.79,73-28.37,109.49-42.6h13.09c-42,17.24-83.48,34.84-126,51.63-46.78,18.47-98.94,28.56-156.13,31.45-47.22,2.39-90.79,12-128.19,28.5C868,128,832.43,145.59,796.87,163.07c-34.53,17-68.28,34.43-109.82,46.06-46.17,12.93-91.76,14.35-136.79-1.75-4.77-1.71-10.4-2.64-15.63-3.93Z"/><path class="cls-2" d="M0,309.1V303c4.89.76,9.85,1.41,14.67,2.3C65,314.51,102.91,333.11,135.22,356c53.22,37.72,122.93,52.54,206.58,45.74,39.11-3.18,77.56-8.87,116.43-13.06,42.06-4.52,84-10.2,126.47-12.5,52.93-2.87,105.81,2,158.56,5.16,50.57,3,101.09,5.73,152.16,3.3,67.49-3.22,127.09-16.3,177.26-42.33,40.23-20.87,85.39-37.5,135.74-49.53a617.17,617.17,0,0,1,157.19-16.92v8.62c-6.47-.45-12.92-1.2-19.4-1.3-56.53-.89-109,7.92-159.9,21-47,12.08-85.89,30.48-123.84,49.7C1013.21,378.83,954.6,390,889.19,391.53c-76.46,1.75-151-7.6-226.48-11.79-36.59-2-73.43-4-109.62.36-42.59,5.11-84.76,11.38-126.87,17.67-45.33,6.78-90.26,13.83-137.94,13.71-60.83-.15-107.91-15-147.06-40.1-22.47-14.44-44.74-29.18-70-42C51.41,319.33,26.92,312.32,0,309.1Z"/><path class="cls-3" d="M93.91,539.35l12.93,18.24c7.53,8.79,13.18,18.33,23,26.22,20.74,16.71,51.07,22.58,86.57,21.1,38.49-1.6,73.79-9.17,107.16-19.27,64-19.36,127.05-39.63,190.69-59.33,49.91-15.45,101.15-28.22,160.44-22.66,36.92,4.54,69,14.87,99.64,26.81,2.88,1.54,5.59,3.19,8.67,4.58,15.31,6.92,30.59,13.86,46.13,20.62,25.28,11,49.73,22.76,76.37,32.61,47,17.37,94.91,18.37,142.46-.45,36.59-14.47,73.25-28.94,111-42.41,46.72-16.68,95-32,148.21-41.22,18.93-3.27,38.94-4.54,58.46-6.73v7.39c-35.59,1.83-68.82,8.31-100.81,16.86-70.51,18.85-135.83,42.57-199.09,68.2-10.89,4.41-22.24,8.54-33.93,12.24-34.92,11.08-70.31,9.92-105.48.36-31.15-8.48-56.58-21.39-82.24-34.13-35.44-17.6-70.65-35.33-112.17-48.53-50.27-16-102.33-18.79-154.68-5.12C532.8,526.32,490,539.85,446.68,552.82c-51.29,15.37-101.73,31.7-153.63,46.37-29.94,8.47-62.44,13.34-96.85,11.9-35.8-1.51-61.62-11.71-77.7-29.35a216.09,216.09,0,0,1-24.09-32.25c-15.36-24.91-45-42.67-84.43-55.81-3.08-1-6.64-1.59-10-2.37v-7.39c16.49,6.55,33.5,12.73,49.33,19.75C70.31,513,82.29,526.16,93.91,539.35Z"/><path class="cls-2" d="M1365.61,319c-40.35-3.76-80.31-2.95-119.79,3.3-56.7,9-106.78,24.58-148.92,47.93-19.43,10.76-38.09,22-57.61,32.68-32.9,18.06-74.08,24.56-118.44,25.35-57.88,1-114-6.07-170.26-12.62-42.31-4.93-84.66-9.88-127.3-13.73-51.41-4.64-100.44,1.72-147.69,13.06-40.45,9.71-80.61,19.81-121.12,29.43-29.62,7-60.4,12.09-92.62,13.12C213,459,173,448.38,142.35,427.26a335,335,0,0,1-38.7-31.21C77.73,371.83,44.72,351.94,0,338.65v-4.93c40.58,11.87,73.34,28.5,98.07,50.3,11.55,10.19,24,20.11,37.15,29.63,25.79,18.63,58.59,31.32,101,34.29a349.81,349.81,0,0,0,95.53-6.58c47.38-9.87,94.2-20.59,141.14-31.11,51.16-11.46,103.58-17.88,158.73-12.37q55.23,5.5,110.14,12.07c58.28,6.95,116.22,15,176.61,12.67,33.18-1.28,64.41-6,93.45-15.21,25.15-8,44.56-19.71,64.12-31.28a398.07,398.07,0,0,1,73.59-34.49c66.52-23,137.24-35.35,216.06-27.61Z"/><path class="cls-3" d="M1365.61,275.86a617.17,617.17,0,0,0-157.19,16.92c-50.35,12-95.51,28.66-135.74,49.53-50.17,26-109.77,39.11-177.26,42.33-51.07,2.43-101.59-.31-152.16-3.3-52.75-3.12-105.63-8-158.56-5.16-42.48,2.3-84.41,8-126.47,12.5-38.87,4.19-77.32,9.88-116.43,13.06-83.65,6.8-153.36-8-206.58-45.74C102.91,333.11,65,314.51,14.67,305.25,9.85,304.36,4.89,303.71,0,303v-6.16c42.7,6.58,81.72,16.71,112.74,35.36,21.85,13.13,43.63,26.45,67.7,38.22C211.76,385.68,249.68,393,291,395.32c53.77,3.06,105.42-3.73,157.44-9.44,38.84-4.26,77.6-9.32,116.83-11.65,34.08-2,68.84-1.54,103.19-.69,51.09,1.25,102.08,3.91,153.14,5.75a756.58,756.58,0,0,0,113.71-4.42c53.63-6.19,100-20.37,140.71-40.92,58.51-29.52,125.94-49.83,202.3-60.21,28.54-3.88,57.63-6.69,87.3-4Z"/><path class="cls-2" d="M0,650.12c34.09,8.54,59,22.1,72.2,42.06,6.34,9.6,11.51,19.5,19,28.81,18.4,23,51.56,32.46,95.6,28.41,46.81-4.31,88.53-15.8,128.72-29.18,74.48-24.8,148.2-50.33,222.92-74.89C570,634.92,602.84,625.47,636.21,617c27.29-7,56.45-10.76,87.06-7.31,15,1.68,29.57,5.49,41.2,11.72-5.64-.79-9.51-1-12.86-1.86-29.64-7.6-60.15-7-89.18-.44-35.94,8.19-71.76,17-105.5,27.73-84.24,26.72-167.06,54.86-250.87,82-40.11,13-81.71,24.55-128,28.65-30.72,2.72-61.08,2.34-86.75-10-16.61-8-25.37-18.81-33.95-29.71-5.17-6.55-10.1-13.18-15.74-19.6C32.28,687.52,17.53,679.74,0,673.51Z"/><path class="cls-3" d="M776.61.09,744.88,6.31C682.44,18.55,620.08,30.9,557.54,43c-25.42,4.91-51.6,8.61-76.71,13.94C461.64,61,442.3,65.66,425.34,72c-20.19,7.59-40.91,11.27-63.73,7.31-30.44-5.3-60.64-11.27-90.06-18.14-28.15-6.57-55.28-14.56-82.67-22.13-38.34-10.59-79.49-14-121.41-15.32C45,23,22.49,22.74,0,22.25V17.33c31.84,1.33,63.69,2.56,95.51,4,44.91,2.06,86,11.45,126.58,21.59,40.87,10.21,81.79,20.4,126,25.21,24.29,2.64,48.09,2.48,68-7.4,19.05-9.48,41.76-14.59,65.38-19q75.57-13.93,151-28.14c23.4-4.4,46.66-9,70-13.57Z"/><path class="cls-2" d="M534.63,203.45c5.23,1.29,10.86,2.22,15.63,3.93,45,16.1,90.62,14.68,136.79,1.75,41.54-11.63,75.29-29.09,109.82-46.06,35.56-17.48,71.1-35,108.25-51.4,37.4-16.46,81-26.11,128.19-28.5,57.19-2.89,109.35-13,156.13-31.45,42.52-16.79,84-34.39,126-51.63h8.72l-27.72,13.5a84.89,84.89,0,0,0-8.5,2.54c-26.74,11.29-53.11,22.86-80.11,34-49.35,20.27-101.95,36.06-164.51,39C986,91.7,936.08,105,893.52,126.47c-36.55,18.4-71.29,37.94-107.13,56.79-26.6,14-54.39,27.14-87.43,36.26-44.5,12.29-88,12.31-130.49-3-3.93-1.41-8.38-2.36-12.59-3.53Z"/><path class="cls-2" d="M603.7,256.12c-17.5-8.58-35.69-16.77-52.29-25.88C538.22,223,527,214.65,514.87,206.78c4.5,2,9.45,3.76,13.43,6.05,25.22,14.51,50.71,28.79,81.28,39.84,69.82,25.25,140.61,21.07,196.34-13.57,31.17-19.38,58.64-40.67,87.32-61.29,20-14.41,41.27-28.06,67.3-39.16,27.72-11.82,60.08-16.44,93.59-18.36a361.48,361.48,0,0,0,129.29-31.58c46-20.66,90.2-42.62,135.37-63.89,15.31-7.21,31.2-14,46.82-21V7.48c-10.15,4.64-20.56,9.12-30.39,14-42.1,20.75-83.61,41.88-126.12,62.36-49.73,24-104.2,42-171.9,44.8a216.15,216.15,0,0,0-85.32,21.33c-30,14.41-52,32.47-74.48,50.33C853.86,219,831.25,238,801.39,254c-46.22,24.63-103.94,29.77-160.65,13.69C628.15,264.07,616,260,603.7,256.12Z"/><path class="cls-3" d="M1365.61,349.73c-59.74-6.58-116.15-.46-170.77,13.72a407.87,407.87,0,0,0-128.34,57.87c-32,21.59-70.32,37.39-122,40.09a555.88,555.88,0,0,1-96.44-3.7c-58.24-7.11-116.12-15.2-174.48-21.95-41.65-4.82-84.28-9.14-126.37-3.07-30.78,4.43-60.84,11-90.17,18-44.15,10.55-87,22.84-131.13,33.41-31.68,7.59-65.21,11.84-100.06,9.45-46.12-3.18-76.92-19.1-100.3-40.29C107,436.38,90.79,418.62,71.35,402.07,53.31,386.72,28.8,374.71,0,365.73v-4.92c41.05,14.07,72.41,33.25,95.48,57,11.7,12,23.36,24.17,36.9,35.56,24.13,20.27,56,34.3,101.24,36.09a320.49,320.49,0,0,0,86.21-8.61c44.24-10.43,87.64-22,131.2-33.3,36.42-9.46,73.06-18.44,113.49-20.86,36.57-2.18,72.65.6,108.22,4.82,58.31,6.92,116.19,15,174.53,21.85a589.45,589.45,0,0,0,90.93,3.88c52.6-2,91.89-16.72,124.06-38.7,43.14-29.46,93.41-53.31,157.85-66.57,47.36-9.73,95.64-13.58,145.5-7.15Z"/><path class="cls-3" d="M0,161.37c38.85-8.11,77.27-17,116.69-24.09,32.74-5.9,66.45-10.27,100.12-14.28,26.49-3.15,51.89.92,76.22,7,52.31,13.14,92.91,34.81,131.61,57.79,19.27,11.44,37.57,23.4,56.93,34.79,39.2,23.07,76.18,47.47,121.86,66.77C633.16,302,664.85,312,702.81,314.2c39.14,2.26,72.86-4.66,102.92-18.49,31.5-14.5,52.78-33.69,76.25-51.93,19.62-15.24,39.3-30.5,60.37-45.1,23.16-16,53.42-26.33,89.21-31.23,11.3-1.54,22.57-3.21,34-4.4,46.29-4.81,84.47-18.79,119.68-35.13,45.71-21.22,89.42-43.79,134.34-65.55,14.79-7.17,30.66-13.63,46-20.42v3.69c-53.46,25.91-106.59,52-160.52,77.64-33.16,15.73-68,30.29-109,39.08a410.93,410.93,0,0,1-45.12,7c-53.62,5.37-93.84,22.12-125.64,46.15-26.52,20-51.39,40.82-79.28,60.23a259.14,259.14,0,0,1-55,29.47c-52.19,20-106.81,16.69-158.18-1a511.66,511.66,0,0,1-80.54-35.4c-51.87-28.69-100.42-59.3-152-88.2-22.28-12.5-47.81-23.3-73.22-33.83-46.56-19.27-98.45-25.18-153.93-15.11C115.17,142.24,57.72,153.9,0,165.06Z"/><path class="cls-3" d="M0,186c25.07-4.15,49.88-8.93,75.28-12.28,30-4,60.28-7.77,90.82-9.67a291,291,0,0,1,122.56,18.71c48.19,18.19,91.87,39.45,135.46,60.85,54,26.5,106.48,54.08,168.1,75.08,31.38,10.69,64.81,18.7,102.11,19.7,48.13,1.29,89.33-9.06,124-26.81,30.87-15.8,60-32.77,88.1-50.19,41.17-25.56,86.26-47.25,145.68-58.39,58.44-11,107.47-31.4,156-52.05,45.25-19.25,90.27-38.67,135.52-57.91,6.94-3,14.63-5.34,22-8V91.2c-23.4,9-47.26,17.56-70.1,27-45.23,18.58-89.76,37.7-134.83,56.4-37.13,15.42-77.87,27.09-121,36.11-38.11,8-71.31,20.21-99.78,36.52-31.09,17.82-60.81,36.47-93.35,53.4A456.53,456.53,0,0,1,775.84,330c-44.65,14.33-92.17,14.16-140,4.11a493.29,493.29,0,0,1-103.92-34.4C480.49,276.28,430.5,251.85,379,228.5c-33.1-15-67.48-29.13-102-43.11-39.43-16-84.34-18.63-131.18-15.73-45.45,2.82-88.77,10.49-132.16,18.08-4.48.78-9.11,1.3-13.67,1.94Z"/><path class="cls-3" d="M1365.61,314c-78.82-7.74-149.54,4.63-216.06,27.61A398.07,398.07,0,0,0,1076,376.13c-19.56,11.57-39,23.33-64.12,31.28-29,9.17-60.27,13.93-93.45,15.21C858,424.94,800.06,416.9,741.78,410q-54.88-6.56-110.14-12.07c-55.15-5.51-107.57.91-158.73,12.37-46.94,10.52-93.76,21.24-141.14,31.11a349.81,349.81,0,0,1-95.53,6.58c-42.43-3-75.23-15.66-101-34.29C122,404.13,109.62,394.21,98.07,384,73.34,362.22,40.58,345.59,0,333.72V330c39,10.74,71.41,25.73,96.12,46,14.8,12.16,29.55,24.44,46.3,35.73,45.56,30.69,105,38,170.67,27.76,45-7,88.46-17.32,132.23-26.72,37.4-8,74.49-16.49,114.57-19.35,30.55-2.19,61-1,91.11,2.21,54.61,5.85,108.92,12.61,163.59,18.24,41.53,4.27,83.4,6.38,125.7,2.6,45.48-4.06,83.44-15.86,116.5-33.6,24.72-13.26,48.42-27.48,75.9-38.67,59.79-24.35,126.8-38,201.79-36.44,10.42.22,20.76,1.64,31.13,2.5Z"/><path class="cls-2" d="M104.66,514.52c4.25,4.52,8.62,9,12.73,13.57,27,29.92,72.07,42.55,130.69,36.57,52-5.3,98.09-18.7,144-32.66,44.09-13.41,87.89-27.35,133.57-38.83,63.45-15.95,128.67-13.63,192,.91,41.33,9.49,81.08,21.16,121.88,31.42,23.19,5.84,46.61,11.59,70.72,16,54.46,10,103.21,3,146.23-17.84,41.8-20.2,85.81-38.5,135.36-52.42,54.89-15.41,111.17-27.49,173.77-26.72v6.16c-48.52-1.29-93.26,7-136.88,17.62-61.16,14.89-116.52,35-167.15,59.43C1040,538.17,1016.24,547,987.5,550.25c-36.58,4.12-71-.75-103.72-9.3-33.26-8.7-65.61-18.51-98.28-27.93-49.42-14.23-99.75-27-156.27-28.75-35.05-1.1-69.38,2.43-100.81,10.78C484.14,506.82,441,520,398,533.22,358,545.51,318.13,557.7,274.23,565c-24.21,4-48.73,6.41-74.16,4.15-32.27-2.88-56.88-12.27-73.13-28C118.25,532.64,112,523.4,104.66,514.52Z"/><path class="cls-3" d="M0,309.1c26.92,3.22,51.41,10.23,71.24,20.29,25.24,12.81,47.51,27.55,70,42,39.15,25.15,86.23,39.95,147.06,40.1,47.68.12,92.61-6.93,137.94-13.71,42.11-6.29,84.28-12.56,126.87-17.67,36.19-4.34,73-2.4,109.62-.36,75.45,4.19,150,13.54,226.48,11.79,65.41-1.5,124-12.7,173.28-37.65,38-19.22,76.83-37.62,123.84-49.7,50.87-13.08,103.37-21.89,159.9-21,6.48.1,12.93.85,19.4,1.3v3.69c-28.23.82-57,0-84.6,2.79-71.64,7.27-134.46,25.56-189.29,52.63-27,13.34-52.32,28-85.44,36.84-34.61,9.25-71,14-109.3,15.18-56.71,1.72-112.14-3.74-167.86-8.1-34.51-2.69-69.14-5.15-103.86-6.66-53.38-2.32-104.59,4.54-155.5,12.84-46,7.51-92.15,15.19-139,20.56-53.3,6.09-105.83,3.1-150.59-16.31a292.5,292.5,0,0,1-54.38-30.75c-31.23-22.54-66.07-42-114.34-52.41-3.71-.8-7.6-1.33-11.41-2Z"/><path class="cls-2" d="M0,208.15c32.84-3.41,65.49-7.62,98.56-10,55.86-4.09,108.6-.5,156.2,19.49q94.85,39.84,193,77.14c36.33,13.82,74.61,26.32,113.88,37.3,52.16,14.57,72.52,16.33,131,18.06-22,2.18-63-.8-97.52-6.88-55.64-9.82-106.81-25-155.17-42.94-67.42-25-133.64-51-199.87-76.94-30.87-12.1-64.59-18.2-101.84-19.13C91.26,203,45.56,207.63,0,213.08Z"/><path class="cls-2" d="M0,237.7c8.65-.38,17.32-1.2,26-1.07,29.73.47,59.57.5,89.12,2.14,32.17,1.79,60.66,9.83,86.12,20.85,54.93,23.79,112.42,45.22,175.47,61.6A1177.66,1177.66,0,0,0,598.93,357.1c-8.62-.43-17.24-.84-25.85-1.3-9-.49-18.09-.89-27.08-1.58-81-6.28-158.13-19.49-230.85-40.67-41.14-12-79.9-26.13-115.29-43C160.84,252,115.22,244,65.38,242.64c-21.74-.61-43.58,0-65.38,0Z"/><path class="cls-2" d="M0,268.48c65.94,4.86,124.86,18.51,173.44,44.71C227.56,342.37,293,357.5,366.09,363.42c60.73,4.92,121.71,4,182.71,2.49a188.93,188.93,0,0,1,19.59.5c-23.42.95-46.82,2-70.24,2.84-21.73.8-43.47,1.83-65.23,2.12-60.3.77-119.8-1.65-176.4-15-38.59-9.13-70.42-23.52-100.13-39.74-25.81-14.09-53.93-26.49-88.79-32.52-22.16-3.83-45-6.34-67.6-9.44Z"/><path class="cls-2" d="M1365.61,403.9c-40.16-3.76-78.94.37-116.93,7.18-67.65,12.14-126.51,32.56-177.21,60.68-21,11.64-43.41,22.49-70.92,29.2-36.8,9-74.94,8.06-112.3,2.61-40.38-5.89-80-13.52-119.75-20.72-40.83-7.4-81.61-14.71-124.39-17.89-42.46-3.16-84-1.81-124.59,6.23a31.6,31.6,0,0,1-7.26.72,315.69,315.69,0,0,1,75.54-11.16c52.29-1.08,102.36,5.66,152,14,49.41,8.32,98.58,17.18,148.49,24.41,37.88,5.49,76.94,6,113-4.16,18.9-5.31,36.4-12.73,52.58-20.49,30.1-14.45,57.08-30.9,91.22-42.72,52.72-18.23,108.28-31.84,170.58-34.68,16.52-.75,33.31.36,50,.61Z"/><path class="cls-2" d="M1365.61,238.93c-41.45,1.13-81,7.06-119.53,15.37-61.9,13.35-118.55,32-170.42,55.19-43.37,19.38-91.52,33.1-144.84,41.34C844.68,364.14,756.57,364.51,668.28,364c23.43-.59,46.87-1,70.28-1.79,83.48-2.68,165.27-9.89,243.2-28.09,44.15-10.32,81.94-26.2,120.48-41.64,70.22-28.14,145.82-50,231-59.9,10.62-1.24,21.58-1.52,32.38-2.25Z"/><path class="cls-2" d="M257.31,68.05,297,82.69l-1.37,1.44c-8.12-1.74-16.18-3.58-24.36-5.23-35.37-7.12-70.48-4.07-104.63,2.2C110.81,91.35,55.52,102.55,0,113.36V94.89c52.85-9,105.53-18.25,158.61-26.75C191.2,62.93,224.4,61.74,257.31,68.05Z"/><path class="cls-2" d="M130.89.09H464.66c-9.56,7.41-21.91,12.62-38.11,14.06-18.92,1.69-38.11,4.36-57,3.9C331,17.11,292.27,15.11,254,12.15,212.73,9,171.89,4.18,130.89.09Z"/><path class="cls-2" d="M1258.72.09C1244.49,5,1230.57,10.2,1216,14.71c-47.92,14.84-96.55,28.58-152.28,31.6-28.88,1.56-58,2.86-86.4,5.91C920,58.34,869.09,73.37,820,90.46c-48.53,16.9-96.2,34.61-145.24,51-41.43,13.86-85.65,24.29-133.75,28.63-26.26,2.37-49-3-72.33-9.73,1.93-.37,2.72-.69,3.13-.58,41.9,11.88,81.62,3.64,121.07-4.45,60.55-12.43,114.28-32.15,168.73-51.06,54.8-19,109.72-37.92,171.51-49.21a644.15,644.15,0,0,1,102.6-10.42c59.5-1.24,114-11.73,165.72-27.51,17.86-5.44,35.27-11.36,52.89-17.06Z"/><path class="cls-2" d="M702.44.09c-23.33,4.53-46.59,9.17-70,13.57Q557,27.85,481.46,41.8c-23.62,4.36-46.33,9.47-65.38,19-19.87,9.88-43.67,10-68,7.4-44.24-4.81-85.16-15-126-25.21C181.46,32.8,140.42,23.41,95.51,21.35c-31.82-1.46-63.67-2.69-95.51-4V16.1c34.33,1.47,68.72,2.6,103,4.49,40.19,2.23,77,11.21,114.68,18.72,40,8,80.38,15.31,121.22,21.65,26.19,4.07,53.46,3.87,75.06-7.48,22.94-12.06,50.93-17.52,79.83-22.7,51.87-9.3,103.38-19.24,155-28.94A49.77,49.77,0,0,0,654.45.09Z"/><path class="cls-2" d="M1145.28.09C1117.5,2.87,1089.7,8.1,1062,8,940.59,7.64,829,28.17,719.31,54.73c-82.77,20-166.93,38.23-250.26,57.53-36.15,8.36-69,3.16-101.23-6.41a61.63,61.63,0,0,1-13.13-5.18q15.72,3.93,31.44,7.87c23.53,5.94,46.35,5.53,70.58,0C568.23,83.21,679.79,57.9,792,33.6,867.34,17.31,945.18,6.75,1026.6,6.07c27.15-.23,54.27-2.1,81.36-3.46,5.26-.26,10.34-1.65,15.51-2.52Z"/><path class="cls-2" d="M1365.61,497.46c-19.52,2.19-39.53,3.46-58.46,6.73-53.24,9.19-101.49,24.54-148.21,41.22-37.74,13.47-74.4,27.94-111,42.41-47.55,18.82-95.46,17.82-142.46.45-26.64-9.85-51.09-21.6-76.37-32.61C813.58,548.9,798.3,542,783,535c-3.08-1.39-5.79-3-8.67-4.58,22,9,43.71,18.27,66,27,24.68,9.7,48.86,20,75.08,28.22,44.3,13.85,88.21,12,130.45-4.26,45.58-17.54,90.92-35.34,137.85-51.66,47.4-16.48,97.47-30.18,152.79-36.39,9.57-1.08,19.4-1.43,29.11-2.11Z"/><path class="cls-2" d="M1365.61,187.22c-31,6.28-62.83,11.58-93,19-63.16,15.62-119.39,38.17-177.82,58.52-93.07,32.42-190.27,60-294.66,79a57.59,57.59,0,0,1-12.93,1.27c2.7-.63,5.34-1.36,8.1-1.89,59.07-11.38,114.09-27.77,169-44.15,47.85-14.27,95.31-29,142-44.42,42.32-14,82.4-30.18,125.3-43.51,38.06-11.83,78.61-21.12,118.19-31.38,4.86-1.26,10.49-1.58,15.76-2.33Z"/><path class="cls-2" d="M1365.61,134.28c-20,5.74-40.88,10.73-59.95,17.36-65.3,22.7-129.53,46.38-195.05,68.87-40.64,14-84,25.45-124.1,39.83-42.89,15.37-83.38,32.88-125,49.37a376.68,376.68,0,0,1-40.68,13.91c6.34-2.53,12.89-4.93,19-7.63,28.91-12.77,58.15-25.3,86.4-38.52,38.65-18.08,83.23-30.57,126.07-44.87,77.86-26,153.8-53.8,230.77-80.65,27.18-9.48,55-18.36,82.55-27.51Z"/><path class="cls-2" d="M1365.61,541.78c-15.7,2.36-31.82,4.06-47,7.2-40.88,8.43-77.8,21.26-114.11,34.54-47.26,17.3-94,35-141.1,52.5-8.18,3-16.7,5.81-25.2,8.56-40.85,13.25-79.24,9.74-116.14-5.32-27.78-11.34-48.66-26.34-69.92-41.18-10-7-20.11-14-28.57-21.82,8.25,5.32,16.15,10.83,24.81,15.93,21.06,12.41,40.64,25.9,64.11,36.68,48.83,22.44,89.73,22.65,142.69,3.08,51.7-19.09,103-38.54,155.08-57.3,43-15.48,87.49-29.4,137.24-37,5.94-.9,12.08-1.38,18.13-2Z"/><path class="cls-3" d="M17.45.09c15.07,1.13,30.14,3.2,45.21,3.22,55.81.1,109.45,7.64,163.44,14.12C270.92,22.81,315.8,27.94,362,27.2c13-.22,26.26-.46,39-1.87s24.7-4.29,37.43-6.6C432.11,26.8,420.55,31.4,405.86,34a292.93,292.93,0,0,1-79.92,2.33C273.13,30.76,221,23.05,168.28,17.37,132.73,13.54,96.54,11.54,60.6,8.89,40.44,7.41,20.2,6.3,0,5V.09Z"/><path class="cls-2" d="M1365.61,582.41c-24.9,6-51.72,10.37-74.32,18.45-50.58,18.1-98.73,38.34-148.51,57.18-32.55,12.32-65.23,24.72-99.62,35.26-46.43,14.24-81.83,10.81-120.58-9.28-30.71-15.92-50.58-36.17-69-57,3,2.82,6,5.66,9.14,8.44,19.32,17.15,38.62,34.26,67.7,47,35.47,15.54,73.37,17.85,111.75,5,40.56-13.59,80.15-28.18,119-43.26,48.81-18.91,95.4-39.76,148.6-54.78,17.68-5,37.12-8,55.75-11.94Z"/><path class="cls-3" d="M1365.61,658.74c-32.91,6.59-62,17.06-89.22,29.07-45.44,20.06-89.73,40.94-135,61.14-14.19,6.33-30.14,11.39-44.81,17.41-12.23,5-25.53,5-41.83,2.53,1.89-.39,3.8-.75,5.66-1.18,44-10.15,80.42-26.81,116.36-43.8,47.85-22.62,94.67-46,149.38-63.47,12.58-4,26.27-6.91,39.44-10.32Z"/><path class="cls-2" d="M1365.61,621.8c-36.34,6.86-68.26,18.32-98.11,31.44-45.84,20.14-90.32,41.27-136,61.51-27.49,12.16-56.6,23.14-90.48,29-52,9.09-95.34,1.8-129.12-22.36-12.89-9.21-23.3-19.51-34.85-29.32l2.61-1c5.94,5.26,11.55,10.65,17.89,15.75a156.11,156.11,0,0,0,56.08,29.45c34.77,10,69.1,6.81,103.08-1.41,34.76-8.41,64.59-21.17,94-34.24,44-19.5,87.43-39.38,132.18-58.29a361.31,361.31,0,0,1,82.71-24.31Z"/><path class="cls-3" d="M861.64,250.05c-.5,1-.61,2.1-1.56,2.9-20.8,17.48-43.45,34-76.85,44.49-40.75,12.77-82.69,12.52-124.86,2.36a317.62,317.62,0,0,1-86-34.18c-41.43-24.14-81.35-49.1-121.54-73.91-33.61-20.75-67.3-41.32-108.2-57.8-53.51-21.56-111-26.56-172.57-14-57,11.68-113.42,24.29-170.1,36.49V154c32.7-7.41,65.21-15.09,98.16-22.13,27.16-5.81,54.69-11.12,82.33-16.16,60.74-11.08,115.81-4.18,166.86,16.74,43.94,18,79.41,40.73,115.38,63.31,44.17,27.73,85.83,56.84,137.22,80.65,24.34,11.29,50.47,20.93,81.45,25.33,56.73,8.06,103.93-1.54,142.46-25.61C837.18,267.79,849.09,258.76,861.64,250.05Z"/><path class="cls-2" d="M416.94,146.57c-8.1-4.31-16.17-8.63-24.31-12.91q-17-8.94-34-17.81c-4.62-2.29-9-4.76-13.88-6.83C296.35,88.63,243.69,79.88,184.24,91q-52.14,9.72-103.93,20c-27,5.42-53.55,11.41-80.31,17.14V122c57.46-11.53,114.69-23.44,172.45-34.46,42.22-8.06,85.21-9.75,125.78,2.91a604.14,604.14,0,0,1,64,24.21c17.08,7.54,31.9,16.71,47.39,25.35C412.8,141.75,414.54,144.35,416.94,146.57Z"/><path class="cls-3" d="M603.7,256.12c12.33,3.85,24.45,7.95,37,11.52,56.71,16.08,114.43,10.94,160.65-13.69,29.86-15.91,52.47-35,76-53.69,22.48-17.86,44.44-35.92,74.48-50.33a216.15,216.15,0,0,1,85.32-21.33c67.7-2.79,122.17-20.85,171.9-44.8,42.51-20.48,84-41.61,126.12-62.36,9.83-4.84,20.24-9.32,30.39-14V9.94q-56.49,28-113,55.91c-38.35,18.87-77,37.47-122.16,51.24-26.85,8.18-56.06,11.26-85.68,13.15-55.85,3.55-97.43,20-129.94,44.77-28.13,21.39-54.54,43.51-83.29,64.63a198.67,198.67,0,0,1-78.42,35.14c-44.64,9.45-86.46,5-126-8.79C618.85,263.12,611.48,259.43,603.7,256.12Z"/><path class="cls-3" d="M654.45.09a49.77,49.77,0,0,1-5.67,1.75c-51.64,9.7-103.15,19.64-155,28.94-28.9,5.18-56.89,10.64-79.83,22.7C392.33,64.83,365.06,65,338.87,61,298,54.62,257.6,47.28,217.65,39.31,180,31.8,143.16,22.82,103,20.59c-34.25-1.89-68.64-3-103-4.49V13.64C36.12,15.36,72.36,16.51,108.31,19,150.46,21.86,189.59,31.05,229,39.39c38.8,8.2,77.85,15.75,119.23,18.91,25.9,2,49.51-.18,68.79-10.61,20.72-11.22,46.62-16.1,73-20.89C537.73,18.14,585.13,9,632.63.09Z"/><path class="cls-2" d="M0,66.57C46.15,61.12,92.23,55.46,138.48,50.3c26.29-2.93,52.66-3,78.33,2.37,2.38.5,4.72,1,7.07,1.58a5.3,5.3,0,0,1,2.43,1C153.08,50.49,87.39,67.64,19,76.27,12.65,77.08,6.34,78,0,78.88Z"/><path class="cls-3" d="M757.29,328.77c-25,6.93-51.51,6.69-77.74,4.05-48.71-4.9-89.26-19.56-126.19-37.13C512,276,472.09,255.39,432.13,234.8c-45.08-23.22-90.11-46.27-141.79-65.06-45-16.37-92.89-18.52-143.38-13.63C96.2,161,48.27,171.4,0,181.07V178.6c35.49-6.63,70.72-13.77,106.55-19.74,32.74-5.47,66.23-8.57,100.83-7.87,32.55.66,60.52,7.74,87.42,17,41.4,14.3,77.64,32.27,113.43,50.61,51.85,26.56,103.08,53.54,156.29,79.2,35,16.89,74.78,30.25,121.71,33.54,18.7,1.31,38.13-.62,57.21-1.23C748.09,330,752.68,329.25,757.29,328.77Z"/><path class="cls-2" d="M305.42,719.07c-29.38,10.86-61.36,18.46-95.08,23.75-19,3-38.4,4.45-58.13,2.26C130.15,742.63,113,736,103.5,724.54a183,183,0,0,1-20.31-29.76C69.82,670,41.53,653.06,0,642.73v-6.15c45.72,10.62,76.22,29.2,91,55.84,3.24,5.85,5.21,11.92,8,17.86,11.32,24.18,45.6,36.65,89.6,33,33.87-2.8,64.93-9.95,95.17-18.58,7.1-2,14.44-3.78,21.67-5.65Z"/><path class="cls-3" d="M1365.61,687.05c-18.38,5.68-38.42,10.14-54.81,17.28-44.53,19.39-87.47,39.94-131.13,60-7.06,3.24-13.14,8-25.33,5.89,1-1,1.38-2,2.5-2.49,46.32-21.44,91.91-43.42,139.45-64,21.07-9.11,46.09-15.31,69.32-22.83Z"/><path class="cls-3" d="M1365.61,667.36c-62.57,15-112.61,40.18-164.46,63.95q-39.32,18-79.38,35.5c-5.11,2.22-12,3.11-18.15,4.62l-1.8-2.11c11.09-4.45,22.61-8.6,33.2-13.4,39.37-17.82,78.22-36,117.68-53.75,31.57-14.2,64.06-27.69,101.51-36.74,3.59-.86,7.59-1.19,11.4-1.77Z"/><path class="cls-3" d="M130.89.09C171.89,4.18,212.73,9,254,12.15c38.32,3,77,5,115.63,5.9,18.86.46,38.05-2.21,57-3.9C442.75,12.71,455.1,7.5,464.66.09H493c-31.43,7.64-60.46,18.58-95.84,20.69a681.7,681.7,0,0,1-99.69-1.58C242.31,14.41,187.39,8.68,132.31,3.49c-14.93-1.4-30-2.28-45-3.4Z"/><path class="cls-3" d="M1365.61,74q-76.77,33.86-153.56,67.7c-50.88,22.36-103.21,43.23-166.28,53.69-52.52,8.71-92.18,27.87-126.78,50.94-4.2,2.8-9.14,5.24-13.74,7.86,5.21-4.1,9.94-8.43,15.69-12.28,34.64-23.15,75.53-41.29,128.07-49.76,62.2-10,113.14-31.07,162.94-53.15,46.22-20.49,92-41.28,138.11-61.86,4.79-2.15,10.35-3.75,15.55-5.6Z"/><path class="cls-2" d="M0,42q40.13-2.1,80.24-4.2c26.42-1.36,52.86-2.52,79.14.78a130.56,130.56,0,0,1,13.07,2.37C113.85,39.52,57.19,47,0,51.8Z"/><path class="cls-2" d="M0,86.27c30.72-4.86,61.33-10,92.19-14.52C121,67.51,149.72,63,179,60.18c25.08-2.44,50.7-2.17,74.17,5.19a270.49,270.49,0,0,0-84.86-.43C112.07,73.88,56.08,83.24,0,92.43Z"/><path class="cls-2" d="M0,685.82c10.28,6.75,21.9,13,30.46,20.4,8.28,7.13,13.59,15.38,19.86,23.23C68,751.58,99,762.27,141.26,763.35c2.11.06,4.23,0,6.34.22-41.49,3.94-81.53-7.41-101.55-28.4-11.34-11.89-22.77-23.76-34.71-35.46-2.6-2.55-7.5-4.36-11.34-6.5Z"/><path class="cls-3" d="M0,128.13C26.76,122.4,53.35,116.41,80.31,111Q132,100.6,184.24,91C243.69,79.88,296.35,88.63,344.75,109c4.9,2.07,9.26,4.54,13.88,6.83-3.48-1-7.23-1.79-10.4-3C322.5,102.7,296,93.51,264.61,90.06c-30.76-3.39-61-.82-89.94,4.88-52.34,10.31-104.12,21.53-156.16,32.32-6.08,1.26-12.34,2.23-18.51,3.33Z"/><path class="cls-3" d="M1365.61,692c-46.14,12.31-84.56,30.77-122.92,49.26-18.19,8.77-36.08,17.74-54.22,26.55-2.58,1.25-5.82,2.06-10,3.49,5.46-10.68,141.61-70.5,187.09-83Z"/><path class="cls-3" d="M0,584.87c28.79,7.41,55.23,16.72,74,31.48,7.4,5.83,12.56,12.56,17.43,19-13.72-8.81-25.9-18.65-41.61-26.13-14.65-7-33-11.44-49.79-17Z"/><path class="cls-3" d="M1365.61,703.06c-56.53,18.13-102,44.23-150.71,68l-2.12-1c.55-.78.71-1.8,1.71-2.31,44.21-22.5,87.1-45.93,138.64-63.32,4-1.36,8.32-2.51,12.48-3.76Z"/><path class="cls-3" d="M0,92.43c56.08-9.19,112.07-18.55,168.27-27.49a270.49,270.49,0,0,1,84.86.43l4.18,2.68c-32.91-6.31-66.11-5.12-98.7.09C105.53,76.64,52.85,85.93,0,94.89Z"/><path class="cls-2" d="M0,403.9C44.3,418.5,77.22,438.78,96,466c-1.66-1.66-3.42-3.28-5-5-19.17-21.25-48.11-37.34-83.2-50.16-2.39-.87-5.21-1.37-7.83-2Z"/><path class="cls-2" d="M93.91,539.35C82.29,526.16,70.31,513,49.33,503.67c-15.83-7-32.84-13.2-49.33-19.75V479c40.23,12.88,73.53,29.45,90.75,54.53A60.06,60.06,0,0,1,93.91,539.35Z"/><path class="cls-2" d="M0,440.83c25.86,9,50.58,19,67.85,33.25,11.14,9.21,19,19.68,28.35,29.59-12-10.41-22.73-21.35-36.22-31.09-15.95-11.51-37-20-60-26.82Z"/><path class="cls-2" d="M0,517.16c38.91,10.31,68.63,25.8,85.9,48.29-17.52-17.31-42.81-30.18-73.05-40.17-4-1.32-8.55-2.14-12.85-3.2Z"/><path class="cls-3" d="M1365.61,719.06c-30,6.18-50,19.83-73.09,31.16-10.64,5.22-20.14,11.19-30.25,16.77a24.57,24.57,0,0,1-9.62,3c.52-.78.67-1.78,1.63-2.32,32.41-18.15,65-36.19,102.84-50.87,2.67-1,5.65-1.81,8.49-2.71Z"/><path class="cls-2" d="M0,554.09c35,7.46,71.12,26.25,83.13,43.72C62.78,579.8,35.5,566.57,0,559Z"/><path class="cls-3" d="M0,743.68C16,756.42,36.1,766,66.75,769.17,47,772.79,27.68,767.87,0,753.53Z"/><path class="cls-3" d="M1365.61,737.53q-27.37,14.31-54.77,28.6a38.19,38.19,0,0,1-11.78,4.19c18.93-14.5,41.63-26.74,66.55-37.72Z"/><path class="cls-2" d="M0,33.33l99-1.08c3.88,0,7.76,0,11.57.25L0,37Z"/><path class="cls-3" d="M1365.61,33.33Q1329.54,51,1293.43,68.54c-4,1.95-8.54,3.6-12.83,5.39,17.07-9.31,33.8-18.84,51.33-27.87,10.59-5.45,22.41-10.15,33.68-15.19Z"/><path class="cls-2" d="M0,58l88.55-8.7.22.67L0,60.42Z"/><path class="cls-3" d="M1365.61,760.92c-5,2.34-9.85,4.78-15,7-2.93,1.25-6.4,2.1-9.63,3.12l-3.06-2.35,27.72-13.91Z"/><path class="cls-3" d="M1365.61,749.84,1329,769.59l-2.63-1.56,39.26-19.42Z"/><path class="cls-3" d="M860.48,769.81c-10.42,2.34-13.32-1.18-17.06-4.68-17.78-16.66-34.4-33.81-54.36-49.6-18.12-14.34-41.35-27.08-74.49-28.43-20.84-.84-43.8,0-63,4.23-52.1,11.36-103.25,24.24-153.75,37.74-45.3,12.11-89.34,25.73-133.67,38.95-11.06,3.3-22,2.93-35.88,2.48,3.22-1.58,4.49-2.52,6.16-3,87.84-24.65,175.45-49.56,263.7-73.72a512.65,512.65,0,0,1,105.35-17.06,130.55,130.55,0,0,1,56.42,8.63c29.53,11.56,48.4,28.15,65.83,45.26C837.3,742,847.37,753.84,858,765.51,859.12,766.72,859.54,768.12,860.48,769.81Z"/><path class="cls-3" d="M797.64,769.82c-17.39,1.81-29.16,1.59-39.92-5.19-22.54-14.21-49.64-24.93-84.1-27.53-31.53-2.38-61.52,2.36-90.24,9.06-27.85,6.49-55,14-82.31,21.18-13.72,3.63-30.07,4.75-48.5,2.37,4.27-1.63,7.12-3.05,10.42-3.92,45.7-12.13,91-24.78,137.37-36,28.15-6.84,58.27-10.62,89.45-7.61,34.16,3.3,58.82,15.37,81.16,29.2C779.87,756.84,787.72,762.9,797.64,769.82Z"/><path class="cls-3" d="M729.64,769.92c-19.32,0-38.08,1.93-55-.41-31-4.31-60.79-3.41-91.6-.09-18.43,2-37.77,1.32-57,.55,39.49-12.18,80.64-20.11,126-19.06C677.81,751.5,714.75,760.28,729.64,769.92Z"/><path class="cls-3" d="M292.65,769.31c2.33-.83,4.55-1.78,7-2.48,71.54-20.62,142.51-41.9,214.86-61.58,47.7-13,97.09-24,146.32-35.1,15.63-3.51,33.07-4.73,49.9-6.23,27.12-2.41,51.25,2.49,69.3,13.61,17.29,10.66,33.67,22.2,46.45,34.66,17.06,16.64,30.28,34.53,45.06,51.91,1.3,1.53,1.94,3.25.48,5.45-5.8-6.93-11.62-13.85-17.39-20.78-17.8-21.37-35.78-42.7-63.46-60.77-17.32-11.31-37.66-21-65.2-21a310.07,310.07,0,0,0-59.87,5.44c-41.7,8.34-83.33,17.24-123.1,28.1C463.52,722.22,385.32,745.42,306.56,768c-4,1.16-8.37,2-12.57,2.95Z"/><path class="cls-3" d="M541.4,673.76l-92.66,26.67-1.19-1.17a31.66,31.66,0,0,1,3.9-1.64Q492.39,686,533.4,674.5a72.43,72.43,0,0,1,7.27-1.23Z"/><path class="cls-3" d="M234.08,760.72l85.24-24.06,1.32,1.49L235.4,762.21Z"/><path class="cls-3" d="M593.67,660.2l-52.28,13.56-.72-.49L593,659.7Z"/><path class="cls-2" d="M717.53,625.46l3.7-4.79,27.43,1.57-15.92,2.12Z"/><path class="cls-3" d="M342.53,729.55l39.89-11.38,1.37,1.5-39.87,11.4Z"/><path class="cls-3" d="M1327.81,747.36l-27.5,15.88.09.06L1329,747.9Z"/><path class="cls-3" d="M480.26,678.77l15.53-5,1.42,2.09.44.31,2,1.11-.11,0-4.35,1.27.07,0-4.41,1.23.07.05-2-1.13-.42-.24a7.39,7.39,0,0,1,.14-1.14l.07,0-4.41,1.21h0Z"/><path class="cls-3" d="M505.6,673.23c.95.52,1.89,1,2.83,1.58L503.89,676l.08,0-4.45,1.23.11,0-2-1.11-.44-.31,2.38-2.32-.06,0Z"/><path class="cls-3" d="M490.83,679.65l-4.4,1.25-2.08-1.1-.33-.09c.1-.42.19-.85.28-1.28h0l4.2-.11.41.23,2,1.14Z"/><path class="cls-2" d="M449.44,689.51l2.14-1.21,0,0-.3,1.3C450.64,689.54,450,689.53,449.44,689.51Z"/><path class="cls-2" d="M484.3,678.43c-.09.43-.18.86-.28,1.28l-1.81-.06h-2.29l0,0a6.45,6.45,0,0,0,.3-.91Z"/><path class="cls-2" d="M484.35,679.8l2.08,1.1Z"/><path class="cls-2" d="M451.65,689.68c.6,0,1.19.05,1.78.1l-.91.07Z"/><path class="cls-3" d="M1201.93,113.39c-5.84,3-11.33,6.27-17.58,9-39.36,17.08-81.41,30.66-132.28,33.56-62,3.52-105.27,23.5-138.61,51.7-13.7,11.58-27.06,23.3-40.8,34.87-3.17,2.67-7.26,5-10.92,7.46,8.35-7.86,16-16,25.21-23.51,17.17-13.91,34.2-28,53.32-41,26.78-18.28,62.39-28.84,104.08-31.22A388.27,388.27,0,0,0,1186.58,119C1191.28,116.82,1196.79,115.23,1201.93,113.39Z"/><path class="cls-3" d="M1249.93,90l-47.86,23.34Z"/><path class="cls-3" d="M1280.47,74l-30.41,15.94Z"/><path class="cls-2" d="M305.4,719.06c21.5-7.61,42.77-15.42,64.53-22.78,71.64-24.22,143.22-48.51,215.34-72.29,32.1-10.58,66.13-18.82,103.76-21.2a162.94,162.94,0,0,1,53.78,5.36c-63.72-9.71-117.66,5.27-169.76,22.26-83.63,27.27-166.11,55.66-249.14,83.51-5.89,2-12.31,3.44-18.49,5.15Z"/><path class="cls-2" d="M656.7,626.28,534.06,660.53l-1.38-1.59L655.6,624.78Z"/><path class="cls-2" d="M499.59,673.5l-2.38,2.32-1.42-2.09Z"/><path class="cls-2" d="M505.6,673.23l-6.07.29Z"/><path class="cls-2" d="M451.58,688.3l.78-.39-.82.36Z"/><path class="cls-2" d="M479.92,679.65l-.78.38.82-.35Z"/><path class="cls-2" d="M108.38,638.87c14.3,19.65,39.16,31.9,77.06,31.71,21.68-.11,44-3.08,64.8-7,50.74-9.5,95.08-26.35,140.74-41.56,64.77-21.59,129.06-43.64,194.08-65,25.48-8.36,52.7-14.91,82.46-17,34.07-2.39,63.31,3.82,88.39,16.8-4.7-1.72-9.3-3.53-14.1-5.16-32.14-10.89-66.59-12.23-100.74-5A797.12,797.12,0,0,0,557.49,569C478.12,595.18,400,622.53,320.86,649c-33.84,11.33-69.3,21-108.54,24.91-26.4,2.65-52.22,2.4-74.61-7.79C122.13,659,114.26,649.27,108.38,638.87Z"/><path class="cls-2" d="M112.45,687.16c9,4.9,18.2,11.36,29.77,15.86,18.15,7.07,39.62,6.31,60.19,4.35,44.16-4.2,83.19-15.83,120.89-28.68,64.37-22,127.59-45,192.3-66.61,39.93-13.34,80.88-25.93,123-36.92,33.47-8.73,69.37-10.64,104.15-.29a48.29,48.29,0,0,1,9.37,3.77c-59.86-14.93-113.24-3-163.62,13.66-88.39,29.22-175.14,60-263,89.79-38.68,13.11-78.42,25.32-123.61,29.79a210.68,210.68,0,0,1-37.92.4C137.07,710,120.18,700.5,112.45,687.16Z"/><path class="cls-2" d="M104.74,474.74c5.85,6.09,11.4,12.28,17.59,18.26C157.08,526.58,205,539.22,272,529.81c34.26-4.81,66.82-13.45,100.13-20.4a82.18,82.18,0,0,1,10.82-2c-52,14.94-104.09,30.3-165.19,27.91-33.72-1.32-61.41-10.15-80.68-25.79-13.18-10.69-23.68-22.43-35.38-33.7Z"/><path class="cls-3" d="M555.88,213c4.21,1.17,8.66,2.12,12.59,3.53,42.51,15.27,86,15.25,130.49,3,33-9.12,60.83-22.26,87.43-36.26,35.84-18.85,70.58-38.39,107.13-56.79C936.08,105,986,91.7,1043.32,89c62.56-2.9,115.16-18.69,164.51-39,27-11.09,53.37-22.66,80.11-33.95a84.89,84.89,0,0,1,8.5-2.54c-18.86,8.65-36.84,18-56.78,25.77q-50.58,19.72-103.28,37.69c-30.58,10.36-65.83,12.87-100.44,15.15-59.4,3.91-108.08,19.68-150.84,42-36.79,19.22-72.16,39.31-108.65,58.72C749.31,207.37,719.37,219.53,684,227c-45.63,9.65-86.3,3.24-124.55-11.69A18.35,18.35,0,0,1,555.88,213Z"/><path class="cls-2" d="M698.25,523.07c-54-7.68-100.32,4.5-145,18.68-65.2,20.72-129.15,42.7-194.09,63.69-42.88,13.86-86.12,27.47-135.57,32.86-29.7,3.23-57.95,2.53-82.75-8.7-17.35-7.86-25.71-18.83-32-30.47,5.22,5.32,9.64,11,15.8,15.9,21.87,17.57,53.29,22.5,89.21,19.91,39.91-2.87,76.51-11.61,111.12-22.63,72.78-23.16,144.76-47.12,217.4-70.42,33.24-10.66,67.4-20.64,106.36-22.45,16.29-.76,32.91.65,49.37,1.07Z"/><path class="cls-2" d="M674.68,503.65c-59.29-5.56-110.53,7.21-160.44,22.66-63.64,19.7-126.73,40-190.69,59.33-33.37,10.1-68.67,17.67-107.16,19.27-35.5,1.48-65.83-4.39-86.57-21.1-9.8-7.89-15.45-17.43-23-26.22,8.62,8,15.69,16.8,26.15,24,27.83,19.09,65.15,22.16,105.81,17.67,42.21-4.67,80.73-14.83,117.77-26.64,52.12-16.62,103-34.5,155.39-50.83,43.36-13.51,89.57-22.53,140.38-20.42C659.84,501.66,667.23,502.86,674.68,503.65Z"/><path class="cls-2" d="M488.47,678.33l-4.2.11,4.41-1.21-.07,0A7.39,7.39,0,0,0,488.47,678.33Z"/><path class="cls-2" d="M490.9,679.7l-2-1.14Z"/><path class="cls-2" d="M495.24,678.42l-.07,0Z"/><path class="cls-2" d="M497.65,676.13l2,1.11Z"/><path class="cls-2" d="M488.68,677.23l-.07,0Z"/><path class="cls-2" d="M504,676l-.08,0Z"/></g></g></g></svg>