<svg xmlns="http://www.w3.org/2000/svg" viewBox="0 0 80.24 78.26"><defs><style>.cls-1{fill:#003338;}</style></defs><g id="Layer_2" data-name="Layer 2"><g id="Layer_1-2" data-name="Layer 1"><g id="Dgu425.tif"><path class="cls-1" d="M80.24,41.21c0,.4-.06.8-.08,1.19a38.28,38.28,0,0,1-.7,5.55A39.62,39.62,0,0,1,74.25,61.2,40,40,0,0,1,60.88,74.47,38.54,38.54,0,0,1,53,78.12a2.5,2.5,0,0,1-1.62,0,1.85,1.85,0,0,1-1.27-1.83c0-.85,0-1.71,0-2.57,0-3,.05-6.07,0-9.1a10.33,10.33,0,0,0-1.29-5.07,6.37,6.37,0,0,0-1.26-1.62l-.15-.11.93-.12a28,28,0,0,0,7.64-2,15.06,15.06,0,0,0,8.75-10A21.53,21.53,0,0,0,65.66,41c.08-1.17.14-2.36.11-3.54a15.19,15.19,0,0,0-3.89-9.95.44.44,0,0,1-.1-.51,12.89,12.89,0,0,0,.68-5.23,16.46,16.46,0,0,0-1.1-4.94.32.32,0,0,0-.28-.23,6.54,6.54,0,0,0-2.29.12,17.8,17.8,0,0,0-5.08,1.94c-1.11.62-2.18,1.3-3.26,2a.53.53,0,0,1-.44.07,34.85,34.85,0,0,0-5.64-1.07,38.87,38.87,0,0,0-6.1-.18,36.27,36.27,0,0,0-7.89,1.26A.39.39,0,0,1,30,20.6a31.28,31.28,0,0,0-5.5-3,13.14,13.14,0,0,0-3.74-1,10.44,10.44,0,0,0-1.48,0,.3.3,0,0,0-.19.16A15.57,15.57,0,0,0,18,23.81,11.79,11.79,0,0,0,18.66,27a.38.38,0,0,1-.08.45,15.26,15.26,0,0,0-3.32,6,17.66,17.66,0,0,0-.62,5.17,26.28,26.28,0,0,0,1.22,7.82A15.24,15.24,0,0,0,20,52.93a16.52,16.52,0,0,0,5.38,3.21,27.15,27.15,0,0,0,5.56,1.41l1.9.28s0,0,0,.05A7.9,7.9,0,0,0,30.57,62c-.09.35-.14.71-.22,1.07a.29.29,0,0,1-.13.19,10.63,10.63,0,0,1-5.21,1,7.46,7.46,0,0,1-5.15-2.67A15.75,15.75,0,0,1,18.73,60a10.28,10.28,0,0,0-3.31-3.38,5.37,5.37,0,0,0-4-.73A1.94,1.94,0,0,0,11,56a.56.56,0,0,0-.27.78,2.57,2.57,0,0,0,.77.9,6.58,6.58,0,0,0,.88.61A6,6,0,0,1,14.2,60a18.53,18.53,0,0,1,2.58,4.43,7.11,7.11,0,0,0,4.51,4.17,13.68,13.68,0,0,0,4.88.65,25.94,25.94,0,0,0,3.73-.4,1.43,1.43,0,0,1,.23,0V69q0,3.57.05,7.13a2.52,2.52,0,0,1-.17.94,1.84,1.84,0,0,1-1.76,1.15,3.81,3.81,0,0,1-1.59-.33A40.05,40.05,0,0,1,10.74,67.43,39.56,39.56,0,0,1,1.65,51.54,37.09,37.09,0,0,1,.24,44.39c-.1-1-.14-1.94-.21-2.91a2.08,2.08,0,0,0,0-.23V38.94a1.9,1.9,0,0,0,0-.25,39.8,39.8,0,0,1,8.74-23.6A39.93,39.93,0,0,1,21.43,4.61,39.2,39.2,0,0,1,32.67.7,40,40,0,0,1,37.79.07L38.94,0h2.35l.23,0c.82.06,1.65.09,2.46.16a36.88,36.88,0,0,1,6.51,1.17A39.78,39.78,0,0,1,71.85,15.58a39.74,39.74,0,0,1,8.31,22.23c0,.39,0,.78.08,1.17Z"/></g></g></g></svg>