<svg xmlns="http://www.w3.org/2000/svg" viewBox="0 0 79.72 79.72"><defs><style>.cls-1{fill:#5a9e9a;}</style></defs><g id="Layer_2" data-name="Layer 2"><g id="Layer_1-2" data-name="Layer 1"><g id="fYYa8u.tif"><path class="cls-1" d="M42.6,79.72H37.12c-1.15-.15-2.31-.25-3.44-.46-16.11-3.11-26.86-12.4-32-28A71,71,0,0,1,0,42.61V37.12C.15,36,.28,34.84.46,33.7A39.87,39.87,0,1,1,50.55,78.23C48,79,45.25,79.23,42.6,79.72ZM42.9,32H34.81V58.52h8.43V57.3c0-3.86,0-7.73,0-11.59a15.84,15.84,0,0,1,.25-2.83c.53-2.68,2.3-4,5.2-3.82,2.32.1,3.61,1.42,4,4.08a5.93,5.93,0,0,1,.06.84c0,4.46,0,8.92.06,13.38v1.15h8.55c0-1.77,0-3.45,0-5.13-.06-4.18,0-8.37-.23-12.54C61,37.9,60,35.17,57.34,33.44a11.88,11.88,0,0,0-12.19.37c-.83.61-1.6,1.31-2.25,1.85ZM28.74,58.54V32H20v26.5ZM24.33,29a4.42,4.42,0,0,0,4.47-4.36,4.44,4.44,0,1,0-8.87-.06A4.4,4.4,0,0,0,24.33,29Z"/></g></g></g></svg>