<svg xmlns="http://www.w3.org/2000/svg" viewBox="0 0 24.37 24.27"><defs><style>.cls-1{fill:#5a9e9a;}</style></defs><g id="Layer_2" data-name="Layer 2"><g id="Layer_1-2" data-name="Layer 1"><path class="cls-1" d="M13.3,24.27H11.07a2.46,2.46,0,0,0-.34-.09,12.17,12.17,0,0,1-10.33-9c-.16-.65-.27-1.31-.4-2V11c.06-.32.13-.65.19-1A12.18,12.18,0,0,1,24,9.05c.17.65.28,1.32.41,2v2.23a2.74,2.74,0,0,0-.09.39,12.17,12.17,0,0,1-9,10.22C14.66,24,14,24.13,13.3,24.27Zm-.74-10.8c-.91-2-1.82-3.82-2.59-5.72A1.63,1.63,0,0,0,8,6.49a24.21,24.21,0,0,1-2.84,0,3.38,3.38,0,0,0,.3.5c.32.4.67.76,1,1.18a1.74,1.74,0,0,1,.32.86c0,1.38-.09,2.77,0,4.14a4.42,4.42,0,0,1-1.47,4,2.15,2.15,0,0,0-.3.46H9.45c-.57-.68-1.07-1.25-1.52-1.85a1.47,1.47,0,0,1-.3-.82c0-1.58,0-3.16,0-4.75,0-.11,0-.22.06-.47,1.17,2.54,2.28,5,3.4,7.37a3.17,3.17,0,0,0,.46.58,2.45,2.45,0,0,0,.45-.58c.92-2.29,1.83-4.6,2.74-6.9,0-.1.1-.2.15-.3.07,1.8,0,3.57.09,5.33a1.87,1.87,0,0,1-.77,1.78,4.78,4.78,0,0,0-.6.64h5.67l0-.12c-.27-.26-.52-.55-.81-.79a1.28,1.28,0,0,1-.48-1.1c0-2.14.06-4.28,0-6.41A2.26,2.26,0,0,1,19,7.06a3,3,0,0,0,.43-.5,4.12,4.12,0,0,0-.51,0c-1,0-2.06,0-3.1,0a.52.52,0,0,0-.58.41c-.56,1.42-1.14,2.84-1.71,4.26C13.2,11.91,12.9,12.64,12.56,13.47Z"/></g></g></svg>