<svg xmlns="http://www.w3.org/2000/svg" viewBox="0 0 80.5 79.41"><defs><style>.cls-1{fill:#5a9e9a;}</style></defs><g id="Layer_2" data-name="Layer 2"><g id="Layer_1-2" data-name="Layer 1"><path class="cls-1" d="M40.79,0H39.7A39.71,39.71,0,0,0,0,39.7H0A39.71,39.71,0,0,0,39.7,79.41h1.09A39.71,39.71,0,0,0,80.5,39.7h0A39.71,39.71,0,0,0,40.79,0ZM22.68,47.33c0,.61-.14.83-.94.74a13,13,0,0,0-2.79,0c-.75.08-.9-.13-.9-.73,0-3.94,0-7.87,0-11.81v-.85H13.69v.76c0,3.93,0,7.86,0,11.8,0,.63-.13.87-.82.85-2.5,0-5,0-7.5,0-.57,0-.79-.13-.78-.75q0-8.28,0-16.57c0-.55.12-.74.72-.74q8.31,0,16.62,0c.58,0,.73.18.73.74Q22.65,39.05,22.68,47.33Zm21.6.76c-2.45,0-4.91,0-7.36,0h-.81c0,1.36,0,2.62,0,3.87,0,.39-.07.6-.53.6-2.72,0-5.44,0-8.15,0a2.4,2.4,0,0,1-.38-.06c0-.26,0-.51,0-.76,0-7,0-13.91,0-20.87,0-.66.19-.83.84-.82,5.48,0,11,0,16.43,0H45c0,.3,0,.53,0,.76,0,5.5,0,11,0,16.5C45.1,47.94,44.9,48.1,44.28,48.09Zm31.35,0c-1-.05-2,0-2.94,0s-.84,0-.84-.88V34.68H67.51v.85c0,3.91,0,7.82,0,11.73,0,.68-.2.86-.85.83-1-.05-1.91,0-2.87,0s-.89,0-.89-.88c0-3.91,0-7.82,0-11.73,0-.26,0-.51,0-.8H58.54v.77c0,4,0,7.91,0,11.87,0,.58-.14.79-.76.78q-3.84,0-7.69,0c-.5,0-.68-.14-.68-.66,0-5.58,0-11.17,0-16.75A5.5,5.5,0,0,1,49.5,30H75.61c.84,0,.84,0,.84.86,0,5.45,0,10.91,0,16.36C76.47,47.93,76.28,48.13,75.63,48.09Z"/><path class="cls-1" d="M40.49,35.24c0-.19,0-.37-.05-.54H36.15v8.77c1.26,0,2.49,0,3.72,0,.48,0,.63-.13.63-.62C40.48,40.32,40.49,37.78,40.49,35.24Z"/></g></g></svg>