<svg xmlns="http://www.w3.org/2000/svg" viewBox="0 0 1365.61 177.93"><defs><style>.cls-1{fill:#69a5a4;opacity:0.51;}</style></defs><g id="Layer_2" data-name="Layer 2"><g id="Layer_1-2" data-name="Layer 1"><path class="cls-1" d="M1365.61,67.12c-43.3-4.23-86-3.07-128.17,4.21-63.63,11-115.71,1.47-159.77,29.49-18.88,12-40.45,23-63.19,32.66-25.32,10.75-56.28,13.8-87.6,14.61-54.71,1.41-107.56-5.41-160.55-11.65-45.13-5.31-90.21-10.81-135.52-15.56-50-5.24-98.49-1.08-145,10.13-47.76,11.52-94.87,23.9-142.8,35.19-32,7.54-65.23,12.38-100.63,11.66-39.19-.79-71.57-9.7-95.94-26.33-19.11-13-35.57-27.44-51.45-41.85C73,89.67,46,72.61,10.49,60,7.13,58.84,3.5,57.88,0,56.82V50.67C44.72,64,77.73,83.85,103.65,108.07a333.86,333.86,0,0,0,38.7,31.2C173,160.4,213,171.05,261.86,169.49c32.22-1,63-6.08,92.62-13.12,40.51-9.63,80.67-19.73,121.12-29.43,47.25-11.34,96.28-17.7,147.69-13.06,42.64,3.85,85,8.8,127.3,13.72,56.24,6.55,112.38,13.66,170.26,12.63,44.36-.79,85.54-7.29,118.44-25.35,19.52-10.71,38.18-21.92,57.61-32.69,42.14-23.34,92.22-8.94,148.92-17.92,39.48-6.25,79.44-7.06,119.79-3.3Z"/><path class="cls-1" d="M1365.61,17.88c-54.69-1.15-146-12.09-196.19-.08s-56.51,15.65-96.74,36.53c-50.17,26-109.77,39.11-177.26,42.33-51.07,2.43-101.59-.31-152.16-3.31-52.75-3.12-105.63-8-158.56-5.16-42.48,2.3-84.41,8-126.47,12.51-38.87,4.18-77.32,9.88-116.43,13.06-83.65,6.8-153.36-8-206.58-45.74C102.91,45.13,65,26.53,14.67,17.26,9.85,16.38,4.89,15.72,0,15V8.81c42.7,6.58,81.72,16.71,112.74,35.35,21.85,13.14,43.63,26.46,67.7,38.22,31.32,15.31,69.24,22.61,110.55,25,53.77,3.06,105.42-3.74,157.44-9.44,38.84-4.26,77.6-9.33,116.83-11.66,34.08-2,68.84-1.53,103.19-.69,51.09,1.26,102.08,3.92,153.14,5.75A754,754,0,0,0,935.3,86.88C988.93,80.7,1035.28,66.52,1076,46,1134.52,16.45,1163,11.13,1239.31.76c28.54-3.88,96.63,8.31,126.3,11Z"/><path class="cls-1" d="M0,21.12c26.92,3.22,51.41,10.23,71.24,20.29,25.24,12.8,47.51,27.55,70,42,39.15,25.15,86.23,40,147.06,40.11,47.68.12,92.61-6.93,137.94-13.71,42.11-6.3,84.28-12.57,126.87-17.67,36.19-4.34,73-2.4,109.62-.37,75.45,4.2,150,13.55,226.48,11.79,65.41-1.49,124-12.69,173.28-37.64,38-19.22,106.92-48.47,166.92-45.47,62.08,1.24,60.29,3.87,116.82,4.77,6.48.1,12.93.85,19.4,1.3v3.69c-28.23.82-122.62-5.56-150.22-2.76-71.64,7.28-38-2.25-123.67,28.18-28.4,10.08-52.32,28-85.44,36.83-34.61,9.26-71,14-109.3,15.18-56.71,1.72-112.14-3.74-167.86-8.09-34.51-2.69-69.14-5.15-103.86-6.66-53.38-2.32-104.59,4.53-155.5,12.84-46,7.5-92.15,15.19-139,20.55-53.3,6.1-105.83,3.11-150.59-16.3A292.52,292.52,0,0,1,125.75,79.2c-31.23-22.54-66.07-42-114.34-52.4C7.7,26,3.81,25.47,0,24.81Z"/></g></g></svg>