<svg xmlns="http://www.w3.org/2000/svg" viewBox="0 0 121.22 123.18"><defs><style>.cls-1{fill:#003338;}</style></defs><g id="Layer_2" data-name="Layer 2"><g id="Layer_1-2" data-name="Layer 1"><path class="cls-1" d="M32.56,0h56.1C99.2,0,106.08,8.6,107.6,18.35l12.91,82.54c3,10.76-3.91,22.29-15.48,22.29H16.19c-11.57,0-18.51-11.52-15.48-22.27L13.62,18.35C15.14,8.59,22,0,32.56,0ZM64.38,35.08V52.93l5.71-5.7,5.34,5.34L60.61,67.38,45.79,52.57l5.34-5.34,5.71,5.7V35.08ZM60.61,19.57A31.66,31.66,0,1,1,29,51.23,31.69,31.69,0,0,1,60.61,19.57Zm0,8.67a23,23,0,1,0,23,23,23,23,0,0,0-23-23ZM34.53,100.4H46.34v11.46H34.53Zm-17.09,0H29.25v11.46H17.44ZM105,97.83H16.19c-9.89,0-10.06,16.69,0,16.69H105C115.19,114.52,114.74,97.83,105,97.83Zm5-7.86-11-70.3c-.85-5.45-4.3-11-10.41-11H32.56c-6.11,0-9.56,5.55-10.41,11L11.16,90a16.2,16.2,0,0,1,5-.81H105a16,16,0,0,1,5,.81Z"/></g></g></svg>