<svg xmlns="http://www.w3.org/2000/svg" viewBox="0 0 38.53 38.53"><defs><style>.cls-1{fill:#003338;}.cls-2{fill:#fff;}</style></defs><g id="Layer_2" data-name="Layer 2"><g id="Layer_1-2" data-name="Layer 1"><circle class="cls-1" cx="19.26" cy="19.26" r="19.26"/><path class="cls-2" d="M33.05,15.92H23.2a.86.86,0,0,1-.86-.85V5.22a.85.85,0,0,0-.85-.85H16.87a.85.85,0,0,0-.86.85v9.85a.85.85,0,0,1-.86.85H5.31a.86.86,0,0,0-.86.86V21.4a.85.85,0,0,0,.86.86h9.84a.85.85,0,0,1,.86.86V33a.86.86,0,0,0,.86.86h4.62a.86.86,0,0,0,.85-.86V23.12a.86.86,0,0,1,.86-.86h9.85a.85.85,0,0,0,.85-.86V16.78A.86.86,0,0,0,33.05,15.92Z"/></g></g></svg>