<svg xmlns="http://www.w3.org/2000/svg" viewBox="0 0 26 26"><defs><style>.cls-1{fill:#5a9e9a;}</style></defs><g id="Layer_2" data-name="Layer 2"><g id="Layer_1-2" data-name="Layer 1"><path class="cls-1" d="M12.22,0h1.56c.36.06.71.13,1.07.18A13,13,0,0,1,25.56,9.94c.19.75.3,1.52.44,2.28v1.56c-.06.38-.12.76-.19,1.14-1.12,5.6-4.38,9.22-9.95,10.68-.68.17-1.38.27-2.08.4H12.22l-1.14-.19C5.48,24.69,1.86,21.43.4,15.87c-.17-.69-.27-1.39-.4-2.09V12.22c.06-.38.12-.76.19-1.14C1.31,5.48,4.57,1.86,10.14.4,10.82.23,11.52.13,12.22,0ZM11,19.51c0-.31.05-.59.05-.87,0-.8,0-1.6,0-2.4,0-.45.13-.62.6-.6,1.08,0,2.16,0,3.24,0a4.59,4.59,0,0,0,0-9.18H9l-.64,0v13Z"/><path class="cls-1" d="M13.05,9.1a18.82,18.82,0,0,1,2,.14A1.75,1.75,0,0,1,16.52,11a1.69,1.69,0,0,1-1.46,1.8,32.42,32.42,0,0,1-3.69.1c-.12,0-.33-.27-.34-.42,0-1,0-1.95,0-2.92,0-.16.28-.41.45-.43a13.53,13.53,0,0,1,1.56,0Z"/></g></g></svg>