<svg xmlns="http://www.w3.org/2000/svg" viewBox="0 0 61 64"><defs><style>.cls-1{fill:#5a9e9a;}</style></defs><g id="Layer_2" data-name="Layer 2"><g id="Layer_1-2" data-name="Layer 1"><path class="cls-1" d="M16,44H7a2,2,0,0,0,0,4h9a2,2,0,0,0,0-4Z"/><path class="cls-1" d="M16,49H7a2,2,0,0,0,0,4h9a2,2,0,0,0,0-4Z"/><path class="cls-1" d="M16,54H7a2,2,0,0,0,0,4h9a2,2,0,0,0,0-4Z"/><path class="cls-1" d="M35,44H26a2,2,0,0,0,0,4h9a2,2,0,0,0,0-4Z"/><path class="cls-1" d="M35,49H26a2,2,0,0,0,0,4h9a2,2,0,0,0,0-4Z"/><path class="cls-1" d="M35,54H26a2,2,0,0,0,0,4h9a2,2,0,0,0,0-4Z"/><path class="cls-1" d="M59,0H2A2,2,0,0,0,0,2V62a2,2,0,0,0,2,2H59a2,2,0,0,0,2-2V2A2,2,0,0,0,59,0ZM4,4H19V60H4ZM23,4H38V60H23ZM57,60H42V4H57Z"/><path class="cls-1" d="M45,48h9a2,2,0,0,0,0-4H45a2,2,0,0,0,0,4Z"/><path class="cls-1" d="M45,53h9a2,2,0,0,0,0-4H45a2,2,0,0,0,0,4Z"/><path class="cls-1" d="M45,58h9a2,2,0,0,0,0-4H45a2,2,0,0,0,0,4Z"/></g></g></svg>