<svg xmlns="http://www.w3.org/2000/svg" viewBox="0 0 199 96.99"><defs><style>.cls-1,.cls-4{fill:none;}.cls-2{fill:#5a9e9a;}.cls-3{fill:#003338;}.cls-4{stroke:#fff;stroke-linecap:round;stroke-linejoin:round;stroke-width:3.97px;}</style></defs><g id="Layer_2" data-name="Layer 2"><g id="Layer_1-2" data-name="Layer 1"><path class="cls-1" d="M127.63,30.31H46.89a3.75,3.75,0,0,0-3.74,3.74V84.4a3.75,3.75,0,0,0,3.74,3.74h80.74a3.75,3.75,0,0,0,3.75-3.74V34.05A3.75,3.75,0,0,0,127.63,30.31Z"/><path class="cls-1" d="M124.2,20.14a3.75,3.75,0,0,0-3.74-3.74H54.07a3.74,3.74,0,0,0-3.74,3.74v6.44H124.2Z"/><path class="cls-1" d="M114.56,7.47a3.75,3.75,0,0,0-3.75-3.74H63.71A3.75,3.75,0,0,0,60,7.47v5.2h54.59Z"/><path class="cls-2" d="M129.13,26.77l-1.2-.24V20.14a7.48,7.48,0,0,0-7.47-7.47h-2.18V7.47A7.48,7.48,0,0,0,110.81,0H63.71a7.48,7.48,0,0,0-7.47,7.47v5.2H54.07a7.48,7.48,0,0,0-7.47,7.47v6.39l-1.2.24a7.51,7.51,0,0,0-6,7.29V84.4a7.48,7.48,0,0,0,7.47,7.47h80.74a7.49,7.49,0,0,0,7.48-7.47V34.05A7.51,7.51,0,0,0,129.13,26.77ZM60,7.47a3.75,3.75,0,0,1,3.74-3.74h47.1a3.75,3.75,0,0,1,3.75,3.74v5.2H60ZM50.33,20.14a3.74,3.74,0,0,1,3.74-3.74h66.39a3.75,3.75,0,0,1,3.74,3.74v6.44H50.33ZM131.38,84.4a3.75,3.75,0,0,1-3.75,3.74H46.89a3.75,3.75,0,0,1-3.74-3.74V34.05a3.75,3.75,0,0,1,3.74-3.74h80.74a3.75,3.75,0,0,1,3.75,3.74Z"/><path class="cls-2" d="M96.57,38.53H78a9.31,9.31,0,1,0,0,18.62H96.57a9.31,9.31,0,1,0,0-18.62ZM94,54H80c-3.87,0-7-2.69-7-6s3.13-6,7-6H94c3.87,0,7,2.69,7,6S97.87,54,94,54Z"/><path class="cls-3" d="M0,31c5.06-4.83,8.07-7.52,15.06-7.52H30.67V12H15.06c-7,0-10,2.69-15.06,7.51Z"/><polygon class="cls-3" points="30.67 3.86 30.67 29.93 46.93 17.75 30.67 3.86"/><path class="cls-3" d="M118.89,66.89C124,71.71,127,74.41,134,74.41h15.61V85.87H134c-7,0-10-2.69-15.06-7.51Z"/><polygon class="cls-3" points="149.56 94 149.56 67.93 165.82 80.11 149.56 94"/><circle class="cls-2" cx="180.06" cy="78.05" r="18.94"/><polyline class="cls-4" points="172.36 80.6 177.47 89.11 190.51 69.55"/><path class="cls-3" d="M57.76,26V13.67A3.74,3.74,0,0,1,61.5,9.92h51.44a3.76,3.76,0,0,1,3.75,3.81l-.17,12.45"/></g></g></svg>